<svg width="525" height="767" viewBox="0 0 525 767" fill="none" xmlns="http://www.w3.org/2000/svg">
<path d="M202.678 95.8761C181.857 100.024 157.106 111.441 140.182 124.323C123.213 137.238 101.566 160.162 97.2067 181.728C91.7152 208.898 108.072 238.104 129.078 254.295C164.492 281.591 206.009 290.589 249.95 284.281C286.433 279.043 332.918 261.392 352.791 227.838C385.48 172.642 321.544 107.15 270.847 95.6206C244.858 89.7103 215.742 90.3746 189.98 97.1934C185.052 98.4977 170.92 102.08 169.463 107.847" stroke="#F3EBE6" stroke-width="16.8483" stroke-linecap="round"/>
<path d="M251.23 295.6C256.136 334.632 264.203 372.879 271.658 411.46C280.781 458.673 288.86 505.96 300.013 552.764C305.868 577.335 314.069 601.593 319.196 626.3C320.592 633.025 322.407 645.997 316.75 651.426C268.717 697.518 214.105 736.16 162.383 777.975" stroke="#F3EBE6" stroke-width="16.8483" stroke-linecap="round"/>
<path d="M323.367 638.195C343.656 655.973 372 662.511 397.069 671.01C422.028 679.472 446.163 690.065 471.483 697.608C487.335 702.331 503.823 707.756 520.242 709.495C526.488 710.157 526.053 710.374 520.826 707.03" stroke="#F3EBE6" stroke-width="16.8483" stroke-linecap="round"/>
<path d="M282.686 460.114C305.717 424.118 336.735 391.027 369.271 363.173C385.1 349.621 402.643 337.171 417.744 322.915" stroke="#F3EBE6" stroke-width="16.8483" stroke-linecap="round"/>
<path d="M284.512 461.275C241.761 449.139 199.976 435.582 157.876 421.213C127.742 410.929 96.7387 402.306 66.7461 392.227" stroke="#F3EBE6" stroke-width="16.8483" stroke-linecap="round"/>
<path d="M147.526 173.696C150.115 168.449 156.057 165.146 160.8 162.192C166.657 158.544 173.434 155.64 180.024 153.603C185.211 152 190.485 150.318 195.936 149.964C196.972 149.896 199.622 149.437 200.465 149.976" stroke="#F3EBE6" stroke-width="16.8483" stroke-linecap="round"/>
<path d="M298.281 145.776C289.864 142.057 280.376 141.263 271.264 140.948C265.357 140.743 259.597 140.811 253.752 141.676C249.484 142.308 245.198 142.68 240.941 143.419C239.456 143.676 238.116 144.311 236.711 144.62" stroke="#F3EBE6" stroke-width="16.8483" stroke-linecap="round"/>
<path d="M273.373 164.77C271.138 165.528 268.766 166.024 266.416 166.586C264.827 166.966 263.047 167.747 262.901 169.517C262.452 174.971 268.118 176.118 272.371 175.785C275.201 175.563 276.859 174.793 278.572 172.712C279.646 171.407 279.224 168.985 278.137 167.818C275.913 165.43 271.255 165.506 268.293 165.886C266.594 166.104 262.175 166.014 261.411 167.973" stroke="#F3EBE6" stroke-width="16.8483" stroke-linecap="round"/>
<path d="M195.324 181.628C192.643 182.514 189.979 184.279 190.536 187.35C190.752 188.542 192.13 188.954 193.229 189.125C194.552 189.331 195.94 188.638 196.956 187.89C197.815 187.258 199.68 185.372 199.878 184.306C200.268 182.212 195.404 180.441 193.653 180.572C192.149 180.684 191.017 181.391 189.986 182.225" stroke="#F3EBE6" stroke-width="16.8483" stroke-linecap="round"/>
<path d="M181.891 222.461C185.734 226.105 189.487 229.075 193.958 231.878C197.287 233.965 201.165 235.237 204.812 236.622C209.648 238.46 214.461 240.317 219.579 241.176C234.357 243.658 249.864 241.926 263.719 236.203C270.075 233.577 276.247 230.319 281.978 226.518C285.884 223.928 290.052 221.16 293.043 217.486C295.025 215.052 296.983 212.028 296.413 208.776" stroke="#F3EBE6" stroke-width="13.4786" stroke-linecap="round"/>
<path d="M91.1275 205.146C74.2415 199.253 58.5057 190.431 42.3523 182.825C37.9245 180.74 33.3663 178.947 29.0163 176.7C28.2024 176.28 27.1516 176.062 26.6719 175.258" stroke="#F3EBE6" stroke-width="16.8483" stroke-linecap="round"/>
<path d="M27.7792 170.297C38.8188 160.28 50.8695 151.53 63.4751 143.578C68.4467 140.442 73.2816 137.118 78.36 134.156C81.8797 132.104 85.0625 129.445 88.6496 127.526C90.0301 126.788 90.1458 126.488 90.189 124.986C90.3005 121.109 90.6477 117.229 91.1358 113.382C91.9096 107.281 92.5577 101.034 93.7767 95.0079C94.8964 89.4728 96.7619 84.1053 97.861 78.5894C98.1671 77.0532 98.7187 75.7174 99.1789 74.2448C99.3322 73.7544 102.036 75.0961 102.406 75.2489C109.409 78.1447 115.889 81.4326 123.554 82.2445C125.914 82.4944 129.399 83.1852 131.653 82.1957C133.983 81.1732 136.198 80.0073 138.41 78.7366C144.388 75.3023 150.369 71.9403 156.437 68.6591C170.458 61.0762 185.163 54.4719 199.784 48.1257C203.979 46.3046 208.16 44.48 212.394 42.7513C212.978 42.5129 216.002 40.5904 216.583 40.8173C217.793 41.2887 218.853 45.0427 219.469 46.0739C220.983 48.6115 222.27 50.9635 223.509 53.6462C224.208 55.1596 225.303 56.5753 225.891 58.1221C226.174 58.868 231.206 56.1129 231.762 55.8884C242.75 51.4583 253.244 45.8519 264.24 41.4132C267.907 39.9328 271.693 38.4278 275.477 37.2669C275.764 37.1787 277.379 36.5101 277.68 36.7131C278.327 37.15 278.728 39.1807 278.998 39.8494C282.591 48.7448 286.866 57.3092 291.367 65.7629C291.951 66.8592 292.536 67.9647 293.12 69.0484C293.15 69.1037 296.184 67.6443 296.407 67.5399C305.589 63.2295 314.751 58.8834 323.874 54.4449C328.847 52.0257 333.918 49.7936 338.956 47.5138C341.582 46.3257 344.539 45.4473 346.965 43.8669C348.573 42.8192 348.243 46.1886 348.405 47.2387C349.09 51.6904 349.899 56.1133 350.394 60.5926C351.29 68.693 352.734 76.8382 354.17 84.863C354.479 86.5897 354.862 88.333 355.288 90.0357C355.486 90.824 358.6 89.3336 359.17 89.1657C371.006 85.6784 383.538 83.4729 395.684 81.3721C402.336 80.2217 409.201 78.9387 415.96 78.6662C417.089 78.6207 417.079 78.6319 416.903 79.8573C416.26 84.3378 416.298 88.9046 415.648 93.3996C414.281 102.858 413.167 112.183 413.536 121.742C413.644 124.518 414.129 127.228 414.335 129.992C414.468 131.782 414.707 132.331 412.695 132.554C402.961 133.637 393.166 134.082 383.57 136.19C380.479 136.869 377.353 137.773 374.199 138.091C372.748 138.238 371.073 138.925 369.615 138.626C368.985 138.497 369.385 139.887 369.49 140.367C370.266 143.899 371.791 147.277 373.315 150.538C375.398 154.995 378.605 161.101 382.735 164.06C383.237 164.42 383.81 165.307 382.961 165.566C380.316 166.373 377.643 166.991 374.964 167.673C370.279 168.864 365.829 170.429 361.384 172.211" stroke="#F3EBE6" stroke-width="16.8483" stroke-linecap="round"/>
<path d="M69.7908 195.373C69.1741 197.177 69.3677 199.274 69.1767 201.171C68.9371 203.551 69.0206 205.898 68.4595 208.25C67.4618 212.433 65.9681 216.571 65.3142 220.827C65.0431 222.591 63.8637 230.049 66.2527 230.829C69.2974 231.822 72.6323 231.559 75.8884 231.089C78.9011 230.655 81.8575 230.062 84.891 229.741C85.9804 229.625 87.2137 229.615 88.2731 229.382C89.8699 229.032 91.4464 228.741 92.9574 228.109C94.1988 227.59 95.4959 226.852 96.7794 226.57" stroke="#F3EBE6" stroke-width="16.8483" stroke-linecap="round"/>
<path d="M73.4307 219.098C76.9713 217.37 80.7619 216.357 84.3738 214.807C84.6908 214.671 86.9331 213.479 87.3385 213.981C87.7487 214.488 87.7869 215.704 87.9253 216.334C88.0662 216.975 87.4999 215.087 87.2076 214.499" stroke="#F3EBE6" stroke-width="16.8483" stroke-linecap="round"/>
<path d="M42.6523 169.227C43.989 170.804 45.8064 171.708 47.4764 172.886C51.924 176.025 57.1172 179.009 62.1942 181.085C65.964 182.626 69.7887 183.296 73.6276 184.516C75.8298 185.216 77.9353 186.135 79.8347 187.47C80.6992 188.077 82.4569 189.892 82.3698 188.189" stroke="#F3EBE6" stroke-width="16.8483" stroke-linecap="round"/>
<path d="M51.1055 163.289C52.8391 165.799 55.2684 167.463 58.0719 168.506C63.7201 170.607 69.5334 172.269 75.1767 174.362C77.6169 175.267 80.1516 175.87 82.6376 176.498" stroke="#F3EBE6" stroke-width="16.8483" stroke-linecap="round"/>
<path d="M59.9375 159.148C64.7833 161.471 69.5565 163.608 74.6733 165.28C78.9353 166.673 83.2457 167.871 87.494 169.298C88.9328 169.782 90.3806 170.23 91.833 170.67C91.8717 170.682 93.024 170.999 92.999 170.886C92.7118 169.578 90.8696 168.337 90.0487 167.321" stroke="#F3EBE6" stroke-width="16.8483" stroke-linecap="round"/>
<path d="M75.457 151.016C82.7157 153.986 90.2837 156.498 97.7696 158.857C99.5889 159.43 101.515 160.318 103.466 159.965C103.915 159.884 102.973 159.411 102.735 159.182" stroke="#F3EBE6" stroke-width="16.8483" stroke-linecap="round"/>
<path d="M70.1525 151.233C72.9959 150.608 75.6039 148.382 78.081 146.904C83.518 143.66 88.5316 139.784 93.8316 136.331C100.191 132.188 106.658 128.158 112.916 123.906" stroke="#F3EBE6" stroke-width="16.8483" stroke-linecap="round"/>
<path d="M113.105 91.7782C110.431 99.7831 109.245 108.137 107.493 116.363C106.256 122.174 105.126 127.798 104.686 133.742C104.388 137.778 103.638 142.057 103.978 146.115C104.063 147.121 104.344 145.084 104.394 144.905C105.198 142.069 105.808 139.183 106.53 136.326" stroke="#F3EBE6" stroke-width="16.8483" stroke-linecap="round"/>
<path d="M108.313 87.1625C106.693 89.0802 106.132 92.2756 105.253 94.6341C103.313 99.8399 102.658 105.831 101.803 111.315C100.72 118.263 99.3603 125.369 99.2369 132.417C99.1376 138.081 98.7049 143.86 99.1136 149.521C99.1948 150.644 99.4164 151.602 99.1873 152.721C98.9365 153.945 100.235 150.006 100.328 149.638" stroke="#F3EBE6" stroke-width="16.8483" stroke-linecap="round"/>
<path d="M125.677 90.2841C125.386 97.1275 123.476 103.947 121.961 110.607C120.319 117.829 118.588 125.089 117.305 132.377C116.944 134.425 117.104 136.361 116.979 138.374C116.875 140.039 117.278 138.438 117.529 137.694" stroke="#F3EBE6" stroke-width="16.8483" stroke-linecap="round"/>
<path d="M123.718 98.5703C130.74 95.8861 137.564 92.1517 144.349 88.9695C150.539 86.0669 156.967 83.6252 163.312 81.0812C169.56 78.5754 175.977 76.5966 182.178 73.9482C185.805 72.399 189.141 70.4887 192.682 68.7742C195.644 67.34 198.299 65.3226 201.297 63.9104C203.71 62.7737 206.203 61.7842 208.568 60.5654C210.525 59.5567 212.701 58.7287 214.81 58.1105C215.655 57.863 216.302 57.1535 217.146 56.9681" stroke="#F3EBE6" stroke-width="16.8483" stroke-linecap="round"/>
<path d="M126.305 114.67C126.182 114.862 128.321 113.486 128.794 113.11C131.56 110.907 134.455 109.078 137.356 107.051C141.478 104.171 145.848 101.969 150.207 99.5092C154.848 96.8899 159.822 95.253 164.67 93.0987C172.026 89.8298 179.643 87.1112 187.026 83.8706C192.897 81.2937 199.265 79.3412 205.375 77.4103C211.867 75.3588 218.109 72.1573 224.669 70.3931C227.621 69.5992 230.579 68.4742 233.426 67.3684C236.212 66.2859 239.148 65.9691 241.937 64.9746C245.663 63.6458 249.538 62.8751 253.147 61.1837C254.754 60.4305 256.7 60.3005 258.247 59.4167C260.333 58.2249 257.618 59.6367 256.862 60.1929" stroke="#F3EBE6" stroke-width="16.8483" stroke-linecap="round"/>
<path d="M132.369 119.326C130.895 122.313 127.027 123.153 124.888 125.374" stroke="#F3EBE6" stroke-width="16.8483" stroke-linecap="round"/>
<path d="M254.836 58.1249C259.939 57.0041 265.041 55.8833 270.143 54.7625C272.049 54.344 272.609 55.2697 273.371 56.8851C274.96 60.2508 272.56 63.7263 270.452 66.1958C267.227 69.9743 263.405 71.218 258.85 72.817C248.652 76.3968 237.172 74.6862 227.003 78.4666C224.321 79.4639 221.998 80.902 219.532 82.1703C219.198 82.3418 217.62 82.9255 218.824 83.1648C220.373 83.4726 222.848 83.0848 224.378 82.7487C226.665 82.2464 228.988 82.3445 231.298 82.1027C234.748 81.7414 238.19 81.2936 241.648 81.0003C250.113 80.2821 258.472 78.6553 266.973 78.2864C281.142 77.6716 295.314 77.7002 309.486 76.9533C311.005 76.8732 315.534 76.815 314.033 76.5663C311.99 76.2275 309.988 75.2434 307.906 74.8533C300.571 73.4786 293.111 72.829 285.788 71.4791C283.62 71.0793 280.132 70.5018 277.953 70.9804C277.188 71.1484 273.684 71.9573 274.267 72.1047" stroke="#F3EBE6" stroke-width="16.8483" stroke-linecap="round"/>
<path d="M339.694 60.5761C334.89 63.1807 330.413 66.3529 325.724 69.1506C322.732 70.9359 319.692 72.3574 316.626 73.9632C309.353 77.7724 301.707 80.754 294.153 83.9335C288.933 86.1306 283.338 86.7987 277.932 87.9862C275.8 88.4545 274.263 88.3955 272.333 87.6429" stroke="#F3EBE6" stroke-width="16.8483" stroke-linecap="round"/>
<path d="M271.664 87.4688C283.939 89.7131 296.082 92.711 308.377 94.8208C314.02 95.7892 319.341 97.1645 324.244 100.215C327.041 101.955 330.023 103.396 332.796 105.17C334.253 106.103 335.481 107.329 336.894 108.308C338.297 109.281 339.611 110.334 341.055 111.257C341.953 111.832 343.021 112.968 342.634 111.207" stroke="#F3EBE6" stroke-width="16.8483" stroke-linecap="round"/>
<path d="M303.078 94.4062C311.805 103.944 322.699 111.11 332.608 119.347C337.09 123.073 340.952 127.459 344.958 131.648C347.34 134.14 350.16 136.178 352.583 138.591C352.988 138.994 353.868 139.761 353.304 138.607C351.828 135.589 350.265 132.628 348.589 129.715" stroke="#F3EBE6" stroke-width="16.8483" stroke-linecap="round"/>
<path d="M313.461 88.6641C323.276 96.5397 332.449 105.215 341.664 113.774C346.837 118.578 352.12 124.023 356.551 129.503C356.785 129.794 358.576 132.197 358.255 130.737C357.986 129.511 357.155 128.338 356.671 127.187C355.777 125.058 354.85 123.012 353.612 121.06" stroke="#F3EBE6" stroke-width="16.8483" stroke-linecap="round"/>
<path d="M319.242 82.0391C324.88 88.7714 330.929 95.0903 336.763 101.647C341.959 107.486 346.899 113.666 352.549 119.084C354.332 120.794 356.065 122.538 358.223 123.746C359.103 124.239 357.021 120.113 356.781 119.728" stroke="#F3EBE6" stroke-width="16.8483" stroke-linecap="round"/>
<path d="M331.426 75.9062C334.646 81.5992 338.994 87.098 343.072 92.2428C348.546 99.148 354.005 106.14 360.166 112.452C361.519 113.838 363.013 115.484 364.594 116.618C365.442 117.225 364.456 115.489 364.294 115.25" stroke="#F3EBE6" stroke-width="16.8483" stroke-linecap="round"/>
<path d="M338.129 73.4844C344.008 84.2979 351.49 94.6341 360.388 103.203C363.413 106.117 360.042 101.352 359.429 100.268" stroke="#F3EBE6" stroke-width="16.8483" stroke-linecap="round"/>
<path d="M359.972 109.908C365.92 108.06 371.689 105.99 377.703 104.37C383.607 102.779 389.604 101.497 395.442 99.6691C397.125 99.1424 398.624 98.8393 400.131 97.9399" stroke="#F3EBE6" stroke-width="16.8483" stroke-linecap="round"/>
<path d="M410.012 94.2079C402.009 94.6565 394.112 96.0329 386.09 96.3863C381.387 96.5936 376.652 96.6947 371.946 96.7666C370.056 96.7955 368.191 97.085 366.321 97.1806C366.255 97.184 365.571 96.9146 365.566 97.0843C365.554 97.4808 368.14 98.4323 368.505 98.6062" stroke="#F3EBE6" stroke-width="16.8483" stroke-linecap="round"/>
<path d="M406.854 102.757C395.904 104.924 385.122 107.53 374.239 109.921C370.908 110.653 367.637 111.686 364.334 112.411C363.83 112.522 363.293 112.481 363.166 112.982" stroke="#F3EBE6" stroke-width="16.8483" stroke-linecap="round"/>
<path d="M401.096 116.615C386.134 119.902 370.496 119.028 355.44 121.942C353.078 122.4 350.733 122.959 348.383 123.475C347.307 123.711 350.637 123.343 351.682 123.694" stroke="#F3EBE6" stroke-width="16.8483" stroke-linecap="round"/>
<path d="M399.267 125.507C393.232 125.562 387.302 125.999 381.292 126.589C377.881 126.924 374.566 127.306 371.295 128.348C369.036 129.068 366.706 129.514 364.392 130.022" stroke="#F3EBE6" stroke-width="16.8483" stroke-linecap="round"/>
<path d="M355.402 139.234C357.811 143.272 359.899 147.399 362.057 151.546C363.258 153.854 364.198 157.408 366.086 159.226" stroke="#F3EBE6" stroke-width="16.8483" stroke-linecap="round"/>
</svg>
