

<svg width="526" height="767" viewBox="0 0 526 767" fill="none" xmlns="http://www.w3.org/2000/svg">
<path d="M203.672 95.7784C182.851 99.9259 158.1 111.343 141.176 124.225C124.207 137.141 102.56 160.065 98.2009 181.631C92.7094 208.8 109.066 238.007 130.072 254.197C165.486 281.494 207.004 290.491 250.945 284.183C287.427 278.945 333.912 261.294 353.785 227.74C386.474 172.544 322.539 107.052 271.841 95.5229C245.852 89.6126 216.736 90.277 190.974 97.0957C186.046 98.4 171.914 101.982 170.457 107.75" stroke="#F3EBE6" stroke-width="16.8483" stroke-linecap="round"/>
<path d="M252.223 295.503C257.129 334.535 265.196 372.782 272.651 411.362C281.774 458.575 289.853 505.863 301.006 552.667C306.861 577.238 315.062 601.495 320.189 626.202C321.585 632.927 323.4 645.9 317.743 651.328C269.71 697.42 215.098 736.062 163.376 777.878" stroke="#F3EBE6" stroke-width="16.8483" stroke-linecap="round"/>
<path d="M324.369 638.098C344.658 655.876 373.002 662.413 398.071 670.913C423.03 679.375 447.165 689.967 472.485 697.511C488.337 702.233 504.825 707.659 521.244 709.398C527.49 710.059 527.054 710.276 521.828 706.932" stroke="#F3EBE6" stroke-width="16.8483" stroke-linecap="round"/>
<path d="M283.681 460.017C306.712 424.02 337.73 390.929 370.266 363.075C386.095 349.523 403.638 337.074 418.739 322.817" stroke="#F3EBE6" stroke-width="16.8483" stroke-linecap="round"/>
<path d="M285.505 461.178C242.754 449.042 200.969 435.485 158.869 421.116C128.735 410.831 97.7318 402.208 67.7393 392.129" stroke="#F3EBE6" stroke-width="16.8483" stroke-linecap="round"/>
<path d="M148.518 173.598C151.108 168.352 157.049 165.048 161.792 162.094C167.649 158.446 174.426 155.542 181.016 153.505C186.204 151.902 191.477 150.22 196.929 149.866C197.964 149.799 200.614 149.339 201.457 149.879" stroke="#F3EBE6" stroke-width="16.8483" stroke-linecap="round"/>
<path d="M299.275 145.679C290.858 141.959 281.37 141.165 272.259 140.85C266.351 140.646 260.591 140.714 254.747 141.578C250.478 142.21 246.192 142.582 241.935 143.321C240.45 143.579 239.11 144.213 237.705 144.522" stroke="#F3EBE6" stroke-width="16.8483" stroke-linecap="round"/>
<path d="M274.366 164.672C272.131 165.43 269.759 165.926 267.409 166.488C265.821 166.868 264.04 167.65 263.895 169.419C263.445 174.873 269.111 176.021 273.364 175.687C276.194 175.466 277.852 174.695 279.565 172.614C280.639 171.309 280.217 168.887 279.13 167.72C276.906 165.333 272.248 165.408 269.286 165.788C267.587 166.006 263.168 165.916 262.404 167.876" stroke="#F3EBE6" stroke-width="16.8483" stroke-linecap="round"/>
<path d="M196.319 181.53C193.638 182.417 190.974 184.181 191.531 187.252C191.747 188.444 193.125 188.856 194.224 189.027C195.547 189.234 196.935 188.54 197.951 187.793C198.81 187.16 200.675 185.274 200.874 184.208C201.263 182.114 196.399 180.344 194.648 180.474C193.144 180.586 192.012 181.293 190.981 182.127" stroke="#F3EBE6" stroke-width="16.8483" stroke-linecap="round"/>
<path d="M203.586 241.535C205.909 241.747 208.235 241.859 211.076 241.875C213.193 241.887 215.77 241.715 218.176 241.583C221.366 241.409 224.537 241.24 228.018 240.882C238.069 239.847 249.036 238.065 259.241 235.804C263.922 234.767 268.535 233.646 272.895 232.481C275.867 231.686 279.038 230.838 281.477 229.959C283.094 229.377 284.751 228.702 284.669 228.236" stroke="#F3EBE6" stroke-width="13.4786" stroke-linecap="round"/>
<path d="M92.1226 205.049C75.2366 199.155 59.5009 190.334 43.3474 182.728C38.9196 180.643 34.3614 178.849 30.0114 176.603C29.1976 176.183 28.1467 175.964 27.667 175.16" stroke="#F3EBE6" stroke-width="16.8483" stroke-linecap="round"/>
<path d="M28.7733 170.199C39.8129 160.182 51.8636 151.433 64.4693 143.481C69.4409 140.345 74.2757 137.02 79.3542 134.059C82.8738 132.006 86.0566 129.347 89.6437 127.429C91.0242 126.69 91.1399 126.39 91.1831 124.888C91.2946 121.011 91.6418 117.132 92.1299 113.284C92.9037 107.183 93.5519 100.937 94.7709 94.9102C95.8905 89.3751 97.756 84.0077 98.8551 78.4917C99.1612 76.9555 99.7128 75.6197 100.173 74.1471C100.326 73.6567 103.03 74.9984 103.4 75.1512C110.403 78.0471 116.883 81.335 124.548 82.1468C126.908 82.3968 130.393 83.0875 132.648 82.0981C134.977 81.0756 137.192 79.9096 139.404 78.6389C145.382 75.2046 151.363 71.8426 157.431 68.5614C171.452 60.9785 186.157 54.3742 200.778 48.028C204.973 46.2069 209.154 44.3823 213.388 42.6537C213.972 42.4153 216.996 40.4927 217.578 40.7196C218.787 41.191 219.847 44.945 220.463 45.9763C221.977 48.5139 223.264 50.8658 224.503 53.5485C225.202 55.062 226.297 56.4777 226.885 58.0244C227.168 58.7704 232.2 56.0152 232.756 55.7908C243.744 51.3607 254.238 45.7542 265.234 41.3156C268.901 39.8352 272.687 38.3301 276.471 37.1692C276.758 37.081 278.373 36.4124 278.674 36.6154C279.322 37.0524 279.722 39.083 279.992 39.7517C283.585 48.6471 287.86 57.2115 292.361 65.6652C292.945 66.7615 293.53 67.8671 294.114 68.9508C294.144 69.006 297.179 67.5467 297.401 67.4422C306.583 63.1319 315.745 58.7858 324.868 54.3473C329.841 51.928 334.912 49.6959 339.951 47.4161C342.576 46.228 345.533 45.3496 347.959 43.7693C349.567 42.7215 349.237 46.091 349.399 47.1411C350.084 51.5928 350.893 56.0157 351.388 60.4949C352.284 68.5953 353.728 76.7405 355.164 84.7654C355.473 86.492 355.856 88.2354 356.283 89.9381C356.48 90.7263 359.594 89.2359 360.164 89.068C372 85.5807 384.532 83.3752 396.679 81.2744C403.33 80.1241 410.195 78.841 416.954 78.5686C418.083 78.523 418.073 78.5342 417.897 79.7597C417.254 84.2401 417.292 88.8069 416.642 93.3019C415.275 102.761 414.161 112.086 414.53 121.645C414.638 124.42 415.123 127.13 415.329 129.894C415.462 131.685 415.701 132.233 413.689 132.457C403.955 133.539 394.16 133.985 384.564 136.093C381.473 136.772 378.347 137.676 375.193 137.994C373.742 138.14 372.067 138.827 370.609 138.529C369.979 138.4 370.379 139.79 370.484 140.269C371.26 143.802 372.785 147.179 374.309 150.441C376.392 154.897 379.6 161.003 383.729 163.963C384.231 164.322 384.805 165.21 383.955 165.469C381.31 166.276 378.638 166.894 375.958 167.575C371.273 168.766 366.823 170.331 362.378 172.114" stroke="#F3EBE6" stroke-width="16.8483" stroke-linecap="round"/>
<path d="M70.783 195.275C70.1663 197.079 70.3599 199.177 70.1689 201.073C69.9293 203.453 70.0128 205.8 69.4517 208.153C68.454 212.335 66.9603 216.474 66.3064 220.729C66.0353 222.493 64.8559 229.951 67.2448 230.731C70.2896 231.725 73.6244 231.461 76.8805 230.991C79.8933 230.557 82.8497 229.965 85.8832 229.643C86.9726 229.528 88.2059 229.517 89.2653 229.285C90.8621 228.934 92.4386 228.643 93.9495 228.011C95.191 227.492 96.4881 226.754 97.7715 226.472" stroke="#F3EBE6" stroke-width="16.8483" stroke-linecap="round"/>
<path d="M74.4259 219.001C77.9664 217.273 81.757 216.259 85.3689 214.709C85.686 214.573 87.9282 213.382 88.3336 213.883C88.7438 214.391 88.782 215.606 88.9204 216.236C89.0613 216.878 88.495 214.989 88.2027 214.401" stroke="#F3EBE6" stroke-width="16.8483" stroke-linecap="round"/>
<path d="M43.6455 169.129C44.9822 170.706 46.7996 171.61 48.4696 172.789C52.9172 175.928 58.1103 178.911 63.1873 180.987C66.9571 182.528 70.7819 183.198 74.6207 184.418C76.823 185.118 78.9284 186.037 80.8279 187.372C81.6924 187.98 83.45 189.794 83.363 188.091" stroke="#F3EBE6" stroke-width="16.8483" stroke-linecap="round"/>
<path d="M52.0977 163.191C53.8313 165.701 56.2606 167.365 59.064 168.408C64.7122 170.51 70.5256 172.172 76.1689 174.264C78.6091 175.169 81.1438 175.773 83.6298 176.401" stroke="#F3EBE6" stroke-width="16.8483" stroke-linecap="round"/>
<path d="M60.9326 159.051C65.7785 161.374 70.5517 163.51 75.6684 165.183C79.9304 166.576 84.2408 167.773 88.4892 169.201C89.9279 169.684 91.3757 170.132 92.8281 170.572C92.8668 170.584 94.0191 170.902 93.9941 170.788C93.7069 169.481 91.8647 168.239 91.0438 167.224" stroke="#F3EBE6" stroke-width="16.8483" stroke-linecap="round"/>
<path d="M76.4492 150.918C83.7078 153.888 91.2759 156.4 98.7618 158.759C100.581 159.332 102.507 160.221 104.459 159.867C104.907 159.786 103.965 159.313 103.727 159.084" stroke="#F3EBE6" stroke-width="16.8483" stroke-linecap="round"/>
<path d="M71.1466 151.135C73.99 150.511 76.5981 148.285 79.0751 146.807C84.5121 143.563 89.5258 139.686 94.8257 136.233C101.185 132.09 107.652 128.06 113.91 123.808" stroke="#F3EBE6" stroke-width="16.8483" stroke-linecap="round"/>
<path d="M114.097 91.6805C111.423 99.6855 110.237 108.039 108.486 116.265C107.248 122.077 106.118 127.7 105.679 133.644C105.38 137.68 104.63 141.959 104.971 146.017C105.055 147.023 105.336 144.987 105.387 144.807C106.191 141.971 106.8 139.086 107.522 136.228" stroke="#F3EBE6" stroke-width="16.8483" stroke-linecap="round"/>
<path d="M109.307 87.0649C107.686 88.9825 107.125 92.1779 106.246 94.5365C104.306 99.7423 103.651 105.734 102.796 111.218C101.713 118.165 100.353 125.271 100.23 132.319C100.131 137.984 99.6981 143.762 100.107 149.423C100.188 150.547 100.41 151.504 100.18 152.623C99.9297 153.847 101.228 149.908 101.321 149.541" stroke="#F3EBE6" stroke-width="16.8483" stroke-linecap="round"/>
<path d="M126.668 90.1864C126.377 97.0299 124.467 103.849 122.952 110.509C121.31 117.731 119.58 124.992 118.296 132.28C117.935 134.328 118.095 136.263 117.97 138.277C117.867 139.941 118.27 138.341 118.52 137.596" stroke="#F3EBE6" stroke-width="16.8483" stroke-linecap="round"/>
<path d="M124.711 98.4726C131.733 95.7884 138.557 92.054 145.342 88.8718C151.532 85.9692 157.961 83.5276 164.305 80.9835C170.553 78.4778 176.97 76.499 183.171 73.8505C186.798 72.3013 190.134 70.3911 193.675 68.6765C196.637 67.2423 199.292 65.225 202.29 63.8127C204.703 62.676 207.196 61.6866 209.561 60.4678C211.518 59.4591 213.694 58.6311 215.803 58.0128C216.648 57.7654 217.295 57.0558 218.139 56.8705" stroke="#F3EBE6" stroke-width="16.8483" stroke-linecap="round"/>
<path d="M127.3 114.572C127.178 114.764 129.316 113.388 129.789 113.012C132.555 110.809 135.451 108.981 138.351 106.954C142.474 104.073 146.843 101.871 151.202 99.4115C155.843 96.7923 160.817 95.1554 165.665 93.001C173.021 89.7321 180.638 87.0136 188.021 83.7729C193.892 81.196 200.26 79.2435 206.371 77.3127C212.863 75.2612 219.104 72.0597 225.664 70.2955C228.616 69.5016 231.574 68.3766 234.421 67.2708C237.207 66.1882 240.143 65.8714 242.932 64.8769C246.658 63.5482 250.533 62.7774 254.142 61.0861C255.749 60.3329 257.695 60.2029 259.242 59.319C261.328 58.1272 258.613 59.5391 257.857 60.0952" stroke="#F3EBE6" stroke-width="16.8483" stroke-linecap="round"/>
<path d="M133.362 119.228C131.888 122.215 128.02 123.055 125.881 125.276" stroke="#F3EBE6" stroke-width="16.8483" stroke-linecap="round"/>
<path d="M255.828 58.0272C260.931 56.9064 266.033 55.7857 271.136 54.6649C273.041 54.2463 273.601 55.1721 274.363 56.7874C275.952 60.1531 273.552 63.6286 271.445 66.0981C268.22 69.8767 264.397 71.1204 259.842 72.7193C249.644 76.2991 238.164 74.5885 227.996 78.3689C225.313 79.3663 222.99 80.8043 220.524 82.0726C220.191 82.2441 218.612 82.8278 219.816 83.0671C221.365 83.375 223.84 82.9871 225.37 82.6511C227.657 82.1488 229.981 82.2469 232.29 82.005C235.74 81.6438 239.183 81.196 242.64 80.9026C251.105 80.1845 259.464 78.5576 267.965 78.1887C282.134 77.5739 296.307 77.6025 310.478 76.8556C311.997 76.7756 316.526 76.7174 315.025 76.4686C312.982 76.1299 310.98 75.1457 308.899 74.7556C301.563 73.381 294.103 72.7313 286.781 71.3815C284.612 70.9817 281.124 70.4042 278.945 70.8828C278.181 71.0507 274.676 71.8597 275.26 72.007" stroke="#F3EBE6" stroke-width="16.8483" stroke-linecap="round"/>
<path d="M340.688 60.4784C335.884 63.083 331.407 66.2553 326.718 69.0529C323.726 70.8382 320.686 72.2597 317.62 73.8655C310.347 77.6748 302.702 80.6563 295.148 83.8359C289.928 86.033 284.332 86.701 278.926 87.8885C276.794 88.3568 275.257 88.2978 273.327 87.5453" stroke="#F3EBE6" stroke-width="16.8483" stroke-linecap="round"/>
<path d="M272.666 87.3711C284.941 89.6155 297.084 92.6134 309.379 94.7232C315.022 95.6916 320.343 97.0669 325.246 100.117C328.043 101.857 331.025 103.299 333.798 105.073C335.255 106.005 336.483 107.231 337.896 108.21C339.298 109.183 340.613 110.236 342.057 111.159C342.955 111.734 344.023 112.871 343.636 111.109" stroke="#F3EBE6" stroke-width="16.8483" stroke-linecap="round"/>
<path d="M304.08 94.3086C312.807 103.846 323.701 111.012 333.61 119.249C338.092 122.976 341.954 127.361 345.96 131.551C348.342 134.042 351.162 136.08 353.585 138.493C353.99 138.896 354.87 139.663 354.306 138.51C352.83 135.491 351.267 132.53 349.591 129.617" stroke="#F3EBE6" stroke-width="16.8483" stroke-linecap="round"/>
<path d="M314.463 88.5664C324.278 96.4421 333.451 105.118 342.666 113.676C347.839 118.48 353.122 123.926 357.553 129.406C357.787 129.696 359.577 132.099 359.257 130.639C358.988 129.413 358.157 128.241 357.673 127.089C356.779 124.96 355.852 122.914 354.614 120.962" stroke="#F3EBE6" stroke-width="16.8483" stroke-linecap="round"/>
<path d="M320.244 81.9414C325.882 88.6738 331.931 94.9926 337.765 101.549C342.961 107.388 347.9 113.568 353.551 118.987C355.334 120.696 357.067 122.44 359.225 123.648C360.105 124.141 358.023 120.015 357.783 119.63" stroke="#F3EBE6" stroke-width="16.8483" stroke-linecap="round"/>
<path d="M332.428 75.8086C335.648 81.5015 339.996 87.0004 344.074 92.1451C349.548 99.0504 355.007 106.043 361.168 112.354C362.521 113.74 364.015 115.387 365.596 116.52C366.444 117.127 365.458 115.391 365.296 115.153" stroke="#F3EBE6" stroke-width="16.8483" stroke-linecap="round"/>
<path d="M339.133 73.3867C345.012 84.2003 352.494 94.5364 361.392 103.106C364.417 106.019 361.046 101.255 360.433 100.17" stroke="#F3EBE6" stroke-width="16.8483" stroke-linecap="round"/>
<path d="M360.974 109.81C366.922 107.963 372.691 105.893 378.704 104.272C384.609 102.681 390.606 101.399 396.444 99.5714C398.127 99.0448 399.626 98.7416 401.133 97.8423" stroke="#F3EBE6" stroke-width="16.8483" stroke-linecap="round"/>
<path d="M411.014 94.1102C403.011 94.5589 395.114 95.9352 387.092 96.2887C382.389 96.4959 377.654 96.5971 372.948 96.6689C371.058 96.6978 369.193 96.9874 367.323 97.0829C367.257 97.0863 366.573 96.817 366.568 96.9867C366.556 97.3831 369.142 98.3346 369.507 98.5085" stroke="#F3EBE6" stroke-width="16.8483" stroke-linecap="round"/>
<path d="M407.856 102.659C396.906 104.826 386.124 107.433 375.241 109.823C371.91 110.555 368.639 111.588 365.336 112.314C364.832 112.424 364.294 112.383 364.168 112.885" stroke="#F3EBE6" stroke-width="16.8483" stroke-linecap="round"/>
<path d="M402.096 116.518C387.134 119.804 371.496 118.93 356.44 121.845C354.078 122.302 351.733 122.861 349.383 123.377C348.307 123.614 351.637 123.245 352.682 123.597" stroke="#F3EBE6" stroke-width="16.8483" stroke-linecap="round"/>
<path d="M400.267 125.41C394.232 125.464 388.302 125.902 382.292 126.492C378.881 126.826 375.566 127.208 372.295 128.25C370.036 128.971 367.706 129.416 365.392 129.924" stroke="#F3EBE6" stroke-width="16.8483" stroke-linecap="round"/>
<path d="M356.404 139.137C358.813 143.174 360.901 147.302 363.059 151.448C364.26 153.756 365.2 157.31 367.088 159.128" stroke="#F3EBE6" stroke-width="16.8483" stroke-linecap="round"/>
</svg>
