<svg width="525" height="767" viewBox="0 0 525 767" fill="none" xmlns="http://www.w3.org/2000/svg">
<path d="M202.682 96.1495C181.861 100.297 157.11 111.714 140.186 124.596C123.217 137.512 101.57 160.436 97.2106 182.002C91.7191 209.171 108.076 238.378 129.081 254.568C164.496 281.865 206.013 290.862 249.954 284.554C286.437 279.316 332.922 261.665 352.795 228.111C385.484 172.915 321.548 107.424 270.851 95.894C244.862 89.9837 215.745 90.6481 189.984 97.4668C185.056 98.7711 170.924 102.353 169.467 108.121" stroke="#F3EBE6" stroke-width="16.8483" stroke-linecap="round"/>
<path d="M251.233 295.874C256.14 334.906 264.207 373.153 271.662 411.733C280.785 458.946 288.864 506.234 300.017 553.038C305.872 577.609 314.073 601.866 319.2 626.573C320.595 633.298 322.411 646.271 316.754 651.699C268.721 697.791 214.109 736.434 162.387 778.249" stroke="#F3EBE6" stroke-width="16.8483" stroke-linecap="round"/>
<path d="M323.371 638.469C343.66 656.247 372.004 662.784 397.073 671.284C422.032 679.746 446.167 690.338 471.487 697.882C487.339 702.605 503.827 708.03 520.246 709.769C526.492 710.431 526.056 710.647 520.83 707.303" stroke="#F3EBE6" stroke-width="16.8483" stroke-linecap="round"/>
<path d="M282.69 460.388C305.72 424.391 336.739 391.3 369.275 363.446C385.104 349.894 402.647 337.445 417.748 323.188" stroke="#F3EBE6" stroke-width="16.8483" stroke-linecap="round"/>
<path d="M284.515 461.549C241.765 449.413 199.98 435.856 157.879 421.487C127.746 411.202 96.7426 402.579 66.75 392.5" stroke="#F3EBE6" stroke-width="16.8483" stroke-linecap="round"/>
<path d="M147.53 173.969C150.119 168.723 156.06 165.42 160.804 162.465C166.661 158.817 173.437 155.913 180.027 153.877C185.215 152.273 190.489 150.591 195.94 150.237C196.976 150.17 199.625 149.71 200.469 150.25" stroke="#F3EBE6" stroke-width="16.8483" stroke-linecap="round"/>
<path d="M298.285 146.05C289.868 142.33 280.38 141.536 271.268 141.221C265.36 141.017 259.601 141.085 253.756 141.949C249.488 142.581 245.202 142.953 240.945 143.692C239.46 143.95 238.119 144.585 236.715 144.893" stroke="#F3EBE6" stroke-width="16.8483" stroke-linecap="round"/>
<path d="M273.377 165.043C271.142 165.801 268.77 166.297 266.42 166.859C264.831 167.239 263.051 168.021 262.905 169.79C262.456 175.245 268.122 176.392 272.374 176.059C275.205 175.837 276.863 175.067 278.576 172.985C279.65 171.68 279.228 169.258 278.141 168.091C275.917 165.704 271.259 165.779 268.297 166.159C266.597 166.377 262.179 166.288 261.415 168.247" stroke="#F3EBE6" stroke-width="16.8483" stroke-linecap="round"/>
<path d="M195.328 181.901C192.647 182.788 189.983 184.552 190.54 187.623C190.756 188.815 192.134 189.227 193.232 189.398C194.556 189.605 195.944 188.911 196.959 188.164C197.819 187.531 199.684 185.645 199.882 184.579C200.272 182.485 195.408 180.715 193.657 180.845C192.153 180.957 191.021 181.664 189.99 182.498" stroke="#F3EBE6" stroke-width="16.8483" stroke-linecap="round"/>
<path d="M298.605 223.359C294.508 220.004 290.548 217.315 285.886 214.845C282.413 213.005 278.453 212.018 274.715 210.901C269.758 209.421 264.823 207.918 259.657 207.433C244.737 206.032 229.397 208.886 215.994 215.602C209.846 218.682 203.928 222.38 198.488 226.587C194.78 229.455 190.825 232.519 188.109 236.4C186.308 238.972 184.576 242.13 185.381 245.332" stroke="#F3EBE6" stroke-width="13.4786" stroke-linecap="round"/>
<path d="M91.1314 205.42C74.2454 199.526 58.5097 190.705 42.3562 183.099C37.9284 181.014 33.3702 179.22 29.0202 176.974C28.2063 176.554 27.1555 176.335 26.6758 175.531" stroke="#F3EBE6" stroke-width="16.8483" stroke-linecap="round"/>
<path d="M27.7831 170.57C38.8227 160.554 50.8734 151.804 63.4791 143.852C68.4506 140.716 73.2855 137.391 78.3639 134.43C81.8836 132.377 85.0664 129.718 88.6535 127.8C90.034 127.061 90.1497 126.761 90.1929 125.259C90.3044 121.383 90.6516 117.503 91.1397 113.655C91.9135 107.554 92.5616 101.308 93.7806 95.2813C94.9003 89.7462 96.7658 84.3788 97.8649 78.8628C98.171 77.3266 98.7226 75.9908 99.1828 74.5182C99.3361 74.0278 102.04 75.3695 102.41 75.5223C109.413 78.4182 115.893 81.7061 123.558 82.5179C125.918 82.7678 129.403 83.4586 131.657 82.4692C133.987 81.4467 136.202 80.2807 138.413 79.01C144.391 75.5757 150.373 72.2137 156.44 68.9325C170.462 61.3496 185.167 54.7453 199.787 48.3991C203.983 46.578 208.164 44.7534 212.398 43.0248C212.982 42.7864 216.006 40.8638 216.587 41.0907C217.796 41.5621 218.857 45.3161 219.472 46.3474C220.987 48.885 222.274 51.2369 223.513 53.9196C224.212 55.4331 225.306 56.8488 225.894 58.3955C226.178 59.1415 231.21 56.3863 231.766 56.1619C242.753 51.7318 253.248 46.1253 264.244 41.6867C267.911 40.2063 271.697 38.7012 275.481 37.5403C275.768 37.4521 277.383 36.7835 277.684 36.9865C278.331 37.4234 278.732 39.4541 279.002 40.1228C282.595 49.0182 286.87 57.5826 291.371 66.0363C291.955 67.1326 292.54 68.2382 293.124 69.3218C293.154 69.3771 296.188 67.9178 296.411 67.8133C305.593 63.503 314.754 59.1568 323.878 54.7184C328.851 52.2991 333.922 50.067 338.96 47.7872C341.586 46.5991 344.543 45.7207 346.969 44.1404C348.577 43.0926 348.247 46.4621 348.408 47.5122C349.094 51.9639 349.903 56.3868 350.398 60.866C351.294 68.9664 352.738 77.1116 354.174 85.1365C354.482 86.8631 354.865 88.6065 355.292 90.3092C355.49 91.0974 358.604 89.607 359.174 89.4391C371.009 85.9518 383.541 83.7463 395.688 81.6455C402.34 80.4951 409.204 79.2121 415.964 78.9396C417.093 78.8941 417.083 78.9053 416.907 80.1308C416.264 84.6112 416.302 89.178 415.652 93.673C414.285 103.132 413.171 112.457 413.54 122.016C413.648 124.791 414.133 127.501 414.339 130.265C414.472 132.056 414.711 132.604 412.699 132.828C402.965 133.91 393.17 134.356 383.574 136.464C380.483 137.143 377.357 138.047 374.203 138.365C372.752 138.511 371.077 139.199 369.619 138.9C368.989 138.771 369.389 140.161 369.494 140.64C370.27 144.173 371.795 147.55 373.319 150.812C375.402 155.268 378.609 161.375 382.739 164.334C383.241 164.693 383.814 165.581 382.965 165.84C380.32 166.647 377.647 167.265 374.968 167.946C370.282 169.137 365.832 170.702 361.387 172.485" stroke="#F3EBE6" stroke-width="16.8483" stroke-linecap="round"/>
<path d="M69.7947 195.647C69.178 197.45 69.3716 199.548 69.1806 201.445C68.941 203.824 69.0246 206.171 68.4634 208.524C67.4657 212.706 65.972 216.845 65.3181 221.1C65.047 222.865 63.8676 230.322 66.2566 231.102C69.3013 232.096 72.6362 231.832 75.8923 231.363C78.905 230.928 81.8614 230.336 84.8949 230.014C85.9843 229.899 87.2176 229.889 88.277 229.656C89.8738 229.305 91.4504 229.014 92.9613 228.382C94.2027 227.863 95.4998 227.125 96.7833 226.843" stroke="#F3EBE6" stroke-width="16.8483" stroke-linecap="round"/>
<path d="M73.4346 219.372C76.9752 217.644 80.7658 216.631 84.3777 215.08C84.6948 214.944 86.937 213.753 87.3424 214.254C87.7526 214.762 87.7908 215.977 87.9292 216.607C88.0701 217.249 87.5038 215.361 87.2115 214.772" stroke="#F3EBE6" stroke-width="16.8483" stroke-linecap="round"/>
<path d="M42.6562 169.5C43.9929 171.077 45.8103 171.981 47.4803 173.16C51.9279 176.299 57.1211 179.282 62.1981 181.358C65.9679 182.899 69.7926 183.569 73.6315 184.789C75.8337 185.489 77.9392 186.408 79.8386 187.743C80.7031 188.351 82.4608 190.165 82.3737 188.462" stroke="#F3EBE6" stroke-width="16.8483" stroke-linecap="round"/>
<path d="M51.1094 163.562C52.8431 166.072 55.2723 167.736 58.0758 168.779C63.724 170.881 69.5373 172.543 75.1806 174.635C77.6208 175.54 80.1555 176.144 82.6415 176.772" stroke="#F3EBE6" stroke-width="16.8483" stroke-linecap="round"/>
<path d="M59.9414 159.422C64.7873 161.745 69.5604 163.881 74.6772 165.554C78.9392 166.947 83.2496 168.144 87.4979 169.572C88.9367 170.055 90.3845 170.503 91.8369 170.943C91.8756 170.955 93.0279 171.273 93.0029 171.159C92.7157 169.852 90.8735 168.61 90.0526 167.595" stroke="#F3EBE6" stroke-width="16.8483" stroke-linecap="round"/>
<path d="M75.4609 151.289C82.7196 154.259 90.2876 156.772 97.7735 159.13C99.5928 159.703 101.519 160.592 103.47 160.238C103.918 160.157 102.977 159.684 102.739 159.455" stroke="#F3EBE6" stroke-width="16.8483" stroke-linecap="round"/>
<path d="M70.1564 151.506C72.9998 150.882 75.6078 148.656 78.0849 147.178C83.5219 143.934 88.5355 140.057 93.8355 136.604C100.195 132.461 106.662 128.431 112.92 124.179" stroke="#F3EBE6" stroke-width="16.8483" stroke-linecap="round"/>
<path d="M113.109 92.0516C110.435 100.057 109.249 108.41 107.497 116.636C106.26 122.448 105.13 128.071 104.69 134.015C104.392 138.051 103.642 142.33 103.982 146.388C104.067 147.394 104.347 145.358 104.398 145.178C105.202 142.342 105.812 139.457 106.534 136.599" stroke="#F3EBE6" stroke-width="16.8483" stroke-linecap="round"/>
<path d="M108.317 87.436C106.696 89.3536 106.136 92.549 105.257 94.9076C103.317 100.113 102.662 106.105 101.807 111.589C100.724 118.536 99.3642 125.643 99.2408 132.69C99.1415 138.355 98.7088 144.133 99.1175 149.794C99.1987 150.918 99.4203 151.875 99.1912 152.994C98.9404 154.219 100.239 150.279 100.332 149.912" stroke="#F3EBE6" stroke-width="16.8483" stroke-linecap="round"/>
<path d="M125.681 90.5575C125.39 97.401 123.48 104.22 121.965 110.88C120.323 118.102 118.592 125.363 117.309 132.651C116.948 134.699 117.108 136.634 116.983 138.648C116.879 140.312 117.282 138.712 117.533 137.968" stroke="#F3EBE6" stroke-width="16.8483" stroke-linecap="round"/>
<path d="M123.722 98.8437C130.744 96.1595 137.568 92.4251 144.353 89.2429C150.542 86.3403 156.971 83.8987 163.315 81.3546C169.564 78.8489 175.981 76.87 182.182 74.2216C185.809 72.6724 189.145 70.7622 192.686 69.0476C195.648 67.6134 198.303 65.596 201.301 64.1838C203.714 63.0471 206.207 62.0577 208.572 60.8389C210.529 59.8302 212.704 59.0022 214.814 58.3839C215.658 58.1365 216.306 57.4269 217.15 57.2416" stroke="#F3EBE6" stroke-width="16.8483" stroke-linecap="round"/>
<path d="M126.309 114.943C126.186 115.135 128.325 113.759 128.798 113.383C131.564 111.18 134.459 109.352 137.36 107.325C141.482 104.444 145.852 102.243 150.211 99.7826C154.852 97.1634 159.825 95.5265 164.674 93.3721C172.03 90.1032 179.647 87.3847 187.03 84.144C192.9 81.5671 199.269 79.6146 205.379 77.6838C211.871 75.6323 218.113 72.4308 224.673 70.6666C227.625 69.8727 230.583 68.7477 233.43 67.6419C236.216 66.5593 239.152 66.2425 241.94 65.248C245.667 63.9193 249.542 63.1485 253.151 61.4572C254.758 60.704 256.704 60.574 258.251 59.6901C260.337 58.4983 257.621 59.9102 256.866 60.4663" stroke="#F3EBE6" stroke-width="16.8483" stroke-linecap="round"/>
<path d="M132.373 119.599C130.898 122.586 127.031 123.426 124.892 125.647" stroke="#F3EBE6" stroke-width="16.8483" stroke-linecap="round"/>
<path d="M254.84 58.3983C259.943 57.2775 265.045 56.1567 270.147 55.036C272.053 54.6174 272.613 55.5432 273.375 57.1585C274.964 60.5242 272.564 63.9997 270.456 66.4692C267.231 70.2478 263.409 71.4915 258.854 73.0904C248.655 76.6702 237.176 74.9596 227.007 78.74C224.325 79.7374 222.002 81.1754 219.536 82.4437C219.202 82.6152 217.624 83.1989 218.828 83.4382C220.377 83.746 222.852 83.3582 224.382 83.0222C226.669 82.5199 228.992 82.618 231.302 82.3761C234.752 82.0149 238.194 81.5671 241.652 81.2737C250.117 80.5556 258.476 78.9287 266.977 78.5598C281.146 77.945 295.318 77.9736 309.49 77.2267C311.009 77.1467 315.538 77.0885 314.037 76.8397C311.994 76.501 309.992 75.5168 307.91 75.1267C300.575 73.7521 293.115 73.1024 285.792 71.7526C283.624 71.3528 280.136 70.7753 277.957 71.2538C277.192 71.4218 273.688 72.2308 274.271 72.3781" stroke="#F3EBE6" stroke-width="16.8483" stroke-linecap="round"/>
<path d="M339.698 60.8495C334.893 63.4541 330.417 66.6264 325.728 69.424C322.736 71.2093 319.696 72.6308 316.63 74.2366C309.357 78.0459 301.711 81.0274 294.157 84.207C288.937 86.4041 283.342 87.0721 277.936 88.2596C275.804 88.7279 274.267 88.6689 272.337 87.9164" stroke="#F3EBE6" stroke-width="16.8483" stroke-linecap="round"/>
<path d="M271.668 87.7422C283.942 89.9866 296.086 92.9845 308.381 95.0943C314.024 96.0627 319.345 97.438 324.248 100.488C327.045 102.228 330.027 103.67 332.8 105.444C334.257 106.376 335.485 107.602 336.898 108.581C338.3 109.554 339.615 110.607 341.059 111.53C341.957 112.105 343.025 113.242 342.638 111.48" stroke="#F3EBE6" stroke-width="16.8483" stroke-linecap="round"/>
<path d="M303.082 94.6797C311.809 104.217 322.703 111.383 332.612 119.62C337.094 123.347 340.956 127.732 344.962 131.922C347.344 134.413 350.164 136.451 352.587 138.864C352.992 139.267 353.872 140.034 353.307 138.881C351.831 135.862 350.268 132.901 348.592 129.988" stroke="#F3EBE6" stroke-width="16.8483" stroke-linecap="round"/>
<path d="M313.465 88.9375C323.28 96.8132 332.452 105.489 341.668 114.047C346.841 118.851 352.124 124.297 356.555 129.777C356.789 130.067 358.579 132.47 358.259 131.01C357.989 129.784 357.158 128.612 356.675 127.461C355.781 125.331 354.854 123.285 353.616 121.333" stroke="#F3EBE6" stroke-width="16.8483" stroke-linecap="round"/>
<path d="M319.246 82.3125C324.884 89.0448 330.933 95.3637 336.767 101.921C341.963 107.76 346.902 113.939 352.553 119.358C354.336 121.067 356.069 122.811 358.227 124.019C359.107 124.512 357.025 120.386 356.785 120.001" stroke="#F3EBE6" stroke-width="16.8483" stroke-linecap="round"/>
<path d="M331.43 76.1797C334.649 81.8726 338.997 87.3715 343.076 92.5162C348.55 99.4215 354.009 106.414 360.17 112.725C361.523 114.111 363.017 115.758 364.598 116.891C365.446 117.499 364.46 115.763 364.298 115.524" stroke="#F3EBE6" stroke-width="16.8483" stroke-linecap="round"/>
<path d="M338.133 73.7578C344.012 84.5713 351.494 94.9075 360.392 103.477C363.417 106.39 360.046 101.626 359.433 100.541" stroke="#F3EBE6" stroke-width="16.8483" stroke-linecap="round"/>
<path d="M359.976 110.181C365.924 108.334 371.693 106.264 377.706 104.643C383.611 103.052 389.608 101.77 395.446 99.9425C397.129 99.4159 398.628 99.1127 400.135 98.2134" stroke="#F3EBE6" stroke-width="16.8483" stroke-linecap="round"/>
<path d="M410.016 94.4813C402.012 94.93 394.116 96.3063 386.094 96.6598C381.391 96.867 376.656 96.9681 371.95 97.04C370.06 97.0689 368.195 97.3585 366.325 97.454C366.259 97.4574 365.575 97.188 365.57 97.3578C365.558 97.7542 368.144 98.7057 368.508 98.8796" stroke="#F3EBE6" stroke-width="16.8483" stroke-linecap="round"/>
<path d="M406.858 103.03C395.908 105.197 385.126 107.804 374.243 110.194C370.912 110.926 367.641 111.959 364.338 112.685C363.834 112.795 363.296 112.754 363.17 113.256" stroke="#F3EBE6" stroke-width="16.8483" stroke-linecap="round"/>
<path d="M401.1 116.889C386.138 120.175 370.5 119.301 355.444 122.216C353.082 122.673 350.737 123.232 348.387 123.748C347.31 123.985 350.641 123.617 351.686 123.968" stroke="#F3EBE6" stroke-width="16.8483" stroke-linecap="round"/>
<path d="M399.271 125.781C393.236 125.835 387.306 126.273 381.295 126.863C377.885 127.198 374.57 127.579 371.299 128.622C369.04 129.342 366.71 129.787 364.396 130.295" stroke="#F3EBE6" stroke-width="16.8483" stroke-linecap="round"/>
<path d="M355.406 139.508C357.815 143.545 359.903 147.673 362.061 151.819C363.262 154.127 364.202 157.681 366.09 159.499" stroke="#F3EBE6" stroke-width="16.8483" stroke-linecap="round"/>
</svg>
