<svg width="200" height="200" viewBox="0 0 200 200" fill="none" xmlns="http://www.w3.org/2000/svg">
<path d="M175 66.6489C174.997 63.7262 174.225 60.8557 172.763 58.3253C171.3 55.7949 169.198 53.6936 166.667 52.2323L108.333 18.8989C105.8 17.4361 102.926 16.666 100 16.666C97.0744 16.666 94.2003 17.4361 91.6667 18.8989L33.3333 52.2323C30.8022 53.6936 28.6998 55.7949 27.2372 58.3253C25.7745 60.8557 25.003 63.7262 25 66.6489V133.316C25.003 136.238 25.7745 139.109 27.2372 141.639C28.6998 144.17 30.8022 146.271 33.3333 147.732L91.6667 181.066C94.2003 182.528 97.0744 183.299 100 183.299C102.926 183.299 105.8 182.528 108.333 181.066L166.667 147.732C169.198 146.271 171.3 144.17 172.763 141.639C174.225 139.109 174.997 136.238 175 133.316V66.6489Z" stroke="#EEEEEE" stroke-width="16.6667" stroke-linecap="round" stroke-linejoin="round"/>
<path d="M27.5063 58.334L100.006 100.001L172.506 58.334" stroke="#EEEEEE" stroke-width="16.6667" stroke-linecap="round" stroke-linejoin="round"/>
<path d="M100 183.333V100" stroke="#EEEEEE" stroke-width="16.6667" stroke-linecap="round" stroke-linejoin="round"/>
</svg>
