<svg width="150" height="150" viewBox="0 0 150 150" fill="none" xmlns="http://www.w3.org/2000/svg">
<path d="M76.1094 72.8891C75.712 74.6112 77.5801 75.9646 79.0927 75.0504L86.4212 70.6211L93.7498 75.0504C95.2624 75.9647 97.1305 74.6112 96.7331 72.8891L94.7962 64.4961L101.2 58.9727C102.541 57.8164 101.829 55.6167 100.065 55.4655L91.6712 54.7461L88.2595 46.7854C87.5669 45.1692 85.2756 45.1692 84.5829 46.7854L81.1712 54.7461L72.7778 55.4655C71.0138 55.6167 70.3017 57.8164 71.6423 58.9727L78.0462 64.4961L76.1094 72.8891ZM77.4212 109.996H105.421C104.838 112.163 103.838 113.913 102.421 115.246C101.005 116.579 99.1712 117.413 96.9212 117.746L42.4212 124.371C39.6712 124.788 37.1921 124.142 34.9837 122.434C32.7754 120.725 31.5046 118.496 31.1712 115.746L24.5462 61.1211C24.2129 58.3711 24.8796 55.9128 26.5462 53.7461C28.2129 51.5794 30.4212 50.3294 33.1712 49.9961L38.9212 49.2461V59.2461L38.324 59.329C36.1591 59.6297 34.6364 61.6124 34.9044 63.7816L40.6804 110.524C40.9514 112.717 42.9498 114.275 45.143 114.003L77.4212 109.996ZM58.9212 99.9961C56.1712 99.9961 53.8171 99.0169 51.8587 97.0586C49.9004 95.1003 48.9212 92.7461 48.9212 89.9961V34.9961C48.9212 32.2461 49.9004 29.8919 51.8587 27.9336C53.8171 25.9753 56.1712 24.9961 58.9212 24.9961H113.921C116.671 24.9961 119.025 25.9753 120.984 27.9336C122.942 29.8919 123.921 32.2461 123.921 34.9961V89.9961C123.921 92.7461 122.942 95.1003 120.984 97.0586C119.025 99.0169 116.671 99.9961 113.921 99.9961H58.9212ZM58.9212 85.9961C58.9212 88.2052 60.7121 89.9961 62.9212 89.9961H109.921C112.13 89.9961 113.921 88.2052 113.921 85.9961V38.9961C113.921 36.787 112.13 34.9961 109.921 34.9961H62.9212C60.7121 34.9961 58.9212 36.787 58.9212 38.9961V85.9961Z" fill="#F3EBE6"/>
</svg>
