<svg width="836" height="984" viewBox="0 0 836 984" fill="none" xmlns="http://www.w3.org/2000/svg">
<path d="M255.859 794.456C277.56 809.602 309.191 822.007 335.384 826.109C361.646 830.222 400.947 829.905 424.105 815.211C453.279 796.699 465.428 756.779 461.859 723.914C455.841 668.503 428.099 623.398 384.499 589.325C348.299 561.034 292.302 534.463 244.973 545.552C167.117 563.793 163.401 677.822 196.79 733.368C213.906 761.843 239.635 787.456 268.003 804.739C273.429 808.045 288.849 817.663 295.293 813.995" stroke="#F3EBE6" stroke-width="21.0017" stroke-linecap="round"/>
<path d="M393.584 578.416C424.453 540.313 451.888 500.047 480.151 460.042C514.737 411.087 550.292 363.005 582.759 312.578C599.804 286.104 614.541 257.791 632.336 231.855C637.18 224.795 647.28 211.966 657.045 212.368C739.956 215.784 821.846 231.546 904.095 241.971" stroke="#F3EBE6" stroke-width="21.0017" stroke-linecap="round"/>
<path d="M639.43 217.832C637.907 184.241 619.322 153.106 605.328 123.224C591.396 93.4742 580.09 62.6251 565.02 33.3424C555.586 15.0098 546.234 -4.50108 533.626 -20.7688C528.83 -26.9576 529.401 -26.7527 530.905 -19.1655" stroke="#F3EBE6" stroke-width="21.0017" stroke-linecap="round"/>
<path d="M514.38 408.106C462.128 418.463 405.594 419.128 352.461 413.909C326.611 411.37 300.273 406.338 274.417 405.062" stroke="#F3EBE6" stroke-width="21.0017" stroke-linecap="round"/>
<path d="M513.855 405.48C539.84 454.403 563.713 503.684 587.128 553.949C603.888 589.926 622.892 625.252 639.715 660.926" stroke="#F3EBE6" stroke-width="21.0017" stroke-linecap="round"/>
<path d="M373.453 776.884C366.5 779.083 358.401 776.591 351.65 774.875C343.314 772.756 334.853 769.168 327.333 764.999C321.413 761.717 315.349 758.426 310.325 753.829C309.371 752.956 306.671 750.97 306.428 749.745" stroke="#F3EBE6" stroke-width="21.0017" stroke-linecap="round"/>
<path d="M218.225 665.403C222.145 676.183 229.62 685.401 237.201 693.868C242.116 699.358 247.149 704.479 252.971 708.989C257.223 712.283 261.257 715.816 265.596 719.007C267.11 720.12 268.837 720.778 270.327 721.774" stroke="#F3EBE6" stroke-width="21.0017" stroke-linecap="round"/>
<path d="M256.807 671.403C259.418 672.76 261.911 674.465 264.445 676.093C266.158 677.194 268.397 678.12 270.115 676.724C275.408 672.421 271.549 666.335 267.579 662.798C264.936 660.444 262.812 659.617 259.462 659.873C257.362 660.033 255.547 662.503 255.436 664.489C255.208 668.549 259.297 672.673 262.195 675.009C263.858 676.349 267.592 680.401 270.013 679.397" stroke="#F3EBE6" stroke-width="21.0017" stroke-linecap="round"/>
<path d="M339.332 727.062C342.443 728.708 346.329 729.581 348.611 726.43C349.497 725.207 348.678 723.612 347.883 722.476C346.927 721.107 345.105 720.458 343.556 720.19C342.246 719.963 338.939 719.913 337.81 720.655C335.59 722.112 338.196 728.015 339.825 729.477C341.223 730.732 342.837 731.14 344.477 731.348" stroke="#F3EBE6" stroke-width="21.0017" stroke-linecap="round"/>
<path d="M387.645 703.887C387.605 697.285 387.036 691.346 385.698 684.907C384.701 680.11 382.498 675.525 380.597 671.049C378.075 665.114 375.591 659.183 371.947 653.838C361.423 638.405 346.481 625.954 329.375 618.433C321.528 614.983 313.271 612.245 304.906 610.371C299.204 609.094 293.117 607.735 287.232 608.215C283.332 608.533 278.922 609.383 276.49 612.702" stroke="#F3EBE6" stroke-width="16.8014" stroke-linecap="round"/>
<path d="M450.415 800.461C459.69 820.734 465.338 842.5 472.44 863.593C474.386 869.374 476.707 875.022 478.442 880.873C478.766 881.968 479.477 883.101 479.168 884.227" stroke="#F3EBE6" stroke-width="21.0017" stroke-linecap="round"/>
<path d="M473.756 887.512C455.219 886.229 436.948 882.943 418.916 878.47C411.805 876.705 404.642 875.226 397.595 873.215C392.711 871.821 387.573 871.254 382.751 869.684C380.896 869.08 380.526 869.235 379.138 870.492C375.555 873.738 371.766 876.774 367.884 879.657C361.73 884.226 355.552 889.035 349.08 893.14C343.136 896.911 336.698 899.866 330.789 903.638C329.143 904.689 327.466 905.346 325.744 906.203C325.171 906.488 324.043 902.898 323.862 902.434C320.422 893.636 317.786 884.971 311.9 877.376C310.088 875.038 307.701 871.307 304.865 870.134C301.935 868.922 298.975 867.936 295.923 867.044C287.675 864.632 279.488 862.154 271.3 859.529C252.378 853.464 233.746 845.939 215.42 838.268C210.161 836.066 204.911 833.881 199.702 831.565C198.983 831.246 194.644 830.186 194.346 829.467C193.727 827.973 196.187 823.778 196.584 822.335C197.559 818.783 198.563 815.595 199.906 812.165C200.664 810.23 200.993 808.024 201.876 806.16C202.302 805.261 195.482 803.114 194.799 802.807C181.332 796.75 167.232 792.151 153.749 786.093C149.252 784.072 144.631 781.966 140.321 779.565C139.993 779.383 137.998 778.508 137.921 778.062C137.755 777.102 139.236 774.99 139.604 774.17C144.503 763.26 148.515 752.023 152.234 740.679C152.716 739.208 153.205 737.727 153.675 736.266C153.699 736.192 149.768 734.722 149.482 734.612C137.68 730.075 125.864 725.587 113.997 721.212C107.529 718.828 101.145 716.194 94.7456 713.63C91.4108 712.294 88.0686 710.393 84.5537 709.576C82.2233 709.034 85.5386 706.422 86.3434 705.371C89.7552 700.912 93.0351 696.367 96.6361 692.055C103.148 684.258 109.227 675.929 115.205 667.711C116.491 665.943 117.728 664.094 118.891 662.24C119.43 661.382 115.402 659.868 114.759 659.501C101.407 651.866 88.6065 642.499 76.2329 633.388C69.4574 628.399 62.3783 623.332 56.2991 617.489C55.2834 616.512 55.3022 616.512 56.5561 615.612C61.1406 612.323 65.2154 608.348 69.8187 605.052C79.5056 598.118 88.8535 591.071 97.1315 582.488C99.5353 579.996 101.554 577.22 103.862 574.65C105.357 572.984 105.644 572.296 107.581 573.913C116.957 581.733 125.812 590.157 135.99 596.968C139.269 599.162 142.78 601.193 145.788 603.755C147.172 604.934 149.236 605.847 150.226 607.416C150.654 608.094 151.558 606.534 151.899 606.026C154.406 602.279 156.128 597.993 157.745 593.807C159.955 588.087 162.679 579.932 161.776 573.663C161.666 572.902 161.969 571.62 162.935 572.16C165.944 573.843 168.806 575.713 171.732 577.535C176.847 580.72 182.096 583.372 187.535 585.831" stroke="#F3EBE6" stroke-width="21.0017" stroke-linecap="round"/>
<path d="M460.044 828.081C462.199 827.078 463.918 825.094 465.789 823.629C468.136 821.79 470.174 819.689 472.775 818.163C477.397 815.451 482.408 813.222 486.8 810.137C488.621 808.858 496.346 803.482 494.985 800.66C493.251 797.064 490.135 794.293 486.903 791.77C483.911 789.435 480.827 787.288 477.92 784.837C476.875 783.957 475.802 782.856 474.678 782.104C472.984 780.971 471.362 779.804 469.49 778.991C467.951 778.323 466.168 777.793 464.807 776.882" stroke="#F3EBE6" stroke-width="21.0017" stroke-linecap="round"/>
<path d="M478.239 804.343C473.629 802.65 469.446 800.116 464.935 798.205C464.539 798.038 461.532 797.049 461.633 796.252C461.735 795.445 462.795 794.361 463.243 793.693C463.698 793.013 462.489 795.152 462.212 795.922" stroke="#F3EBE6" stroke-width="21.0017" stroke-linecap="round"/>
<path d="M459.957 875.055C460.222 872.491 459.466 870.077 459.085 867.557C458.069 860.848 456.27 853.602 453.754 847.245C451.887 842.524 449.188 838.506 446.972 834C445.701 831.416 444.71 828.729 444.271 825.868C444.071 824.567 444.186 821.42 442.73 822.968" stroke="#F3EBE6" stroke-width="21.0017" stroke-linecap="round"/>
<path d="M447.324 872.582C448.085 868.857 447.484 865.236 446.003 861.814C443.018 854.92 439.495 848.258 436.506 841.376C435.214 838.401 433.569 835.6 431.988 832.822" stroke="#F3EBE6" stroke-width="21.0017" stroke-linecap="round"/>
<path d="M435.969 868.207C433.875 861.844 431.677 855.707 428.765 849.662C426.339 844.626 423.695 839.716 421.312 834.663C420.505 832.952 419.659 831.263 418.801 829.577C418.778 829.532 418.069 828.222 417.989 828.342C417.061 829.729 417.534 832.458 417.329 834.072" stroke="#F3EBE6" stroke-width="21.0017" stroke-linecap="round"/>
<path d="M415.258 861.289C411.664 852.198 407.391 843.223 403.051 834.454C401.996 832.324 401.133 829.824 399.131 828.374C398.671 828.041 399.058 829.297 399.058 829.708" stroke="#F3EBE6" stroke-width="21.0017" stroke-linecap="round"/>
<path d="M420.033 865.866C417.017 863.848 412.764 863.423 409.297 862.471C401.687 860.382 393.873 859.218 386.193 857.432C376.978 855.289 367.772 852.951 358.546 850.993" stroke="#F3EBE6" stroke-width="21.0017" stroke-linecap="round"/>
<path d="M329.495 878.548C339.003 874.044 347.539 867.9 356.449 862.375C362.743 858.472 368.776 854.634 374.501 849.899C378.389 846.684 382.884 843.665 386.24 839.856C387.072 838.912 384.998 840.418 384.793 840.527C381.549 842.251 378.427 844.194 375.234 846.011" stroke="#F3EBE6" stroke-width="21.0017" stroke-linecap="round"/>
<path d="M329.472 886.848C332.596 886.651 335.954 884.397 338.834 883.152C345.19 880.403 351.144 875.821 356.814 871.856C363.997 866.834 371.561 861.923 378.006 855.951C383.186 851.151 388.757 846.553 393.495 841.299C394.436 840.256 395.106 839.23 396.309 838.471C397.627 837.639 392.963 839.871 392.553 840.105" stroke="#F3EBE6" stroke-width="21.0017" stroke-linecap="round"/>
<path d="M317.301 868.541C323.707 862.896 331.489 858.728 338.786 854.342C346.698 849.586 354.722 844.875 362.384 839.739C364.537 838.296 366.14 836.481 368.059 834.856C369.645 833.512 367.858 834.531 366.972 834.949" stroke="#F3EBE6" stroke-width="21.0017" stroke-linecap="round"/>
<path d="M326.429 863.155C317.954 859.156 308.706 856.243 299.987 852.887C292.035 849.826 284.29 846.151 276.526 842.642C268.879 839.185 261.561 835.122 253.827 831.831C249.303 829.906 244.705 828.554 240.107 826.85C236.261 825.424 232.155 824.777 228.297 823.3C225.192 822.111 222.151 820.723 219.013 819.648C216.417 818.758 213.794 817.516 211.417 816.153C210.466 815.607 209.269 815.637 208.374 815.038" stroke="#F3EBE6" stroke-width="21.0017" stroke-linecap="round"/>
<path d="M338.679 846.93C338.957 846.874 335.874 846.138 335.127 846.038C330.759 845.452 326.615 844.426 322.289 843.567C316.14 842.346 310.388 840.316 304.414 838.519C298.052 836.606 292.287 833.546 286.165 831.045C276.876 827.251 267.857 822.747 258.57 818.904C251.185 815.848 243.932 811.806 236.922 807.977C229.473 803.909 221.207 801.06 213.958 796.682C210.696 794.712 207.131 793.023 203.68 791.417C200.301 789.846 197.482 787.479 194.181 785.829C189.77 783.625 185.731 780.805 181.096 779.019C179.031 778.224 177.234 776.586 175.104 775.958C172.232 775.111 175.846 776.334 176.998 776.534" stroke="#F3EBE6" stroke-width="21.0017" stroke-linecap="round"/>
<path d="M337.637 837.457C341.595 836.205 345.69 838.958 349.533 838.965" stroke="#F3EBE6" stroke-width="21.0017" stroke-linecap="round"/>
<path d="M176.883 780.126C171.471 776.505 166.059 772.883 160.647 769.262C158.626 767.909 158.975 766.607 159.77 764.527C161.426 760.193 166.622 759.351 170.662 759.115C176.844 758.754 181.262 761.119 186.632 763.835C198.654 769.917 207.023 781.718 219.2 787.6C222.413 789.152 225.711 790 228.98 791.123C229.422 791.275 231.309 792.19 230.485 790.901C229.425 789.242 226.94 787.351 225.317 786.265C222.892 784.642 220.975 782.468 218.764 780.6C215.461 777.809 212.087 775.099 208.839 772.243C200.887 765.25 192.209 759.136 184.539 751.809C171.757 739.597 159.55 726.826 146.646 714.725C145.263 713.428 141.302 709.406 142.374 710.97C143.833 713.1 144.675 715.75 146.121 717.959C151.217 725.743 157.071 733.012 162.177 740.763C163.69 743.058 166.181 746.694 168.491 748.24C169.303 748.783 173.055 751.236 172.684 750.584" stroke="#F3EBE6" stroke-width="21.0017" stroke-linecap="round"/>
<path d="M105.852 701.693C112.341 703.766 119.058 705.054 125.621 706.856C129.809 708.006 133.712 709.513 137.802 710.885C147.505 714.138 156.786 718.44 166.166 722.49C172.647 725.288 178.078 729.744 183.812 733.581C186.073 735.094 187.346 736.527 188.335 738.912" stroke="#F3EBE6" stroke-width="21.0017" stroke-linecap="round"/>
<path d="M188.758 739.672C180.182 726.696 172.396 713.187 163.682 700.308C159.682 694.397 156.327 688.425 154.838 681.383C153.989 677.366 152.711 673.439 151.913 669.414C151.494 667.299 151.537 665.136 151.198 663.021C150.862 660.919 150.674 658.828 150.259 656.733C150 655.429 150.101 653.487 148.851 655.356" stroke="#F3EBE6" stroke-width="21.0017" stroke-linecap="round"/>
<path d="M167.887 705.426C168.932 689.345 165.974 673.362 164.83 657.341C164.312 650.094 164.923 642.836 165.233 635.616C165.417 631.323 164.817 627.029 164.895 622.767C164.908 622.054 164.839 620.601 164.288 622.104C162.848 626.037 161.534 629.999 160.36 634.02" stroke="#F3EBE6" stroke-width="21.0017" stroke-linecap="round"/>
<path d="M153.766 701.043C152.377 685.418 152.262 669.681 152.005 654.005C151.861 645.206 152.198 635.755 153.303 627.041C153.361 626.579 153.977 622.895 152.941 624.443C152.071 625.744 151.734 627.503 151.116 628.932C149.972 631.574 148.933 634.173 148.245 636.971" stroke="#F3EBE6" stroke-width="21.0017" stroke-linecap="round"/>
<path d="M142.812 701.566C144.001 690.685 144.463 679.791 145.324 668.884C146.091 659.172 147.385 649.396 147.381 639.637C147.38 636.558 147.453 633.494 146.677 630.511C146.36 629.294 144.446 634.727 144.308 635.276" stroke="#F3EBE6" stroke-width="21.0017" stroke-linecap="round"/>
<path d="M126.777 695.898C129.118 688.089 130.311 679.432 131.417 671.324C132.903 660.441 134.48 649.496 134.838 638.508C134.917 636.094 135.109 633.33 134.763 630.929C134.577 629.642 133.867 632.027 133.792 632.379" stroke="#F3EBE6" stroke-width="21.0017" stroke-linecap="round"/>
<path d="M118.82 691.977C123.471 677.355 126.309 661.706 126.336 646.307C126.345 641.071 124.97 648.215 124.524 649.703" stroke="#F3EBE6" stroke-width="21.0017" stroke-linecap="round"/>
<path d="M132.724 640.883C125.928 637.128 119.087 633.726 112.44 629.716C105.912 625.78 99.5837 621.493 92.9004 617.819C90.9748 616.761 89.4078 615.674 87.298 615.095" stroke="#F3EBE6" stroke-width="21.0017" stroke-linecap="round"/>
<path d="M75.4063 609.432C82.718 616.243 90.7718 622.157 98.0133 629.066C102.259 633.117 106.437 637.288 110.564 641.459C112.221 643.134 114.091 644.561 115.791 646.16C115.851 646.216 116.199 647.065 116.356 646.922C116.722 646.591 115.347 643.444 115.188 642.966" stroke="#F3EBE6" stroke-width="21.0017" stroke-linecap="round"/>
<path d="M85.8229 604.889C97.2238 612.866 108.874 620.313 120.417 628.038C123.95 630.402 127.703 632.452 131.206 634.796C131.741 635.154 132.167 635.673 132.728 635.354" stroke="#F3EBE6" stroke-width="21.0017" stroke-linecap="round"/>
<path d="M103.247 598.099C119.117 608.718 131.829 623.537 147.445 634.562C149.895 636.291 152.422 637.917 154.914 639.585C156.056 640.349 152.85 637.672 152.264 636.429" stroke="#F3EBE6" stroke-width="21.0017" stroke-linecap="round"/>
<path d="M112.836 592.079C118.094 597.46 123.606 602.415 129.324 607.311C132.568 610.089 135.773 612.742 139.534 614.783C142.132 616.194 144.543 617.905 146.998 619.548" stroke="#F3EBE6" stroke-width="21.0017" stroke-linecap="round"/>
<path d="M163.039 619.684C164.591 614.032 166.501 608.592 168.368 603.072C169.407 600 171.791 596.087 171.797 592.82" stroke="#F3EBE6" stroke-width="21.0017" stroke-linecap="round"/>
</svg>
