<svg width="663" height="649" viewBox="0 0 663 649" fill="none" xmlns="http://www.w3.org/2000/svg">
<path d="M60.7504 235.718C111.992 218.562 170.23 196.812 191.771 186.386M60.7504 235.718L3.02855 88.0884L133.053 37.5294M60.7504 235.718L67.4833 237.991C98.6806 227.67 168.701 202.873 199.203 186.259M191.771 186.386L133.053 37.5294M191.771 186.386L199.203 186.259M133.053 37.5294L139.433 38.8669L199.203 186.259" stroke="#F3EBE6" stroke-width="2"/>
<path d="M19.6799 103.499C19.9684 103.028 19.8205 102.412 19.3496 102.124C18.8786 101.835 18.263 101.983 17.9745 102.454L19.6799 103.499ZM18.8272 102.976L17.9745 102.454C15.1408 107.08 11.934 107.811 10.1981 107.357C9.29249 107.12 8.80246 106.597 8.66457 106.13C8.54271 105.717 8.61305 105.052 9.50726 104.284L8.85592 103.525L8.20458 102.766C6.88139 103.902 6.34496 105.335 6.74635 106.696C7.13169 108.001 8.29493 108.926 9.69202 109.292C12.5615 110.042 16.5577 108.595 19.6799 103.499L18.8272 102.976Z" fill="#F3EBE6"/>
<path d="M23.9487 116.317C24.2372 115.846 24.0893 115.231 23.6184 114.942C23.1474 114.654 22.5318 114.801 22.2433 115.272L23.9487 116.317ZM23.096 115.795L22.2433 115.272C19.3534 119.99 16.4696 120.756 15.1494 120.44C14.4946 120.283 14.2048 119.898 14.1481 119.533C14.0884 119.148 14.238 118.451 15.1814 117.642L14.53 116.883L13.8787 116.124C12.6046 117.218 11.9718 118.552 12.1718 119.84C12.3749 121.146 13.387 122.074 14.6836 122.385C17.2662 123.003 20.8827 121.322 23.9487 116.317L23.096 115.795Z" fill="#F3EBE6"/>
<path d="M29.8756 130.648C30.1641 130.177 30.0162 129.561 29.5452 129.273C29.0743 128.984 28.4586 129.132 28.1701 129.603L29.8756 130.648ZM29.0228 130.126L28.1701 129.603C25.2997 134.289 22.2633 135.166 20.7583 134.868C19.9936 134.716 19.6653 134.309 19.591 133.977C19.5171 133.646 19.608 132.991 20.549 132.183L19.8977 131.424L19.2464 130.666C17.97 131.761 17.3484 133.111 17.6391 134.413C17.9294 135.712 19.0428 136.566 20.3692 136.829C23.0465 137.36 26.7902 135.685 29.8756 130.648L29.0228 130.126Z" fill="#F3EBE6"/>
<path d="M35.5251 145.619C35.8136 145.148 35.6657 144.533 35.1948 144.244C34.7238 143.956 34.1082 144.104 33.8197 144.575L35.5251 145.619ZM34.6724 145.097L33.8197 144.575C30.9334 149.286 28.0231 150.072 26.6711 149.758C25.9973 149.602 25.7018 149.213 25.642 148.854C25.5795 148.479 25.7191 147.789 26.662 146.98L26.0107 146.221L25.3594 145.462C24.0849 146.556 23.4541 147.893 23.6692 149.183C23.8871 150.49 24.9175 151.405 26.219 151.707C28.8176 152.31 32.4555 150.63 35.5251 145.619L34.6724 145.097Z" fill="#F3EBE6"/>
<path d="M40.9691 160.151C41.2728 159.69 41.1449 159.07 40.6835 158.766C40.2222 158.463 39.6021 158.591 39.2985 159.052L40.9691 160.151ZM40.1338 159.602L39.2985 159.052C37.4774 161.819 35.8199 163.423 34.4747 164.257C33.121 165.096 32.1858 165.102 31.6835 164.916C31.2139 164.741 30.9145 164.327 30.9022 163.734C30.8896 163.127 31.1957 162.281 32.1229 161.485L31.4715 160.726L30.8202 159.967C29.53 161.075 28.8753 162.461 28.9026 163.775C28.9301 165.104 29.6712 166.301 30.9866 166.79C32.2694 167.267 33.8639 166.989 35.5285 165.957C37.2015 164.92 39.0508 163.066 40.9691 160.151L40.1338 159.602Z" fill="#F3EBE6"/>
<path d="M45.7974 174.339C46.0859 173.868 45.938 173.252 45.467 172.964C44.9961 172.675 44.3804 172.823 44.0919 173.294L45.7974 174.339ZM44.9447 173.817L44.0919 173.294C41.198 178.018 38.4024 178.579 37.1742 178.179C36.5543 177.977 36.2271 177.541 36.1685 177.07C36.1092 176.595 36.302 175.85 37.2286 175.055L36.5772 174.296L35.9259 173.537C34.635 174.645 34.0206 176.007 34.1838 177.318C34.3477 178.633 35.2729 179.663 36.5546 180.08C39.1299 180.919 42.7355 179.337 45.7974 174.339L44.9447 173.817Z" fill="#F3EBE6"/>
<path d="M51.7257 188.67C52.0142 188.2 51.8663 187.584 51.3953 187.295C50.9244 187.007 50.3088 187.155 50.0203 187.626L51.7257 188.67ZM50.873 188.148L50.0203 187.626C48.5939 189.954 47.0914 191.441 45.7629 192.31C44.4178 193.19 43.3097 193.402 42.636 193.313C42.3045 193.269 42.1168 193.16 42.0223 193.069C41.9397 192.99 41.8832 192.885 41.8791 192.713C41.8696 192.313 42.171 191.456 43.5038 190.326L42.8573 189.563L42.2108 188.8C40.7076 190.074 39.8486 191.457 39.8797 192.761C39.8959 193.441 40.1599 194.055 40.6389 194.514C41.106 194.961 41.7207 195.209 42.3735 195.295C43.6681 195.467 45.2552 195.032 46.8577 193.984C48.4767 192.925 50.1741 191.203 51.7257 188.67L50.873 188.148Z" fill="#F3EBE6"/>
<path d="M57.307 202.879C57.4316 202.341 57.0964 201.804 56.5583 201.679C56.0203 201.555 55.4831 201.89 55.3586 202.428L57.307 202.879ZM56.3328 202.654L55.3586 202.428C54.6761 205.376 53.6153 206.961 52.6181 207.73C51.6533 208.474 50.6653 208.524 49.8511 208.225C48.9971 207.912 48.3391 207.218 48.102 206.481C47.8852 205.807 47.995 205.044 48.7925 204.36L48.1412 203.601L47.4899 202.842C46.07 204.061 45.7394 205.668 46.1981 207.094C46.6365 208.456 47.7701 209.592 49.1626 210.103C50.595 210.628 52.3086 210.495 53.8395 209.314C55.3379 208.159 56.5668 206.077 57.307 202.879L56.3328 202.654Z" fill="#F3EBE6"/>
<path d="M62.2424 217.733C62.4613 217.226 62.2278 216.637 61.7207 216.419C61.2137 216.2 60.6252 216.433 60.4062 216.94L62.2424 217.733ZM61.3243 217.337L60.4062 216.94C58.4978 221.36 56.1604 221.974 55.0624 221.722C54.4691 221.585 54.1006 221.211 53.9752 220.819C53.8593 220.458 53.896 219.901 54.4999 219.265L53.7744 218.576L53.0489 217.888C52.0267 218.966 51.697 220.263 52.0705 221.429C52.4344 222.566 53.411 223.394 54.6146 223.671C57.1104 224.244 60.174 222.524 62.2424 217.733L61.3243 217.337Z" fill="#F3EBE6"/>
<path d="M21.7288 100.815C21.0241 98.9437 19.5597 97.8922 17.22 98.7731C14.8804 99.6541 14.1813 102.054 14.886 103.926C15.5908 105.798 17.0552 106.849 19.3948 105.968C21.7345 105.087 22.4335 102.687 21.7288 100.815Z" stroke="#F3EBE6" stroke-width="2"/>
<path d="M26.1947 114.078C25.4429 112.082 24.0057 110.913 21.822 111.735C19.6383 112.557 19.0798 115.047 19.8316 117.044C20.5833 119.04 22.0205 120.209 24.2042 119.387C26.3879 118.564 26.9464 116.075 26.1947 114.078Z" stroke="#F3EBE6" stroke-width="2"/>
<path d="M31.9476 127.956C31.2428 126.084 29.7784 125.032 27.4388 125.913C25.0991 126.794 24.4 129.194 25.1048 131.066C25.8095 132.938 27.2739 133.989 29.6136 133.108C31.9532 132.228 32.6523 129.827 31.9476 127.956Z" stroke="#F3EBE6" stroke-width="2"/>
<path d="M37.1182 143.09C36.3665 141.093 35.054 139.878 33.1823 140.582C31.3105 141.287 30.9392 143.706 31.6909 145.703C32.4426 147.699 33.7551 148.915 35.6268 148.21C37.4986 147.505 37.8699 145.086 37.1182 143.09Z" stroke="#F3EBE6" stroke-width="2"/>
<path d="M43.2288 157.903C42.5241 156.031 41.0597 154.98 38.72 155.861C36.3804 156.741 35.6813 159.142 36.386 161.013C37.0908 162.885 38.5552 163.937 40.8948 163.056C43.2345 162.175 43.9335 159.775 43.2288 157.903Z" stroke="#F3EBE6" stroke-width="2"/>
<path d="M48.0384 172.101C47.2867 170.105 45.8494 168.936 43.6658 169.758C41.4821 170.58 40.9236 173.07 41.6753 175.067C42.427 177.063 43.8643 178.232 46.048 177.41C48.2316 176.587 48.7901 174.098 48.0384 172.101Z" stroke="#F3EBE6" stroke-width="2"/>
<path d="M53.6729 187.075C52.9211 185.078 51.6087 183.863 49.7369 184.568C47.8652 185.272 47.4939 187.692 48.2456 189.688C48.9973 191.685 50.3098 192.9 52.1815 192.196C54.0533 191.491 54.4246 189.072 53.6729 187.075Z" stroke="#F3EBE6" stroke-width="2"/>
<path d="M59.7477 201.083C58.996 199.086 57.434 197.965 54.9383 198.904C52.4427 199.844 51.697 202.404 52.4487 204.401C53.2005 206.397 54.7625 207.519 57.2581 206.579C59.7538 205.639 60.4994 203.079 59.7477 201.083Z" stroke="#F3EBE6" stroke-width="2"/>
<path d="M65.0368 215.121C64.2851 213.124 62.723 212.003 60.2274 212.942C57.7318 213.882 56.9861 216.442 57.7378 218.439C58.4895 220.435 60.0516 221.557 62.5472 220.617C65.0428 219.678 65.7885 217.117 65.0368 215.121Z" stroke="#F3EBE6" stroke-width="2"/>
<path d="M55.3372 150.776C73.9184 146.062 117.292 132.55 149.799 114.183C150.234 113.937 150.415 113.407 150.228 112.943L127.125 55.7199C126.929 55.2327 126.408 54.9744 125.908 55.1375C101.557 63.0909 50.4589 81.2193 31.9314 93.0547C31.53 93.3111 31.3915 93.8059 31.5701 94.2474L54.1878 150.177C54.3747 150.639 54.854 150.898 55.3372 150.776Z" stroke="#F3EBE6" stroke-width="2"/>
<path d="M197.177 186.491L137.875 38.9221L135.942 38.0468L196.064 186.375L194.718 186.348M194.718 186.348L193.372 186.32L134.83 37.9313L196.709 186.667C163.023 203.624 99.0525 227.176 66.0403 236.934L62.9959 235.943C111.314 220.957 155.276 205.752 194.718 186.348Z" stroke="#F3EBE6" stroke-width="2"/>
<path d="M585.784 136.977C585.276 138.062 584.525 139.169 583.905 140.221C583.219 141.386 582.334 142.475 581.746 143.694C580.7 145.863 579.619 147.999 578.598 150.182C575.77 156.224 573.099 162.344 570.202 168.36C568.578 171.732 566.705 174.981 565.331 178.475C563.587 182.915 561.615 187.267 559.562 191.573C557.645 195.592 555.52 199.492 553.632 203.527C552.502 205.941 551.281 208.31 550.15 210.728" stroke="#F3EBE6" stroke-width="2" stroke-linecap="round"/>
<path d="M436.828 154.814C438.517 155.604 440.307 156.59 441.724 157.805C443.631 159.44 445.695 160.73 447.95 161.838C449.886 162.789 451.482 164.33 453.442 165.247C456.45 166.655 459.405 168.35 462.264 170.044C462.916 170.431 463.635 170.707 464.317 171.037C465.02 171.376 465.595 171.905 466.301 172.245C467.712 172.925 468.991 173.871 470.396 174.588C473.506 176.177 476.593 177.761 479.765 179.245C486.239 182.275 492.646 185.414 499.117 188.442C505.669 191.509 512.373 194.184 518.955 197.167C521.802 198.458 524.648 199.72 527.651 200.607C529.689 201.21 531.793 201.776 533.722 202.679C535.696 203.603 537.734 204.417 539.718 205.345C541.563 206.209 543.366 207.193 545.198 208.05C546.889 208.842 548.581 209.633 550.272 210.425" stroke="#F3EBE6" stroke-width="2" stroke-linecap="round"/>
<path d="M485.016 49.3652L436.007 154.081" stroke="#F3EBE6" stroke-width="2" stroke-linecap="round"/>
<path d="M543.555 22.0352C541.529 23.5033 539.141 24.8978 536.715 25.5982C536.051 25.7899 535.415 26.1457 534.713 26.1982C533.924 26.2572 533.112 26.5142 532.366 26.7601C531.716 26.9743 531.021 27.0429 530.375 27.2768C529.598 27.5586 528.755 27.9159 527.94 28.0707C526.592 28.327 525.306 29.1449 523.922 29.2988C522.659 29.4394 521.442 30.2947 520.179 30.4644C519.475 30.5591 518.811 30.8937 518.118 31.0439C517.354 31.2094 516.285 31.4944 515.595 31.8512C515.055 32.1304 514.198 32.3211 513.59 32.4568C512.916 32.6069 512.139 32.8532 511.506 33.1143C510.836 33.3903 510.065 33.6458 509.356 33.8234C508.304 34.0869 507.36 34.6479 506.298 34.9131C504.872 35.2689 503.583 36.0617 502.159 36.3851C500.769 36.7008 499.466 37.2842 498.12 37.6581C496.738 38.0418 495.341 38.4836 493.976 38.9503C492.76 39.3662 491.471 39.6626 490.285 40.0924C490.124 40.1507 489.882 40.5018 489.723 40.6219C489.446 40.8308 489.231 41.112 488.963 41.3115C488.505 41.6513 488.297 42.0569 487.955 42.5003C487.23 43.4421 486.444 44.4753 485.939 45.5534C485.524 46.4403 485.296 47.3668 484.926 48.2428C484.653 48.8893 484.378 49.7438 484.396 50.4269" stroke="#F3EBE6" stroke-width="2" stroke-linecap="round"/>
<path d="M544.313 22.7612C543.795 24.2356 544.003 25.95 543.365 27.4143C542.92 28.4363 542.807 29.7396 542.54 30.813C542.403 31.3601 542.36 31.9273 542.201 32.4717C542.03 33.0547 541.771 33.6137 541.659 34.2132C541.408 35.553 540.85 36.8925 540.495 38.2186C540.354 38.7453 540.04 39.1984 539.908 39.7343C539.75 40.3824 539.544 41.0683 539.272 41.6775C538.803 42.7306 538.529 44.0326 538.233 45.1537C537.933 46.2928 537.41 47.4952 536.91 48.5654C536.317 49.8314 535.833 51.1278 535.24 52.3957C534.648 53.6609 534.094 55.1498 533.247 56.2593C532.521 57.2112 532.02 58.487 531.514 59.568C531.128 60.3938 530.741 61.2195 530.355 62.0453C530.047 62.703 529.906 63.3324 529.68 63.9978C529.597 64.2429 529.364 64.5132 529.382 64.7806C529.443 65.6588 529.293 64.8632 529.098 64.5859C528.775 64.1288 528.653 63.5678 528.22 63.1913C527.895 62.9088 527.639 62.5434 527.305 62.2711C526.989 62.0143 526.632 61.6112 526.286 61.4254C524.93 60.6965 523.944 59.2845 522.597 58.5922C521.968 58.2688 521.479 57.7186 520.822 57.3925C519.826 56.8985 518.933 56.1313 518.021 55.4941C514.267 52.8706 510.712 50.0783 506.552 48.1315C503.257 46.5892 500.141 44.6966 496.714 43.5338C495.686 43.1851 494.683 42.8225 493.696 42.3607C493.416 42.2297 492.154 41.4146 491.857 41.5613C491.732 41.6226 490.727 41.2172 490.575 41.1461" stroke="#F3EBE6" stroke-width="2" stroke-linecap="round"/>
<path d="M543.999 22.1217C545.164 22.6669 546.395 22.9497 547.579 23.4213C548.967 23.974 550.413 24.5806 551.837 25.0245C554.905 25.9811 557.954 27.0372 561.032 27.9752C562.632 28.4629 564.116 29.3232 565.702 29.8806C567.371 30.4675 569.034 31.0303 570.715 31.5777C574.298 32.7449 577.982 33.79 581.459 35.2329C585.607 36.954 589.655 38.9165 593.807 40.6293C596.844 41.8821 599.806 43.3209 602.785 44.7151C604.051 45.3073 605.251 45.9922 606.516 46.5839C607.678 47.1277 608.689 47.9477 609.838 48.5076C612.139 49.6285 614.175 51.2751 616.493 52.3601C617.265 52.7214 618.152 53.0166 618.821 53.5455C619.266 53.8965 619.829 54.4135 620.334 54.6496C620.97 54.9474 621.96 55.5913 622.415 56.1155C622.759 56.5124 623.432 56.6465 623.559 57.2042C623.959 58.9678 623.251 60.7534 622.757 62.4792C621.993 65.1455 620.587 67.6412 619.412 70.151C616.992 75.323 614.767 80.5657 612.678 85.8696C612.222 87.0254 612.031 88.287 611.507 89.4074C611.196 90.073 610.865 90.8637 610.627 91.5646C610.242 92.7007 609.873 93.949 609.372 95.0215" stroke="#F3EBE6" stroke-width="2" stroke-linecap="round"/>
<path d="M636.619 86.7437C635.285 86.762 633.968 86.7091 632.646 86.8245C631.512 86.9235 630.408 87.562 629.318 87.8769C627.947 88.2727 626.676 88.9595 625.247 89.2309C623.827 89.5008 622.501 90.2699 621.093 90.5456C620.056 90.7487 618.919 91.1779 617.907 91.5141C617.339 91.7026 616.721 91.9656 616.127 92.0336C615.544 92.1003 615.003 92.4119 614.444 92.4759C613.955 92.5318 613.529 92.788 613.041 92.8306C612.639 92.8656 611.794 93.222 611.434 93.4038C610.669 93.7896 609.729 93.9923 609.169 94.6805" stroke="#F3EBE6" stroke-width="2" stroke-linecap="round"/>
<path d="M636.917 86.8841C637.858 87.3246 638.622 88.1145 639.399 88.7907C639.518 88.8941 639.64 89.2118 639.788 89.362C640.021 89.5982 640.148 89.9496 640.344 90.2168C640.722 90.7306 641.13 91.4789 641.248 92.0814C641.36 92.6514 641.808 93.1335 641.85 93.7434C641.889 94.2934 642.202 94.8908 642.318 95.4448C642.517 96.3981 642.802 97.345 643.142 98.2831C643.567 99.4564 643.778 100.754 644.054 101.969C644.298 103.045 644.383 104.485 644.29 105.611C644.243 106.175 644.286 106.746 644.3 107.311C644.31 107.701 644.408 108.244 644.326 108.614C644.216 109.106 644.31 109.58 644.267 110.069C644.241 110.357 644.301 110.697 644.329 110.986C644.357 111.27 644.218 111.538 644.212 111.82C644.195 112.718 643.599 113.918 642.966 114.557C642.075 115.456 640.921 115.997 639.974 116.819C639.592 117.15 639.035 117.3 638.637 117.573C638.302 117.803 637.803 118.126 637.427 118.23C636.778 118.41 636.206 118.833 635.604 119.105C635.211 119.283 634.499 119.673 634.092 119.723C632.814 119.878 631.462 120.472 630.248 120.841C629.387 121.103 628.527 121.423 627.68 121.73C626.862 122.026 625.998 122.218 625.214 122.605C624.449 122.982 623.562 123.113 622.766 123.427C622.081 123.698 621.376 123.94 620.687 124.19C619.094 124.767 617.485 125.341 615.879 125.923C615.213 126.164 614.546 126.406 613.88 126.647C613.203 126.892 612.486 127.379 611.77 127.477C611.252 127.548 610.384 128.008 609.924 128.267C609.058 128.754 607.956 128.964 607.023 129.341C603.821 130.638 600.556 131.653 597.269 132.708C595.514 133.272 593.759 133.893 592.042 134.477C590.958 134.846 590.006 135.53 588.881 135.786C588.604 135.849 588.304 135.963 588.053 136.109C587.695 136.317 587.283 136.317 586.929 136.539C586.28 136.948 585.386 137.079 584.669 137.354C583.355 137.857 582.019 138.131 580.73 138.749C579.501 139.338 578.142 139.812 576.85 140.28C574.903 140.986 573.007 141.887 571.069 142.59C569.539 143.144 567.935 143.678 566.389 144.239C564.656 144.867 562.674 145.459 561.132 146.479C560.502 146.896 559.706 147.144 559.015 147.456C558.139 147.851 557.318 148.382 556.418 148.727C554.825 149.339 553.196 149.9 551.646 150.587C550.063 151.289 548.368 151.6 546.897 152.457C546.449 152.718 545.346 152.945 545.078 153.293C544.819 153.629 544.104 153.637 543.781 153.977" stroke="#F3EBE6" stroke-width="2" stroke-linecap="round"/>
<path d="M611.104 94.4791C610.913 94.7923 609.913 95.2344 609.539 95.2976C608.887 95.408 608.296 95.7613 607.672 95.9744C607.047 96.1874 606.326 96.4001 605.78 96.7903C605.172 97.2249 604.384 97.3589 603.739 97.7345C602.149 98.6612 600.398 99.2525 598.834 100.201C597.647 100.921 596.273 101.295 595.03 101.891C594.632 102.083 594.184 102.202 593.769 102.353C593.211 102.555 592.561 102.889 591.98 102.964C590.811 103.116 589.675 103.662 588.502 103.885C587.157 104.14 585.883 104.762 584.541 104.99C583.139 105.227 581.804 105.73 580.47 106.214C578.176 107.045 575.891 107.826 573.602 108.656C571.31 109.487 569.107 110.572 566.796 111.374C564.163 112.287 561.562 113.354 558.932 114.307C558.378 114.508 557.824 114.709 557.27 114.91C556.749 115.098 556.261 115.466 555.721 115.592C555.116 115.732 554.648 116.111 554.084 116.315C551.74 117.165 549.472 118.184 547.23 119.284C546.378 119.701 545.489 120.11 544.61 120.428C543.701 120.758 542.891 121.377 541.966 121.712C541.135 122.013 540.147 122.539 539.443 123.045C538.728 123.559 537.847 123.853 537.083 124.278C535.434 125.195 533.729 126.008 532.081 126.951C530.985 127.578 529.682 128.267 528.452 128.662C527.728 128.894 527.16 129.484 526.462 129.76C526.029 129.931 525.604 130.157 525.261 130.428C524.934 130.687 524.449 130.897 524.18 131.206C524.041 131.366 523.935 131.569 523.789 131.734C523.576 131.974 523.199 132.294 523.058 132.567C522.94 132.795 522.74 132.859 522.592 133.052C522.363 133.348 522.211 133.715 521.915 133.958C521.591 134.224 521.286 134.622 521.063 134.974C520.873 135.277 520.53 135.467 520.344 135.751C519.94 136.37 519.387 137.018 518.812 137.494C518.161 138.031 517.689 138.812 517.112 139.431C516.247 140.361 515.391 141.33 514.605 142.234C513.256 143.785 512.299 145.578 511.323 147.393C511.037 147.925 509.952 149.161 510.394 149.787C510.74 150.279 511.11 150.766 511.451 151.266C511.758 151.717 512.348 151.905 512.707 152.318C512.975 152.627 513.792 152.977 514.163 153.15C514.602 153.356 515.36 153.763 515.834 153.782C516.383 153.804 516.894 154.074 517.426 154.192C517.7 154.253 517.895 154.393 518.187 154.419C518.521 154.448 518.9 154.456 519.223 154.541C520.58 154.899 522.2 154.774 523.597 154.86C524.351 154.906 525.203 155.089 525.941 155.034C526.867 154.965 527.805 155.158 528.72 155.037C529.675 154.911 530.864 154.966 531.814 155.112C532.433 155.206 533.062 155.101 533.692 155.157C534.943 155.269 536.302 155.357 537.611 155.338C538.624 155.323 539.552 155.453 540.554 155.226C541.567 154.996 542.74 154.611 543.534 153.983" stroke="#F3EBE6" stroke-width="2" stroke-linecap="round"/>
<path d="M516.272 141.717C516.571 141.857 516.926 141.992 517.163 142.226C517.515 142.574 517.857 142.961 518.233 143.284C518.738 143.717 519.112 144.358 519.498 144.891C519.966 145.539 520.43 146.158 520.773 146.884C521.15 147.685 521.475 148.611 521.725 149.46C521.947 150.211 522.289 150.999 522.422 151.768C522.533 152.408 522.707 153.068 522.687 153.719C522.678 154.037 522.738 154.35 522.6 154.644" stroke="#F3EBE6" stroke-width="2" stroke-linecap="round"/>
<path d="M520.742 136.892C521.391 137.713 522.38 138.224 523.089 139.006C523.543 139.507 523.933 140.066 524.283 140.644C524.63 141.216 525.052 141.767 525.353 142.365C525.857 143.363 526.358 144.267 526.607 145.374C526.823 146.335 527.132 147.232 527.248 148.217C527.33 148.911 527.449 149.623 527.434 150.321C527.427 150.643 527.461 151.019 527.501 151.34C527.524 151.524 527.442 151.694 527.466 151.881C527.516 152.263 527.406 152.645 527.399 153.02C527.394 153.263 527.376 153.777 527.281 153.98" stroke="#F3EBE6" stroke-width="2" stroke-linecap="round"/>
<path d="M528.023 129.89C528.357 130.046 528.63 130.402 528.861 130.677C529.236 131.124 529.588 131.547 529.843 132.075C530.084 132.573 530.299 133.139 530.442 133.674C530.571 134.157 530.595 134.571 530.649 135.054C530.691 135.434 530.518 135.914 530.428 136.28C530.32 136.72 530.099 137.119 529.907 137.528C529.602 138.18 529.364 138.9 529.241 139.6C529.147 140.137 529.093 140.674 529.636 140.928C530.262 141.221 530.94 141.264 531.623 141.188C532.263 141.116 533.171 141.122 533.774 141.405C534.141 141.576 534.341 142.006 534.471 142.365C534.641 142.835 534.361 143.61 534.168 144.022C533.825 144.754 533.483 145.486 533.14 146.218C532.901 146.73 533.288 147.111 533.585 147.505C533.89 147.909 534.403 148.173 534.856 148.385C535.545 148.708 536.376 148.726 537.105 148.944C537.522 149.069 537.866 149.333 538.243 149.526C538.615 149.716 538.88 150.071 539.229 150.305C539.927 150.773 540.52 151.552 540.898 152.292C541.026 152.543 541.328 153.003 541.322 153.284C541.32 153.398 541.326 153.786 541.375 153.848" stroke="#F3EBE6" stroke-width="2" stroke-linecap="round"/>
<path d="M530.039 129.374C529.98 129.55 530.365 130.045 530.488 130.187C530.806 130.556 531.029 131.006 531.364 131.358C531.625 131.633 531.713 132.054 531.943 132.359C532.159 132.646 532.315 133.029 532.438 133.367C532.537 133.64 532.652 133.893 532.711 134.176C532.75 134.358 532.857 134.676 532.802 134.856C532.615 135.468 532.542 136.021 532.139 136.545C531.795 136.991 531.432 137.52 531.19 138.037C531.088 138.254 530.967 138.711 530.968 138.949C530.968 138.991 530.968 139.267 530.984 139.26C531.106 139.207 531.239 138.752 531.277 138.635C531.508 137.923 531.702 137.265 531.805 136.519C531.879 135.983 531.791 135.401 531.788 134.861C531.785 134.485 531.69 134.097 531.745 133.723C531.83 133.147 531.796 132.465 531.79 131.879C531.786 131.431 531.827 130.973 531.85 130.524C531.864 130.232 531.815 129.976 531.808 129.694C531.804 129.554 531.749 129.262 531.627 129.168C531.459 129.038 531.304 128.694 531.404 129.088C531.484 129.407 531.735 129.884 531.982 130.107C532.359 130.447 532.589 130.996 532.901 131.397C533.258 131.856 533.629 132.432 533.811 132.98C533.907 133.268 533.986 133.528 534.051 133.822C534.108 134.079 534.163 134.573 534.087 134.823C534.059 134.914 534.058 135.131 534.102 134.918C534.167 134.611 534.089 134.194 534.012 133.899C533.813 133.144 533.537 132.276 533.122 131.61C532.786 131.07 532.505 130.536 532.176 129.993C532.078 129.832 531.966 129.569 531.836 129.439C531.685 129.288 531.523 128.989 531.339 128.903" stroke="#F3EBE6" stroke-width="2" stroke-linecap="round"/>
<path d="M533.625 134.606C533.948 135.057 533.84 135.776 533.827 136.284C533.813 136.822 533.702 137.337 533.358 137.782C533.102 138.115 532.897 138.467 532.717 138.85C532.665 138.963 532.441 139.284 532.52 139.407C532.603 139.534 532.665 139.678 532.748 139.809C532.917 140.075 533.08 140.317 533.365 140.451C533.681 140.599 533.997 140.747 534.314 140.895C534.4 140.935 534.786 141.152 534.617 140.896C534.468 140.671 534.341 140.269 534.305 140.002C534.229 139.437 533.79 139.001 533.697 138.445C533.624 138.005 533.417 137.597 533.355 137.149C533.292 136.7 533.261 136.228 533.269 135.772C533.274 135.475 533.277 134.942 533.405 134.669C533.432 134.611 533.396 134.797 533.411 134.858C533.454 135.025 533.417 135.158 533.478 135.327C533.718 135.989 533.951 136.639 534.246 137.28C534.471 137.771 534.735 138.367 535.144 138.737C535.505 139.065 535.931 139.538 536.218 139.945C536.362 140.149 536.722 140.3 536.823 140.514C536.874 140.622 537.044 140.891 537.133 140.945C537.407 141.112 537.341 141.671 537.467 141.926C537.541 142.076 537.09 142.799 537.018 142.954C536.693 143.647 536.227 144.682 535.403 144.882C534.785 145.031 535.613 142.97 535.715 142.753C535.766 142.644 536.185 141.777 535.952 142.247C535.65 142.856 535.201 143.401 534.879 144.005C534.562 144.598 534.155 145.376 534.219 146.055C534.251 146.393 534.609 146.02 534.692 145.889C534.884 145.584 535.122 145.312 535.321 145.012C535.588 144.609 535.765 144.138 535.97 143.701C536.051 143.527 536.492 142.88 536.44 142.666C536.385 142.439 535.679 143.475 535.634 143.544C535.102 144.361 534.94 145.353 535.066 146.311C535.148 146.936 535.282 147.334 535.654 147.834C536.113 148.452 536.994 146.703 537.076 146.461C537.301 145.795 537.201 145.119 537.085 144.445C537.034 144.149 536.957 143.829 536.988 143.529C537.109 142.375 536.473 146.475 537.523 146.967C538.478 147.414 539.422 147.837 540.29 148.438C540.685 148.712 541.036 149.046 541.424 149.332C541.793 149.604 542.178 149.864 542.505 150.187C542.914 150.592 543.526 150.924 543.798 151.455C543.859 151.574 543.959 151.636 544.014 151.768C544.081 151.926 544.141 152.064 544.198 152.221C544.218 152.276 544.425 152.555 544.383 152.367C544.32 152.088 543.955 151.805 543.773 151.606C543.057 150.823 542.534 149.895 541.924 149.03C541.354 148.221 540.973 147.224 540.3 146.489C539.864 146.014 539.43 145.638 538.935 145.23C538.658 145.001 538.053 144.589 537.681 144.724C537.619 144.746 536.935 145.039 537.209 145.092C537.765 145.201 538.393 145.559 538.854 145.879C539.746 146.5 540.535 147.405 541.2 148.258C541.555 148.713 541.773 149.259 542.053 149.757C542.289 150.175 542.535 150.602 542.699 151.054C542.825 151.403 542.939 151.866 542.657 152.191C542.553 152.309 541.938 151.785 541.878 151.721C541.454 151.26 541.098 150.807 540.804 150.248C540.712 150.072 539.549 148.098 539.379 148.245C539.2 148.4 539.472 148.974 539.558 149.122C539.874 149.667 540.265 150.154 540.651 150.652C541.134 151.278 541.632 151.93 541.899 152.665C541.988 152.91 542.17 153.458 542.424 153.577C542.707 153.71 543.215 153.574 543.48 153.422C543.88 153.193 544.201 152.967 544.403 152.535C544.554 152.213 544.237 151.838 544.133 151.552C543.904 150.919 543.305 150.274 542.881 149.76C542.671 149.506 542.397 149.214 542.148 149.005C541.851 148.755 541.658 148.427 541.364 148.179C541.081 147.94 540.87 147.579 540.674 147.271C540.507 147.008 540.202 146.799 540.029 146.525C539.57 145.795 539.125 145.06 538.512 144.447C537.89 143.823 537.053 143.462 536.405 142.875C536.212 142.7 535.997 142.626 535.814 142.436C535.665 142.281 535.596 142.074 535.524 141.874C535.391 141.507 535.674 141.052 535.646 140.662C535.561 139.438 534.783 138.893 533.749 138.409C533.484 138.285 532.929 138.211 532.629 138.234C532.253 138.262 531.941 138.362 531.598 138.53C531.271 138.691 530.632 138.965 530.468 139.317C530.239 139.805 530.812 139.88 531.163 139.836C531.66 139.774 532.32 139.518 532.806 139.745" stroke="#F3EBE6" stroke-width="2" stroke-linecap="round"/>
<path d="M534.142 132.689C534.416 133.118 534.753 133.76 534.835 134.268C534.886 134.588 534.946 134.916 535.039 135.217C535.211 135.774 534.993 136.415 535.196 136.976C535.391 137.514 535.808 137.868 536.21 138.276C537 139.077 537.931 139.96 538.435 140.982C538.59 141.295 538.683 141.643 538.772 141.979C538.856 142.294 539.067 142.596 539.185 142.905C539.299 143.204 539.473 143.488 539.619 143.771C539.756 144.038 539.826 144.334 539.963 144.603C540.048 144.768 540.24 145.278 540.228 145.093C540.195 144.628 539.882 144.089 539.682 143.681C539.013 142.314 538.472 140.869 537.746 139.531C536.917 138.003 535.865 136.639 534.952 135.162C534.78 134.883 534.591 134.587 534.39 134.328C534.296 134.206 534.213 134.001 534.071 133.925C533.796 133.777 533.456 133.317 533.259 133.069C533.104 132.873 532.951 132.657 532.788 132.471C532.628 132.289 532.907 132.934 532.948 133.018C533.487 134.137 534.085 135.234 534.661 136.334C535.393 137.731 536.25 139.06 536.978 140.455C537.518 141.488 538.206 142.442 538.741 143.477C539.423 144.794 540.133 146.115 540.875 147.395C541.219 147.99 541.607 148.573 542.051 149.085C542.144 149.192 542.219 149.312 542.306 149.423C542.548 149.729 542.21 149.218 542.154 149.13C541.864 148.67 541.574 148.208 541.289 147.745C541.039 147.338 540.695 146.983 540.467 146.57C540.081 145.87 539.593 145.221 539.205 144.519C538.822 143.825 538.441 143.141 538.081 142.431C537.091 140.481 535.911 138.627 535.083 136.592C534.715 135.685 534.373 134.772 534.004 133.865C533.897 133.601 533.698 133.358 533.603 133.095C533.548 132.945 533.515 132.77 533.395 132.656" stroke="#F3EBE6" stroke-width="2" stroke-linecap="round"/>
<path d="M545.553 152.248C545.326 152.113 545.192 151.793 545.016 151.602C544.766 151.333 544.596 151.003 544.367 150.713C544.215 150.521 544.075 150.338 543.935 150.144C543.775 149.923 543.522 149.617 543.442 149.36C543.332 149.01 542.991 148.73 542.855 148.383C542.694 147.976 542.434 147.587 542.231 147.199C541.907 146.579 541.593 145.956 541.22 145.365C540.892 144.843 540.561 144.285 540.305 143.727C540.157 143.406 539.995 143.077 539.817 142.772C539.675 142.529 539.451 142.196 539.37 141.928C539.23 141.468 538.781 141.127 538.654 140.669C538.585 140.422 538.374 140.096 538.244 139.864C538.013 139.448 537.858 138.999 537.635 138.574C537.342 138.014 537.072 137.385 536.845 136.811C536.679 136.392 536.444 136.011 536.29 135.585C535.965 134.687 535.308 133.933 534.939 133.048C534.716 132.516 534.514 131.957 534.223 131.458C533.953 130.995 533.648 130.451 533.452 129.955C533.338 129.666 533.032 129.344 532.844 129.085C532.665 128.837 532.424 128.395 532.148 128.266" stroke="#F3EBE6" stroke-width="2" stroke-linecap="round"/>
<path d="M612.473 93.7994C609.879 94.7394 607.355 95.6794 604.695 96.4474C602.229 97.1595 599.792 98.1302 597.609 99.504C596.658 100.103 595.563 100.462 594.636 101.086C594.15 101.414 593.563 101.559 593.068 101.854C592.39 102.258 591.597 102.548 590.852 102.818C589.897 103.164 588.922 103.496 588 103.929C587.491 104.167 586.942 104.479 586.4 104.624C586.034 104.722 585.623 104.829 585.297 105.024C584.755 105.346 584.042 105.492 583.448 105.707C583.079 105.841 582.505 106.234 582.117 106.189" stroke="#F3EBE6" stroke-width="2" stroke-linecap="round"/>
<path d="M635.516 92.8581C634.983 93.0874 634.404 93.2548 633.887 93.5028C633.554 93.663 633.183 93.8126 632.839 93.9374C632.479 94.0678 632.003 94.2293 631.625 94.3132C630.885 94.4769 630.141 94.806 629.427 95.0645C628.711 95.324 627.952 95.477 627.245 95.7331C626.93 95.8472 626.561 95.8961 626.234 95.9869C625.916 96.0753 625.503 96.2156 625.179 96.2438C624.807 96.2763 624.405 96.4213 624.055 96.5484C623.692 96.6799 623.253 96.7065 622.923 96.8876C622.06 97.3616 621.004 97.5121 620.106 97.9246C619.116 98.3795 618.085 98.7419 617.092 99.1906C615.082 100.099 612.955 100.738 610.863 101.496C609.84 101.867 608.768 102.104 607.739 102.461C606.791 102.789 605.877 103.168 604.936 103.509C600.379 105.16 595.977 107.186 591.413 108.84C589.46 109.548 587.477 110.298 585.606 111.221C584.618 111.709 583.564 112.206 582.524 112.583C581.268 113.038 580.096 113.784 578.886 114.364C576.769 115.38 574.659 116.448 572.58 117.53C572.156 117.751 571.731 117.955 571.307 118.172C570.822 118.42 570.239 118.566 569.774 118.856C569.254 119.179 568.637 119.391 568.083 119.655C567.479 119.943 566.853 120.258 566.234 120.509C565.062 120.983 563.949 121.6 562.778 122.054C561.341 122.611 560.024 123.457 558.581 123.98C557.807 124.26 557.047 124.625 556.314 125.001C555.391 125.475 554.368 125.735 553.42 126.152C551.666 126.924 549.833 127.613 548.031 128.266C545.421 129.212 542.953 130.569 540.351 131.512C539.383 131.863 538.489 132.449 537.533 132.823C536.931 133.059 536.354 133.317 535.843 133.722C535.704 133.832 535.246 133.952 535.407 134.027C535.56 134.099 535.815 133.845 535.905 133.76" stroke="#F3EBE6" stroke-width="2" stroke-linecap="round"/>
<path d="M637.718 99.7523C636.84 100.16 635.894 100.596 634.976 100.891C634.564 101.023 634.196 101.239 633.799 101.407C633.402 101.575 632.966 101.681 632.592 101.899C631.951 102.273 631.116 102.492 630.41 102.748C629.397 103.115 628.419 103.575 627.398 103.92C626.457 104.237 625.46 104.471 624.558 104.894C624.154 105.084 623.676 105.188 623.253 105.341C622.961 105.447 622.665 105.62 622.363 105.69C621.985 105.777 621.578 105.908 621.217 106.05C620.719 106.247 620.181 106.354 619.701 106.568C619.27 106.76 618.804 106.758 618.381 106.937C617.85 107.161 617.296 107.284 616.762 107.491C615.95 107.806 615.025 107.867 614.26 108.298C613.622 108.657 612.742 108.919 612.048 109.17C611.107 109.511 610.206 109.994 609.295 110.412C608.326 110.858 607.285 111.235 606.354 111.755C605.259 112.366 604.072 112.851 602.938 113.385C601.757 113.941 600.537 114.544 599.311 115.002C597.312 115.748 595.436 116.821 593.445 117.591C591.881 118.195 590.278 118.842 588.764 119.563C588.142 119.86 587.448 120.021 586.809 120.282C586.093 120.574 585.358 120.869 584.631 121.132C583.656 121.485 582.673 121.79 581.699 122.143C580.248 122.669 578.898 123.383 577.473 123.9C575.693 124.545 573.997 125.531 572.171 126.049C571.203 126.324 570.275 126.804 569.33 127.146C568.034 127.616 566.668 128.159 565.428 128.757C564.118 129.388 562.708 129.805 561.371 130.384C560.138 130.919 558.884 131.391 557.651 131.938C555.698 132.805 553.637 133.466 551.696 134.353C550.152 135.06 548.636 135.817 547.081 136.489C545.861 137.017 544.614 137.535 543.416 138.107C542.891 138.357 542.338 138.568 541.796 138.765C541.344 138.928 540.903 139.181 540.44 139.301C540.205 139.362 539.267 139.628 539.154 139.87" stroke="#F3EBE6" stroke-width="2" stroke-linecap="round"/>
<path d="M637.706 109.945C635.946 110.257 634.22 110.926 632.447 111.156C631.956 111.22 631.515 111.47 631.034 111.581C630.575 111.687 630.145 111.816 629.702 111.977C628.783 112.31 627.876 112.802 626.938 113.062C626.001 113.323 625.077 113.774 624.177 114.15C623.286 114.521 622.37 114.856 621.509 115.28C619.683 116.182 617.656 116.767 615.727 117.418C614.38 117.872 613.003 118.26 611.664 118.745C610.966 118.998 610.24 119.155 609.527 119.359C608.849 119.553 608.213 119.875 607.52 120.016C606.896 120.143 606.308 120.448 605.71 120.665C605.163 120.863 604.58 121.022 604.019 121.181C602.644 121.572 601.341 122.312 599.98 122.751C598.691 123.167 597.452 123.783 596.196 124.289C594.997 124.773 593.796 125.273 592.629 125.83C589.847 127.156 586.994 128.349 584.167 129.578C581.825 130.596 579.403 131.42 577.054 132.419C576.343 132.722 575.615 132.967 574.891 133.229C574.244 133.464 573.623 133.814 572.941 133.936C572.138 134.079 571.355 134.518 570.569 134.757C569.775 134.998 568.946 135.236 568.164 135.519C566.996 135.942 565.792 136.255 564.617 136.663C563.72 136.974 562.863 137.361 561.954 137.631C561.462 137.777 560.987 138.057 560.527 138.28C560.059 138.507 559.551 138.671 559.098 138.923C558.394 139.315 557.601 139.53 556.889 139.882C555.362 140.635 553.772 141.245 552.212 141.937C551.176 142.396 550.121 142.853 549.069 143.284C548.287 143.605 547.366 143.963 546.647 144.416C544.969 145.472 543.058 145.923 541.289 146.564" stroke="#F3EBE6" stroke-width="2" stroke-linecap="round"/>
<path d="M501.43 64.8979L577.4 100.453" stroke="#F3EBE6" stroke-width="2" stroke-linecap="round"/>
<path d="M490.164 85.8584L549.919 113.824" stroke="#F3EBE6" stroke-width="2" stroke-linecap="round"/>
<path d="M482.161 108.955C484.829 109.964 487.388 111.279 489.97 112.488C493.033 113.921 496.095 115.354 499.157 116.787C503.183 118.671 507.209 120.555 511.234 122.439C513.67 123.579 516.106 124.719 518.541 125.859" stroke="#F3EBE6" stroke-width="2" stroke-linecap="round"/>
<path d="M473.406 131.823L503.834 146.064" stroke="#F3EBE6" stroke-width="2" stroke-linecap="round"/>
<path d="M294.025 271.431C287.042 271.431 284.06 281.159 283.357 286.61C281.986 297.231 279.918 307.441 279.801 318.251C279.659 331.337 280.727 347.89 286.946 359.705C298.72 382.076 319.041 401.957 345.883 402.97C360.226 403.511 373.818 401.838 385.888 393.388C398.033 384.887 407.75 372.217 411.077 357.631C417.09 331.265 407.169 304.379 390.037 284.338C379.609 272.139 362.013 260.763 345.455 260.763C336.728 260.763 328.369 260.762 319.773 261.948C312.987 262.884 306.302 265.818 299.952 268.138C295.395 269.803 291.264 272.757 287.242 275.316C285.275 276.568 281.994 279.491 280.986 281.506" stroke="#F3EBE6" stroke-width="10" stroke-linecap="round"/>
<path d="M320.1 312.324C320.1 315.178 319.508 318.222 319.508 321.214" stroke="#F3EBE6" stroke-width="10" stroke-linecap="round"/>
<path d="M374.03 310.547C374.03 313.824 373.438 316.736 373.438 320.03" stroke="#F3EBE6" stroke-width="10" stroke-linecap="round"/>
<path d="M323.397 291.865C321.552 291.977 319.673 292.519 317.87 292.898C316.738 293.137 315.579 293.326 314.476 293.68C311.708 294.568 309.399 296.034 307.277 297.989C306.051 299.119 304.889 300.227 303.775 301.475C302.98 302.365 302.443 303.382 301.767 304.356C301.232 305.128 300.815 305.923 300.415 306.767C300.262 307.088 300.253 307.395 299.961 307.59" stroke="#F3EBE6" stroke-width="10" stroke-linecap="round"/>
<path d="M372.838 294.738C368.055 294.738 363.559 296.367 360.978 300.551C359.744 302.55 358.172 304.435 358.172 306.834" stroke="#F3EBE6" stroke-width="10" stroke-linecap="round"/>
<path d="M324.898 351.443C326.408 354.462 328.389 357.356 330.361 360.09C332.496 363.052 334.956 365.868 337.841 368.122C344.52 373.341 353.76 375.266 361.938 372.907C368.933 370.889 374.41 366.238 378.932 360.682C379.994 359.377 380.888 358.097 381.447 356.504C381.692 355.804 381.689 355.013 381.793 354.281" stroke="#F3EBE6" stroke-width="10" stroke-linecap="round"/>
<path d="M277.195 331.201C269.874 341.383 262.744 351.246 257.267 362.588C254.532 368.252 251.548 374.008 249.71 380.047C249.621 380.339 249.25 381.448 249.463 381.874C249.844 382.635 250.729 382.139 251.192 381.874" stroke="#F3EBE6" stroke-width="10" stroke-linecap="round"/>
<path d="M276.753 313.421C273.959 319.234 271.588 325.069 269.221 331.053C266.259 338.543 262.99 345.874 259.591 353.179C258.079 356.426 256.339 359.643 255.022 362.983C254.418 364.516 254.906 363.613 255.417 362.76" stroke="#F3EBE6" stroke-width="10" stroke-linecap="round"/>
<path d="M273.413 292.975C271.827 298.48 269.402 303.806 267.511 309.224C265.688 314.447 264.123 319.754 262.301 324.979C259.529 332.924 256.472 340.803 253.954 348.833C253.754 349.472 253.065 350.562 253.855 350.76" stroke="#F3EBE6" stroke-width="10" stroke-linecap="round"/>
<path d="M280.083 298.975C272.896 312.971 264.344 326.451 256.031 339.794C251.808 346.572 247.27 353.181 243.35 360.143C241.792 362.911 239.952 365.7 238.671 368.613C238.455 369.102 238.634 369.226 239.016 368.835C239.789 368.045 240.26 367.063 240.745 366.094" stroke="#F3EBE6" stroke-width="10" stroke-linecap="round"/>
<path d="M273.861 302.753C271.407 307.29 268.433 311.618 265.638 315.94C261.411 322.475 257.218 329.079 252.6 335.35C249.599 339.423 246.467 343.403 243.463 347.475C241.594 350.007 239.783 352.592 237.956 355.154C237.375 355.97 236.72 356.888 236.523 357.871" stroke="#F3EBE6" stroke-width="10" stroke-linecap="round"/>
<path d="M268.747 305.864C264.517 310.468 260.321 315.139 255.783 319.446C250.421 324.535 244.358 328.788 238.497 333.275C235.574 335.512 232.513 337.617 229.409 339.597C228.309 340.298 227.172 340.972 226.026 341.597C225.276 342.006 225.455 341.729 225.631 341.202" stroke="#F3EBE6" stroke-width="10" stroke-linecap="round"/>
<path d="M267.417 303.197C262.896 307.895 259.355 313.526 255.489 318.755C253.047 322.059 250.444 325.304 247.784 328.435C247.432 328.85 240.375 336.655 240.179 336.288C239.683 335.363 240.918 332.797 241.191 331.867" stroke="#F3EBE6" stroke-width="10" stroke-linecap="round"/>
<path d="M277.197 288.751C272.748 293.32 267.357 295.542 261.59 297.777C257.308 299.436 253.036 300.997 248.65 302.382C244.984 303.541 241.271 304.901 237.414 305.197" stroke="#F3EBE6" stroke-width="10" stroke-linecap="round"/>
<path d="M283.859 283.862C280.322 286.353 277.091 289.065 273.71 291.74C270.829 294.019 267.887 296.185 264.869 298.284C258.08 303.005 251.241 308.212 243.805 311.903C238.844 314.365 233.472 315.03 228.297 316.755" stroke="#F3EBE6" stroke-width="10" stroke-linecap="round"/>
<path d="M280.309 291.641C273.573 290.105 267.044 287.576 260.924 284.356C257.659 282.638 254.349 280.959 251.651 278.429C251.262 278.064 250.982 277.658 250.75 277.194" stroke="#F3EBE6" stroke-width="10" stroke-linecap="round"/>
<path d="M256.745 284.973C251.471 284.722 245.982 284.504 240.793 283.492C238.214 282.989 235.666 282.23 233.1 281.652C231.332 281.253 229.222 280.613 227.408 280.689C226.369 280.732 229.156 281.82 230.075 282.306" stroke="#F3EBE6" stroke-width="10" stroke-linecap="round"/>
<path d="M276.082 290.752C274.009 290.579 272.13 290.153 270.044 290.073C265.531 289.899 260.928 289.185 256.425 288.751C251.254 288.254 246.064 287.91 240.905 287.307C239.348 287.125 237.799 286.883 236.25 286.652C235.995 286.614 234.414 286.564 235.188 286.307" stroke="#F3EBE6" stroke-width="10" stroke-linecap="round"/>
<path d="M275.639 289.418C270.257 284.425 265.191 278.946 260.514 273.281C257.656 269.819 255.544 265.783 253.414 261.859" stroke="#F3EBE6" stroke-width="10" stroke-linecap="round"/>
<path d="M269.419 288.973C269.291 279.758 269.083 270.577 269.444 261.365C269.649 256.106 270.086 250.895 270.086 245.635" stroke="#F3EBE6" stroke-width="10" stroke-linecap="round"/>
<path d="M278.305 276.75C279.572 277.712 280.74 271.113 280.972 270.082C281.746 266.635 282.615 263.24 283.244 259.76C284.503 252.789 284.528 245.801 284.528 238.745" stroke="#F3EBE6" stroke-width="10" stroke-linecap="round"/>
<path d="M280.305 279.195C280.555 280.111 282.186 275.817 282.33 275.367C284.64 268.106 286.802 260.779 289.318 253.586C291.208 248.183 293.517 242.942 295.64 237.634" stroke="#F3EBE6" stroke-width="10" stroke-linecap="round"/>
<path d="M290.97 266.304C290.74 266.841 292.163 264.824 292.353 264.575C296.539 259.107 301.567 254.269 305.466 248.586C308.755 243.792 312.069 238.891 315.64 234.3" stroke="#F3EBE6" stroke-width="10" stroke-linecap="round"/>
<path d="M309.641 258.303C311.106 250.803 313.489 243.522 314.629 235.954C315.07 233.03 314.975 230.301 314.975 227.41" stroke="#F3EBE6" stroke-width="10" stroke-linecap="round"/>
<path d="M307.864 255.636C301.917 248.832 294.664 243.376 288.59 236.695C288.103 236.16 284.996 233.627 286.75 233.188" stroke="#F3EBE6" stroke-width="10" stroke-linecap="round"/>
<path d="M330.148 259.855C322.042 254.682 313.488 250.125 305.166 245.257C301.169 242.918 297.279 240.421 293.288 238.07C291.934 237.273 290.625 236.439 289.148 235.855" stroke="#F3EBE6" stroke-width="10" stroke-linecap="round"/>
<path d="M328.648 260.521C325.584 254.238 321.679 248.406 318.821 242.028C317.866 239.898 316.848 237.802 315.929 235.656C314.927 233.321 314.125 230.633 312.648 228.521" stroke="#F3EBE6" stroke-width="10" stroke-linecap="round"/>
<path d="M328.758 260.081C330.137 257.89 330.823 254.845 331.474 252.352C332.104 249.941 332.605 247.499 333.252 245.091C334.832 239.21 335.952 233.118 338.092 227.41" stroke="#F3EBE6" stroke-width="10" stroke-linecap="round"/>
<path d="M338.312 257.192C340.243 258.231 345.343 249.909 346.19 248.746C351.113 241.986 355.03 234.512 359.426 227.41" stroke="#F3EBE6" stroke-width="10" stroke-linecap="round"/>
<path d="M359.867 261.193C360.864 260.528 361.459 258.676 361.966 257.661C362.741 256.113 363.253 254.434 364.139 252.945C367.083 247.998 370.809 243.656 374.091 238.968" stroke="#F3EBE6" stroke-width="10" stroke-linecap="round"/>
<path d="M374.541 259.859C374.457 260.116 372.205 265.367 374.146 263.588C375.598 262.257 376.783 260.481 377.973 258.946C379.958 256.385 381.953 253.846 384.036 251.364C387.518 247.217 391.117 243.156 394.543 238.968" stroke="#F3EBE6" stroke-width="10" stroke-linecap="round"/>
<path d="M384.766 258.97C382.927 263.382 389.704 250.779 391.976 246.573C394.225 242.41 396.323 238.141 398.323 233.855" stroke="#F3EBE6" stroke-width="10" stroke-linecap="round"/>
<path d="M382.766 274.972C386.33 273.614 388.729 269.829 390.853 266.896C391.768 265.633 392.636 264.331 393.569 263.081C396.763 258.803 401.035 255.189 404.768 251.413" stroke="#F3EBE6" stroke-width="10" stroke-linecap="round"/>
<path d="M398.984 286.973C402.089 287.468 403.9 283.718 405.652 281.59C409.665 276.715 414.187 272.437 418.765 268.082" stroke="#F3EBE6" stroke-width="10" stroke-linecap="round"/>
<path d="M403.43 290.974C405.187 292.682 408.628 293.903 411.06 294.085C412.943 294.226 414.901 294.097 416.789 294.085C422.282 294.051 427.723 292.974 433.211 292.974" stroke="#F3EBE6" stroke-width="10" stroke-linecap="round"/>
<path d="M405.656 298.975C415.011 301.766 424.631 303.56 434.265 305.074C436.551 305.433 438.018 306.073 439.883 307.42" stroke="#F3EBE6" stroke-width="10" stroke-linecap="round"/>
<path d="M405 305.695C416.396 309.34 427.966 312.668 439.615 315.397C444.721 316.593 449.89 317.5 455 318.695" stroke="#F3EBE6" stroke-width="10" stroke-linecap="round"/>
<path d="M404.984 285.195C405.33 284.346 407.017 284.326 407.688 284.232C409.336 284.003 411.001 283.889 412.664 283.862C415.069 283.823 417.458 283.891 419.85 284.134C429.186 285.081 438.706 285.64 448.101 285.64" stroke="#F3EBE6" stroke-width="10" stroke-linecap="round"/>
<path d="M408.32 295.196C409.848 291.211 412.039 286.934 414.642 283.54C416.426 281.214 418.652 279.208 420.618 277.046C424.606 272.662 428.466 268.137 432.323 263.637" stroke="#F3EBE6" stroke-width="10" stroke-linecap="round"/>
<path d="M409.432 282.751C409.069 283.088 405.102 286.569 404.765 285.739C404.643 285.439 404.925 284.098 404.938 283.998C405.338 280.877 405.796 277.764 406.16 274.639C406.799 269.148 407.098 263.597 407.432 258.081" stroke="#F3EBE6" stroke-width="10" stroke-linecap="round"/>
<path d="M397.875 282.751C398.266 282.751 400.244 271.402 400.443 270.28C401.75 262.915 402.32 255.333 402.32 247.857" stroke="#F3EBE6" stroke-width="10" stroke-linecap="round"/>
<path d="M393.207 272.972C389.494 259.638 385.066 246.49 380.539 233.411" stroke="#F3EBE6" stroke-width="10" stroke-linecap="round"/>
<path d="M377.649 241.857C378.661 246.916 379.784 251.946 380.958 256.97C381.771 260.448 382.504 263.534 383.378 266.934C383.516 267.47 383.404 268.195 383.847 268.527C384.124 268.734 383.872 267.836 383.872 267.49C383.872 266.356 383.908 265.213 383.822 264.082C383.596 261.081 382.62 257.996 381.958 255.069C380.948 250.605 379.54 246.196 378.093 241.857C375.681 234.621 372.879 227.43 369.426 220.62C368.966 219.714 368.177 218.037 367.339 217.385C367.274 217.334 367.203 219.172 367.203 219.41" stroke="#F3EBE6" stroke-width="10" stroke-linecap="round"/>
<path d="M374.098 255.192C371.524 242.742 368.204 230.575 361.43 219.632" stroke="#F3EBE6" stroke-width="10" stroke-linecap="round"/>
<path d="M358.318 243.19C358.994 246.531 359.615 249.896 360.442 253.204C360.786 254.579 359.677 250.47 359.183 249.142C357.401 244.355 355.096 239.834 352.984 235.189" stroke="#F3EBE6" stroke-width="10" stroke-linecap="round"/>
<path d="M343.648 226.521C344.538 230.648 345.605 234.733 346.661 238.819C347.649 242.642 348.431 247.1 350.069 250.771C350.422 251.563 351.345 253.234 352.18 253.698C352.341 253.787 352.305 251.876 352.291 251.71C352.129 249.64 351.189 247.588 350.538 245.635" stroke="#F3EBE6" stroke-width="10" stroke-linecap="round"/>
<path d="M331.203 210.52C335.452 224.735 340.937 238.623 348.094 251.636" stroke="#F3EBE6" stroke-width="10" stroke-linecap="round"/>
<path d="M350.757 248.08C345.588 240.194 340.63 232.094 335.101 224.447C333.83 222.691 332.505 221.16 330.977 219.632" stroke="#F3EBE6" stroke-width="10" stroke-linecap="round"/>
<path d="M338.754 251.857C340.206 254.398 336.671 246.386 335.519 243.696C331.699 234.784 327.888 225.904 323.641 217.187" stroke="#F3EBE6" stroke-width="10" stroke-linecap="round"/>
<path d="M321.867 220.299C324.621 227.182 327.469 234.029 330.387 240.845C330.896 242.034 332.101 244.865 332.881 246.426C332.944 246.552 333.146 246.933 333.288 247.018C333.31 247.031 332.983 245.993 332.967 245.956C332.539 244.913 331.97 243.952 331.424 242.968" stroke="#F3EBE6" stroke-width="10" stroke-linecap="round"/>
<path d="M309.867 215.187C312.342 222.169 315.644 229.029 319.276 235.485C322.286 240.837 326.61 245.151 330.759 249.635" stroke="#F3EBE6" stroke-width="10" stroke-linecap="round"/>
<path d="M303.195 224.077C306.096 229.744 309.811 235.166 313.456 240.375C315.197 242.864 317.273 245.08 319.321 247.315C322.046 250.289 325.165 252.899 328.31 255.414" stroke="#F3EBE6" stroke-width="10" stroke-linecap="round"/>
<path d="M294.531 227.188C299.308 234.008 303.905 240.995 309.348 247.314C312.922 251.464 316.938 254.893 321.201 258.303" stroke="#F3EBE6" stroke-width="10" stroke-linecap="round"/>
<path d="M282.969 233.634C286.707 240.609 291.976 247.145 298.006 252.446C299.903 254.114 301.862 255.732 303.858 257.291C306.663 259.482 309.82 260.955 312.969 262.634" stroke="#F3EBE6" stroke-width="10" stroke-linecap="round"/>
<path d="M268.523 226.077C275.22 236.662 281.015 248.203 289.464 257.538C290.887 259.109 292.363 260.628 294.057 261.909C296.104 263.456 298.106 263.861 300.527 264.526" stroke="#F3EBE6" stroke-width="10" stroke-linecap="round"/>
<path d="M277.859 235.411C281.004 241.083 284.563 248.328 290.503 251.734C292.307 252.769 294.692 253.655 296.578 254.278C301.871 256.026 307.335 257.484 312.864 258.253C316.905 258.816 320.936 258.346 324.976 258.081" stroke="#F3EBE6" stroke-width="10" stroke-linecap="round"/>
<path d="M367.425 224.743C364.424 228.189 362.759 232.494 359.201 235.51C356.975 237.398 354.626 238.66 351.867 239.634" stroke="#F3EBE6" stroke-width="10" stroke-linecap="round"/>
<path d="M349.645 212.742C348.162 215.415 346.712 218.022 345.743 220.928C344.323 225.189 343.545 229.588 342.768 234.004C342.114 237.722 341.059 241.715 341.249 245.536C341.321 246.99 341.655 247.872 342.533 248.969" stroke="#F3EBE6" stroke-width="10" stroke-linecap="round"/>
<path d="M396.763 227.188C393.492 230.35 389.884 233.395 387.034 236.967C383.521 241.371 380.557 246.196 377.008 250.574C375.422 252.531 373.562 254.248 372.094 256.303" stroke="#F3EBE6" stroke-width="10" stroke-linecap="round"/>
<path d="M421.878 239.412C414.931 244.409 408.944 250.567 402.542 256.204C399.775 258.641 396.53 260.546 393.331 262.353C392.038 263.084 390.881 263.652 389.43 263.86" stroke="#F3EBE6" stroke-width="10" stroke-linecap="round"/>
<path d="M425.213 251.858C419.114 258.815 412.554 265.746 404.618 270.601C401.715 272.377 399.005 273.958 396.32 276.084" stroke="#F3EBE6" stroke-width="10" stroke-linecap="round"/>
<path d="M422.547 267.695C402.53 267.695 382.557 265.373 362.547 263.695" stroke="#F3EBE6" stroke-width="10" stroke-linecap="round"/>
<path d="M258.969 240.745C267.092 247.102 275.276 253.064 284.7 257.315C291.188 260.241 297.832 261.867 304.752 263.415" stroke="#F3EBE6" stroke-width="10" stroke-linecap="round"/>
<path d="M258.523 251.413C261.529 255.052 266.102 257.763 270.006 260.352C276.397 264.591 282.982 268.573 289.416 272.749" stroke="#F3EBE6" stroke-width="10" stroke-linecap="round"/>
<path d="M371.462 260.241C366.837 259.527 362.25 258.605 357.582 258.231C356.488 258.144 356.616 257.701 356.871 256.799C357.359 255.076 357.906 253.373 358.381 251.646C359.092 249.06 360.216 246.627 361.668 244.406C362.549 243.059 362.91 241.297 363.711 239.854C363.979 239.371 364.705 239.622 365.022 239.854C365.857 240.464 365.56 241.697 365.766 242.563C366.041 243.721 365.95 245.11 366.077 246.25C366.242 247.735 367.261 249.452 368.075 250.647C369.561 252.825 370.995 254.862 372.861 256.755C374.15 258.062 375.391 259.427 376.77 260.641C377.783 261.533 378.95 262.479 379.702 263.595C380.463 264.724 382.012 265.613 383.055 266.482C384.21 267.444 385.427 268.353 386.553 269.347C388.614 271.165 390.661 273.316 392.15 275.632C393.228 277.31 395.074 278.242 396.247 279.785C396.947 280.705 398.395 281.703 399.445 282.228C400.697 282.854 402.356 283.765 403.732 284.027C405.263 284.319 406.614 285.476 408.14 285.815C409.708 286.163 411.563 286.604 413.037 287.225C413.987 287.625 415.806 288.025 416.835 288.025" stroke="#F3EBE6" stroke-width="10" stroke-linecap="round"/>
<path d="M399.453 263.639C396.056 263.558 395.46 262.149 394.145 259.441C393.393 257.893 393.383 256.178 392.701 254.644C392.389 253.943 391.293 249.903 392.701 249.847C394.114 249.791 395.801 251.427 396.854 252.246C397.321 252.608 398.453 253.213 398.453 253.845" stroke="#F3EBE6" stroke-width="10" stroke-linecap="round"/>
<path d="M283.521 267.037C280.139 267.557 278.548 271.327 277.369 274.077C276.7 275.638 276.018 277.008 275.17 278.475C274.697 279.293 274.019 280.35 273.727 281.229" stroke="#F3EBE6" stroke-width="10" stroke-linecap="round"/>
<path d="M354.017 406.155C353.568 414.242 353.354 422.4 353.406 430.599C353.531 450.471 357.089 470.077 357.989 489.874C358.779 507.25 357.704 524.412 357.106 541.748C356.878 548.38 358.295 554.886 358.295 561.371" stroke="#F3EBE6" stroke-width="10" stroke-linecap="round"/>
<path d="M355.849 562.593C353.718 562.711 351.886 563.984 350.01 564.901C345.319 567.195 340.78 569.077 336.363 571.963C321.844 581.447 308.901 592.381 297.05 605.029C288.735 613.902 280.734 623.042 272.131 631.645C269.95 633.827 267.818 635.967 265.884 638.367C264.794 639.721 264.351 639.703 266.02 638.367" stroke="#F3EBE6" stroke-width="10" stroke-linecap="round"/>
<path d="M356.461 561.37C369.469 564.198 380.362 571.12 391.157 578.48C402.717 586.362 413.916 596.48 421.983 607.948C428.954 617.859 435.401 627.911 441.062 638.638C442.131 640.664 446.269 647.763 444.457 641.422" stroke="#F3EBE6" stroke-width="10" stroke-linecap="round"/>
<path d="M360.133 473.985C364.894 473.985 368.572 475.166 373.271 473.205C381.985 469.567 389.727 463.63 397.205 457.961C400.807 455.231 404.629 452.87 408.035 449.882C411.338 446.983 414.475 443.815 417.575 440.715C418.989 439.301 419.408 436.279 419.408 439.154" stroke="#F3EBE6" stroke-width="10" stroke-linecap="round"/>
<path d="M358.3 474.597C350.503 474.597 342.845 473.151 335.079 472.798C330.606 472.594 326.23 472.02 321.771 471.677C316.338 471.259 311.323 472.389 306.019 473.375C294.123 475.585 283.004 480.711 272.171 485.902C267.904 487.947 263.687 491.469 259.305 492.929" stroke="#F3EBE6" stroke-width="10" stroke-linecap="round"/>
</svg>
