<svg width="663" height="650" viewBox="0 0 663 650" fill="none" xmlns="http://www.w3.org/2000/svg">
<path d="M60.7583 236.217C112 219.061 170.238 197.311 191.779 186.885M60.7583 236.217L3.03636 88.5874L133.061 38.0284M60.7583 236.217L67.4911 238.49C98.6884 228.169 168.709 203.372 199.211 186.758M191.779 186.885L133.061 38.0284M191.779 186.885L199.211 186.758M133.061 38.0284L139.441 39.3659L199.211 186.758" stroke="#F3EBE6" stroke-width="2"/>
<path d="M19.6838 103.999C19.9723 103.528 19.8244 102.913 19.3535 102.624C18.8825 102.336 18.2669 102.484 17.9784 102.955L19.6838 103.999ZM18.8311 103.477L17.9784 102.955C15.1447 107.58 11.9379 108.311 10.202 107.857C9.29639 107.62 8.80637 107.097 8.66847 106.63C8.54662 106.217 8.61696 105.552 9.51117 104.784L8.85983 104.026L8.20849 103.267C6.8853 104.403 6.34886 105.836 6.75025 107.196C7.1356 108.502 8.29884 109.427 9.69593 109.792C12.5654 110.543 16.5616 109.096 19.6838 103.999L18.8311 103.477Z" fill="#F3EBE6"/>
<path d="M23.9526 116.819C24.2411 116.348 24.0932 115.733 23.6223 115.444C23.1513 115.155 22.5357 115.303 22.2472 115.774L23.9526 116.819ZM23.0999 116.297L22.2472 115.774C19.3573 120.492 16.4735 121.258 15.1533 120.942C14.4985 120.785 14.2087 120.4 14.152 120.035C14.0923 119.65 14.2419 118.953 15.1853 118.144L14.5339 117.385L13.8826 116.626C12.6085 117.72 11.9757 119.054 12.1757 120.342C12.3788 121.648 13.3909 122.576 14.6875 122.887C17.2701 123.505 20.8866 121.824 23.9526 116.819L23.0999 116.297Z" fill="#F3EBE6"/>
<path d="M29.8795 131.15C30.168 130.679 30.0201 130.063 29.5491 129.774C29.0782 129.486 28.4625 129.634 28.174 130.105L29.8795 131.15ZM29.0268 130.627L28.174 130.105C25.3036 134.79 22.2672 135.668 20.7622 135.369C19.9975 135.217 19.6692 134.811 19.5949 134.478C19.521 134.147 19.6119 133.492 20.5529 132.685L19.9016 131.926L19.2503 131.167C17.9739 132.263 17.3523 133.612 17.643 134.914C17.9333 136.214 19.0467 137.068 20.3731 137.331C23.0504 137.862 26.7941 136.186 29.8795 131.15L29.0268 130.627Z" fill="#F3EBE6"/>
<path d="M35.5251 146.118C35.8136 145.648 35.6657 145.032 35.1948 144.743C34.7238 144.455 34.1082 144.603 33.8197 145.074L35.5251 146.118ZM34.6724 145.596L33.8197 145.074C30.9334 149.785 28.0231 150.571 26.6711 150.257C25.9973 150.101 25.7018 149.712 25.642 149.353C25.5795 148.978 25.7191 148.288 26.662 147.479L26.0107 146.72L25.3594 145.961C24.0849 147.055 23.4541 148.392 23.6692 149.682C23.8871 150.989 24.9175 151.904 26.219 152.206C28.8176 152.809 32.4555 151.129 35.5251 146.118L34.6724 145.596Z" fill="#F3EBE6"/>
<path d="M40.9691 160.652C41.2728 160.191 41.1449 159.57 40.6835 159.267C40.2222 158.963 39.6021 159.091 39.2985 159.552L40.9691 160.652ZM40.1338 160.102L39.2985 159.552C37.4774 162.32 35.8199 163.924 34.4747 164.758C33.121 165.597 32.1858 165.603 31.6835 165.416C31.2139 165.242 30.9145 164.827 30.9022 164.234C30.8896 163.627 31.1957 162.781 32.1229 161.985L31.4715 161.227L30.8202 160.468C29.53 161.575 28.8753 162.961 28.9026 164.276C28.9301 165.604 29.6712 166.802 30.9866 167.291C32.2694 167.768 33.8639 167.489 35.5285 166.457C37.2015 165.42 39.0508 163.567 40.9691 160.652L40.1338 160.102Z" fill="#F3EBE6"/>
<path d="M45.8013 174.84C46.0898 174.369 45.9419 173.753 45.4709 173.465C45 173.176 44.3843 173.324 44.0958 173.795L45.8013 174.84ZM44.9486 174.318L44.0958 173.795C41.2019 178.519 38.4063 179.08 37.1781 178.68C36.5582 178.478 36.231 178.042 36.1724 177.571C36.1131 177.096 36.3059 176.351 37.2325 175.556L36.5811 174.797L35.9298 174.038C34.6389 175.146 34.0245 176.508 34.1877 177.819C34.3517 179.134 35.2768 180.164 36.5585 180.581C39.1338 181.42 42.7394 179.838 45.8013 174.84L44.9486 174.318Z" fill="#F3EBE6"/>
<path d="M51.7296 189.173C52.0181 188.702 51.8702 188.086 51.3992 187.798C50.9283 187.509 50.3127 187.657 50.0242 188.128L51.7296 189.173ZM50.8769 188.651L50.0242 188.128C48.5978 190.457 47.0953 191.943 45.7668 192.812C44.4217 193.692 43.3136 193.904 42.6399 193.815C42.3084 193.771 42.1207 193.662 42.0262 193.572C41.9437 193.493 41.8871 193.388 41.883 193.216C41.8735 192.815 42.1749 191.958 43.5077 190.829L42.8612 190.066L42.2147 189.303C40.7115 190.577 39.8525 191.96 39.8836 193.264C39.8998 193.944 40.1638 194.557 40.6428 195.016C41.1099 195.463 41.7246 195.711 42.3774 195.798C43.672 195.969 45.2591 195.534 46.8616 194.486C48.4806 193.427 50.178 191.706 51.7296 189.173L50.8769 188.651Z" fill="#F3EBE6"/>
<path d="M57.3109 203.379C57.4355 202.841 57.1003 202.304 56.5623 202.179C56.0242 202.054 55.487 202.39 55.3625 202.928L57.3109 203.379ZM56.3367 203.153L55.3625 202.928C54.68 205.876 53.6192 207.461 52.622 208.23C51.6572 208.974 50.6692 209.023 49.855 208.725C49.001 208.411 48.343 207.718 48.1059 206.981C47.8891 206.307 47.9989 205.544 48.7964 204.859L48.1451 204.1L47.4938 203.342C46.0739 204.56 45.7433 206.167 46.202 207.593C46.6404 208.956 47.774 210.092 49.1665 210.602C50.5989 211.128 52.3125 210.994 53.8434 209.814C55.3418 208.658 56.5707 206.576 57.3109 203.379L56.3367 203.153Z" fill="#F3EBE6"/>
<path d="M62.2463 218.236C62.4652 217.729 62.2317 217.14 61.7246 216.921C61.2176 216.703 60.6291 216.936 60.4102 217.443L62.2463 218.236ZM61.3282 217.84L60.4102 217.443C58.5017 221.863 56.1643 222.477 55.0663 222.225C54.473 222.088 54.1045 221.714 53.9791 221.322C53.8632 220.961 53.8999 220.404 54.5038 219.768L53.7783 219.079L53.0528 218.391C52.0306 219.469 51.7009 220.766 52.0744 221.932C52.4383 223.069 53.4149 223.897 54.6185 224.174C57.1143 224.747 60.1779 223.027 62.2463 218.236L61.3282 217.84Z" fill="#F3EBE6"/>
<path d="M21.7327 101.316C21.028 99.4446 19.5636 98.3932 17.2239 99.2741C14.8843 100.155 14.1852 102.555 14.8899 104.427C15.5947 106.299 17.0591 107.35 19.3987 106.469C21.7384 105.588 22.4375 103.188 21.7327 101.316Z" stroke="#F3EBE6" stroke-width="2"/>
<path d="M26.1947 114.578C25.4429 112.582 24.0057 111.413 21.822 112.235C19.6383 113.057 19.0798 115.547 19.8316 117.544C20.5833 119.54 22.0205 120.709 24.2042 119.887C26.3879 119.064 26.9464 116.575 26.1947 114.578Z" stroke="#F3EBE6" stroke-width="2"/>
<path d="M31.9515 128.457C31.2467 126.585 29.7823 125.534 27.4427 126.415C25.103 127.296 24.404 129.696 25.1087 131.568C25.8134 133.439 27.2778 134.491 29.6175 133.61C31.9571 132.729 32.6562 130.329 31.9515 128.457Z" stroke="#F3EBE6" stroke-width="2"/>
<path d="M37.1182 143.591C36.3665 141.594 35.054 140.379 33.1823 141.083C31.3105 141.788 30.9392 144.207 31.6909 146.204C32.4426 148.2 33.7551 149.416 35.6268 148.711C37.4986 148.006 37.8699 145.587 37.1182 143.591Z" stroke="#F3EBE6" stroke-width="2"/>
<path d="M43.2288 158.402C42.5241 156.531 41.0597 155.479 38.72 156.36C36.3804 157.241 35.6813 159.641 36.386 161.513C37.0908 163.385 38.5552 164.436 40.8948 163.555C43.2345 162.674 43.9335 160.274 43.2288 158.402Z" stroke="#F3EBE6" stroke-width="2"/>
<path d="M48.0384 172.602C47.2867 170.605 45.8494 169.437 43.6658 170.259C41.4821 171.081 40.9236 173.571 41.6753 175.567C42.427 177.564 43.8643 178.732 46.048 177.91C48.2316 177.088 48.7901 174.598 48.0384 172.602Z" stroke="#F3EBE6" stroke-width="2"/>
<path d="M53.6768 187.575C52.9251 185.578 51.6126 184.363 49.7409 185.068C47.8691 185.772 47.4978 188.192 48.2495 190.188C49.0012 192.185 50.3137 193.4 52.1854 192.696C54.0572 191.991 54.4285 189.572 53.6768 187.575Z" stroke="#F3EBE6" stroke-width="2"/>
<path d="M59.7516 201.585C58.9999 199.589 57.4379 198.467 54.9422 199.407C52.4466 200.346 51.7009 202.907 52.4527 204.903C53.2044 206.9 54.7664 208.021 57.262 207.082C59.7577 206.142 60.5033 203.582 59.7516 201.585Z" stroke="#F3EBE6" stroke-width="2"/>
<path d="M65.0407 215.62C64.289 213.624 62.7269 212.502 60.2313 213.442C57.7357 214.382 56.99 216.942 57.7417 218.938C58.4934 220.935 60.0555 222.056 62.5511 221.117C65.0467 220.177 65.7924 217.617 65.0407 215.62Z" stroke="#F3EBE6" stroke-width="2"/>
<path d="M55.3372 151.275C73.9184 146.561 117.292 133.05 149.799 114.682C150.234 114.436 150.415 113.907 150.228 113.443L127.125 56.2194C126.929 55.7322 126.408 55.4739 125.908 55.637C101.557 63.5904 50.4589 81.7188 31.9314 93.5542C31.53 93.8106 31.3915 94.3054 31.5701 94.7469L54.1878 150.677C54.3747 151.139 54.854 151.398 55.3372 151.275Z" stroke="#F3EBE6" stroke-width="2"/>
<path d="M197.177 186.992L137.875 39.4236L135.942 38.5483L196.064 186.877L194.718 186.849M194.718 186.849L193.372 186.822L134.83 38.4328L196.709 187.168C163.023 204.126 99.0525 227.677 66.0403 237.436L62.9959 236.445C111.314 221.458 155.276 206.253 194.718 186.849Z" stroke="#F3EBE6" stroke-width="2"/>
<path d="M585.784 137.479C585.276 138.565 584.525 139.671 583.905 140.724C583.219 141.889 582.334 142.978 581.746 144.197C580.7 146.365 579.619 148.501 578.598 150.684C575.77 156.726 573.099 162.847 570.202 168.862C568.578 172.234 566.705 175.483 565.331 178.978C563.587 183.417 561.615 187.77 559.562 192.075C557.645 196.095 555.52 199.994 553.632 204.03C552.502 206.443 551.281 208.813 550.15 211.23" stroke="#F3EBE6" stroke-width="2" stroke-linecap="round"/>
<path d="M436.832 155.316C438.521 156.107 440.311 157.093 441.727 158.307C443.635 159.942 445.699 161.232 447.954 162.34C449.89 163.291 451.486 164.833 453.446 165.75C456.454 167.158 459.409 168.853 462.267 170.547C462.92 170.933 463.639 171.209 464.321 171.539C465.024 171.879 465.599 172.407 466.305 172.747C467.716 173.427 468.995 174.373 470.399 175.091C473.51 176.679 476.597 178.263 479.769 179.748C486.243 182.778 492.65 185.916 499.121 188.945C505.673 192.011 512.377 194.687 518.959 197.67C521.806 198.96 524.652 200.222 527.655 201.11C529.693 201.712 531.797 202.279 533.726 203.182C535.7 204.106 537.738 204.92 539.722 205.848C541.567 206.711 543.37 207.695 545.202 208.552C546.893 209.344 548.585 210.136 550.276 210.927" stroke="#F3EBE6" stroke-width="2" stroke-linecap="round"/>
<path d="M485.016 49.8672L436.007 154.583" stroke="#F3EBE6" stroke-width="2" stroke-linecap="round"/>
<path d="M543.555 22.5348C541.529 24.0028 539.141 25.3973 536.715 26.0977C536.051 26.2894 535.415 26.6452 534.713 26.6977C533.924 26.7567 533.112 27.0137 532.366 27.2596C531.716 27.4739 531.021 27.5424 530.375 27.7763C529.598 28.0581 528.755 28.4155 527.94 28.5703C526.592 28.8265 525.306 29.6444 523.922 29.7984C522.659 29.9389 521.442 30.7942 520.179 30.964C519.475 31.0586 518.811 31.3933 518.118 31.5434C517.354 31.7089 516.285 31.9939 515.595 32.3507C515.055 32.6299 514.198 32.8207 513.59 32.9563C512.916 33.1064 512.139 33.3527 511.506 33.6138C510.836 33.8898 510.065 34.1454 509.356 34.3229C508.304 34.5864 507.36 35.1474 506.298 35.4126C504.872 35.7684 503.583 36.5612 502.159 36.8847C500.769 37.2004 499.466 37.7837 498.12 38.1576C496.738 38.5413 495.341 38.9831 493.976 39.4498C492.76 39.8657 491.471 40.1621 490.285 40.5919C490.124 40.6503 489.882 41.0014 489.723 41.1214C489.446 41.3303 489.231 41.6115 488.963 41.8111C488.505 42.1509 488.297 42.5564 487.955 42.9999C487.23 43.9416 486.444 44.9748 485.939 46.053C485.524 46.9398 485.296 47.8663 484.926 48.7423C484.653 49.3888 484.378 50.2433 484.396 50.9264" stroke="#F3EBE6" stroke-width="2" stroke-linecap="round"/>
<path d="M544.317 23.2612C543.799 24.7356 544.007 26.45 543.369 27.9143C542.924 28.9363 542.811 30.2396 542.544 31.313C542.407 31.8601 542.364 32.4273 542.205 32.9717C542.034 33.5547 541.775 34.1137 541.663 34.7132C541.412 36.053 540.854 37.3925 540.499 38.7186C540.358 39.2453 540.044 39.6984 539.912 40.2343C539.754 40.8824 539.547 41.5683 539.276 42.1775C538.807 43.2306 538.533 44.5326 538.237 45.6537C537.936 46.7928 537.414 47.9952 536.914 49.0654C536.321 50.3314 535.837 51.6278 535.244 52.8957C534.652 54.1609 534.098 55.6498 533.251 56.7593C532.525 57.7112 532.024 58.987 531.518 60.068C531.132 60.8938 530.745 61.7195 530.359 62.5453C530.051 63.203 529.91 63.8324 529.684 64.4978C529.601 64.7429 529.368 65.0132 529.386 65.2806C529.447 66.1588 529.297 65.3632 529.101 65.0859C528.779 64.6288 528.656 64.0678 528.224 63.6913C527.899 63.4088 527.643 63.0434 527.308 62.7711C526.993 62.5143 526.636 62.1112 526.29 61.9254C524.934 61.1965 523.948 59.7845 522.601 59.0922C521.972 58.7688 521.483 58.2186 520.826 57.8925C519.83 57.3985 518.937 56.6313 518.025 55.9941C514.271 53.3706 510.716 50.5783 506.556 48.6315C503.261 47.0892 500.145 45.1966 496.718 44.0338C495.69 43.6851 494.687 43.3225 493.7 42.8607C493.42 42.7297 492.158 41.9146 491.861 42.0613C491.736 42.1226 490.731 41.7172 490.579 41.6461" stroke="#F3EBE6" stroke-width="2" stroke-linecap="round"/>
<path d="M544.003 22.6236C545.168 23.1688 546.399 23.4517 547.583 23.9233C548.971 24.476 550.416 25.0825 551.841 25.5265C554.909 26.483 557.958 27.5391 561.036 28.4772C562.636 28.9648 564.12 29.8251 565.706 30.3825C567.375 30.9695 569.038 31.5322 570.719 32.0796C574.302 33.2469 577.986 34.292 581.463 35.7349C585.611 37.4559 589.659 39.4184 593.811 41.1313C596.848 42.384 599.81 43.8228 602.789 45.2171C604.055 45.8092 605.255 46.4941 606.52 47.0859C607.682 47.6297 608.693 48.4497 609.842 49.0095C612.142 50.1304 614.178 51.7771 616.497 52.8621C617.269 53.2233 618.156 53.5186 618.825 54.0475C619.269 54.3985 619.833 54.9155 620.338 55.1516C620.974 55.4494 621.964 56.0933 622.419 56.6174C622.763 57.0144 623.436 57.1485 623.563 57.7062C623.963 59.4698 623.255 61.2554 622.761 62.9812C621.997 65.6475 620.591 68.1431 619.416 70.653C616.996 75.8249 614.771 81.0677 612.682 86.3716C612.226 87.5274 612.035 88.7889 611.511 89.9094C611.199 90.575 610.869 91.3657 610.631 92.0665C610.246 93.2026 609.877 94.4509 609.375 95.5235" stroke="#F3EBE6" stroke-width="2" stroke-linecap="round"/>
<path d="M636.623 87.2451C635.289 87.2634 633.972 87.2105 632.65 87.326C631.516 87.4249 630.412 88.0635 629.322 88.3784C627.951 88.7741 626.68 89.461 625.251 89.7324C623.831 90.0022 622.505 90.7714 621.097 91.0471C620.06 91.2502 618.923 91.6793 617.911 92.0155C617.343 92.204 616.725 92.467 616.13 92.5351C615.548 92.6018 615.006 92.9134 614.448 92.9773C613.959 93.0333 613.533 93.2895 613.045 93.332C612.643 93.3671 611.798 93.7235 611.438 93.9052C610.673 94.2911 609.733 94.4938 609.173 95.182" stroke="#F3EBE6" stroke-width="2" stroke-linecap="round"/>
<path d="M636.92 87.3851C637.862 87.8256 638.626 88.6155 639.403 89.2917C639.522 89.3951 639.644 89.7128 639.792 89.863C640.025 90.0992 640.152 90.4506 640.348 90.7178C640.726 91.2316 641.134 91.9798 641.252 92.5824C641.364 93.1524 641.812 93.6345 641.854 94.2443C641.892 94.7944 642.206 95.3918 642.322 95.9458C642.521 96.8991 642.806 97.846 643.146 98.7841C643.571 99.9573 643.782 101.255 644.058 102.47C644.302 103.546 644.387 104.986 644.293 106.112C644.247 106.676 644.29 107.247 644.304 107.812C644.314 108.202 644.412 108.745 644.33 109.115C644.22 109.607 644.314 110.081 644.271 110.57C644.245 110.858 644.305 111.198 644.333 111.487C644.361 111.771 644.222 112.039 644.216 112.321C644.199 113.219 643.603 114.419 642.97 115.058C642.079 115.957 640.925 116.498 639.978 117.32C639.596 117.651 639.039 117.801 638.641 118.074C638.306 118.304 637.807 118.627 637.431 118.731C636.782 118.911 636.21 119.334 635.608 119.606C635.214 119.784 634.503 120.174 634.095 120.224C632.818 120.379 631.466 120.973 630.252 121.342C629.391 121.604 628.531 121.924 627.684 122.231C626.866 122.527 626.002 122.719 625.218 123.106C624.453 123.483 623.566 123.613 622.769 123.928C622.085 124.199 621.38 124.441 620.691 124.691C619.097 125.268 617.488 125.842 615.883 126.424C615.217 126.665 614.55 126.907 613.884 127.148C613.207 127.393 612.49 127.88 611.774 127.978C611.256 128.049 610.388 128.509 609.928 128.768C609.062 129.255 607.96 129.465 607.027 129.842C603.825 131.139 600.56 132.154 597.273 133.209C595.518 133.773 593.763 134.394 592.045 134.978C590.961 135.347 590.01 136.031 588.885 136.287C588.608 136.35 588.308 136.464 588.057 136.61C587.699 136.818 587.287 136.818 586.933 137.04C586.284 137.449 585.39 137.58 584.673 137.855C583.359 138.358 582.022 138.632 580.734 139.25C579.505 139.839 578.146 140.313 576.854 140.781C574.907 141.487 573.011 142.388 571.073 143.09C569.543 143.645 567.939 144.179 566.393 144.74C564.66 145.368 562.678 145.96 561.136 146.98C560.506 147.397 559.71 147.645 559.018 147.957C558.143 148.352 557.322 148.883 556.422 149.228C554.829 149.84 553.2 150.401 551.65 151.088C550.067 151.79 548.372 152.101 546.901 152.958C546.453 153.219 545.35 153.446 545.082 153.794C544.823 154.13 544.108 154.137 543.785 154.478" stroke="#F3EBE6" stroke-width="2" stroke-linecap="round"/>
<path d="M611.108 94.9806C610.917 95.2938 609.916 95.7358 609.543 95.799C608.891 95.9095 608.3 96.2628 607.676 96.4759C607.051 96.6889 606.33 96.9016 605.784 97.2917C605.176 97.7263 604.388 97.8603 603.743 98.236C602.153 99.1627 600.402 99.7539 598.838 100.702C597.651 101.422 596.277 101.796 595.034 102.393C594.635 102.584 594.188 102.704 593.773 102.855C593.215 103.056 592.565 103.39 591.983 103.466C590.815 103.617 589.679 104.163 588.505 104.386C587.161 104.642 585.887 105.264 584.545 105.491C583.143 105.729 581.808 106.232 580.474 106.715C578.18 107.546 575.895 108.328 573.606 109.158C571.314 109.988 569.111 111.073 566.8 111.875C564.167 112.789 561.566 113.856 558.936 114.809C558.382 115.009 557.828 115.21 557.274 115.411C556.753 115.6 556.265 115.968 555.725 116.093C555.12 116.234 554.652 116.612 554.088 116.817C551.744 117.666 549.476 118.686 547.233 119.785C546.382 120.202 545.493 120.611 544.614 120.93C543.705 121.259 542.895 121.878 541.97 122.214C541.139 122.515 540.151 123.04 539.447 123.547C538.732 124.061 537.851 124.354 537.087 124.779C535.438 125.696 533.733 126.509 532.085 127.453C530.989 128.08 529.686 128.769 528.456 129.164C527.732 129.396 527.164 129.986 526.466 130.262C526.033 130.432 525.608 130.658 525.265 130.929C524.937 131.189 524.453 131.398 524.184 131.708C524.045 131.867 523.939 132.071 523.793 132.235C523.58 132.475 523.203 132.795 523.062 133.068C522.944 133.297 522.744 133.361 522.595 133.554C522.367 133.85 522.215 134.216 521.919 134.46C521.595 134.726 521.29 135.123 521.067 135.476C520.877 135.779 520.534 135.969 520.348 136.253C519.944 136.871 519.391 137.519 518.816 137.995C518.165 138.533 517.693 139.314 517.116 139.933C516.25 140.863 515.395 141.832 514.609 142.736C513.26 144.286 512.303 146.079 511.327 147.895C511.041 148.426 509.956 149.662 510.398 150.289C510.744 150.78 511.114 151.267 511.455 151.767C511.762 152.218 512.352 152.406 512.711 152.82C512.979 153.129 513.796 153.478 514.167 153.651C514.606 153.857 515.364 154.265 515.838 154.283C516.387 154.305 516.898 154.575 517.43 154.693C517.704 154.754 517.899 154.894 518.191 154.92C518.524 154.95 518.904 154.958 519.227 155.043C520.584 155.4 522.204 155.276 523.601 155.361C524.355 155.407 525.207 155.591 525.945 155.536C526.871 155.466 527.809 155.66 528.724 155.538C529.678 155.412 530.867 155.468 531.818 155.613C532.437 155.708 533.066 155.602 533.696 155.659C534.947 155.77 536.306 155.858 537.615 155.839C538.628 155.825 539.555 155.955 540.558 155.727C541.571 155.497 542.744 155.112 543.538 154.484" stroke="#F3EBE6" stroke-width="2" stroke-linecap="round"/>
<path d="M516.272 142.218C516.571 142.358 516.926 142.492 517.163 142.726C517.515 143.075 517.857 143.462 518.233 143.784C518.738 144.217 519.112 144.859 519.498 145.392C519.966 146.039 520.43 146.659 520.773 147.385C521.15 148.185 521.475 149.111 521.725 149.961C521.947 150.712 522.289 151.499 522.422 152.269C522.533 152.908 522.707 153.568 522.687 154.219C522.678 154.538 522.738 154.85 522.6 155.145" stroke="#F3EBE6" stroke-width="2" stroke-linecap="round"/>
<path d="M520.746 137.395C521.395 138.215 522.384 138.726 523.093 139.508C523.547 140.009 523.937 140.569 524.287 141.146C524.634 141.719 525.056 142.27 525.357 142.867C525.86 143.865 526.362 144.769 526.611 145.877C526.827 146.838 527.136 147.734 527.252 148.719C527.334 149.413 527.453 150.126 527.438 150.824C527.431 151.145 527.465 151.521 527.505 151.842C527.528 152.027 527.446 152.197 527.47 152.383C527.52 152.766 527.41 153.148 527.402 153.522C527.398 153.765 527.379 154.28 527.284 154.483" stroke="#F3EBE6" stroke-width="2" stroke-linecap="round"/>
<path d="M528.023 130.391C528.357 130.547 528.63 130.903 528.861 131.178C529.236 131.624 529.588 132.048 529.843 132.575C530.084 133.074 530.299 133.64 530.442 134.174C530.571 134.657 530.595 135.071 530.649 135.555C530.691 135.935 530.518 136.414 530.428 136.781C530.32 137.22 530.099 137.62 529.907 138.029C529.602 138.681 529.364 139.4 529.241 140.101C529.147 140.637 529.093 141.174 529.636 141.428C530.262 141.721 530.94 141.764 531.623 141.688C532.263 141.617 533.171 141.623 533.774 141.905C534.141 142.077 534.341 142.506 534.471 142.866C534.641 143.335 534.361 144.111 534.168 144.523C533.825 145.254 533.483 145.986 533.14 146.718C532.901 147.23 533.288 147.611 533.585 148.005C533.89 148.41 534.403 148.674 534.856 148.886C535.545 149.208 536.376 149.226 537.105 149.444C537.522 149.569 537.866 149.834 538.243 150.027C538.615 150.217 538.88 150.571 539.229 150.805C539.927 151.273 540.52 152.052 540.898 152.792C541.026 153.043 541.328 153.504 541.322 153.785C541.32 153.899 541.326 154.287 541.375 154.349" stroke="#F3EBE6" stroke-width="2" stroke-linecap="round"/>
<path d="M530.043 129.873C529.984 130.049 530.369 130.544 530.492 130.686C530.81 131.056 531.033 131.506 531.368 131.858C531.629 132.132 531.717 132.554 531.947 132.859C532.163 133.146 532.319 133.529 532.442 133.866C532.54 134.139 532.656 134.392 532.715 134.675C532.753 134.858 532.861 135.175 532.806 135.356C532.619 135.968 532.546 136.52 532.142 137.045C531.799 137.49 531.436 138.019 531.194 138.537C531.092 138.753 530.971 139.211 530.972 139.448C530.972 139.49 530.972 139.766 530.988 139.759C531.11 139.707 531.243 139.252 531.281 139.134C531.511 138.423 531.706 137.765 531.809 137.019C531.883 136.482 531.795 135.901 531.792 135.361C531.789 134.984 531.694 134.597 531.749 134.223C531.834 133.646 531.8 132.964 531.794 132.378C531.79 131.93 531.831 131.472 531.853 131.024C531.868 130.732 531.819 130.475 531.812 130.193C531.808 130.053 531.753 129.762 531.631 129.668C531.462 129.538 531.308 129.193 531.408 129.588C531.488 129.906 531.739 130.383 531.985 130.606C532.363 130.947 532.593 131.496 532.905 131.897C533.262 132.355 533.633 132.932 533.815 133.479C533.91 133.768 533.99 134.028 534.055 134.322C534.112 134.579 534.167 135.073 534.091 135.322C534.063 135.413 534.062 135.63 534.106 135.418C534.171 135.111 534.093 134.693 534.016 134.398C533.817 133.644 533.541 132.776 533.126 132.11C532.79 131.569 532.509 131.035 532.18 130.492C532.082 130.331 531.97 130.068 531.84 129.938C531.688 129.788 531.527 129.489 531.343 129.402" stroke="#F3EBE6" stroke-width="2" stroke-linecap="round"/>
<path d="M533.629 135.108C533.952 135.559 533.844 136.278 533.831 136.786C533.817 137.324 533.705 137.839 533.362 138.284C533.106 138.617 532.9 138.969 532.721 139.352C532.668 139.465 532.445 139.786 532.524 139.909C532.607 140.036 532.669 140.18 532.752 140.311C532.921 140.577 533.084 140.819 533.369 140.953C533.685 141.101 534.001 141.249 534.318 141.397C534.404 141.437 534.79 141.654 534.62 141.397C534.472 141.172 534.345 140.771 534.309 140.504C534.233 139.939 533.793 139.503 533.701 138.947C533.628 138.507 533.421 138.099 533.359 137.651C533.296 137.202 533.265 136.729 533.273 136.274C533.278 135.977 533.281 135.444 533.409 135.171C533.436 135.113 533.4 135.299 533.415 135.36C533.457 135.527 533.421 135.66 533.482 135.829C533.722 136.491 533.955 137.141 534.25 137.782C534.475 138.273 534.739 138.869 535.147 139.239C535.509 139.567 535.935 140.04 536.222 140.447C536.365 140.651 536.726 140.802 536.827 141.016C536.878 141.124 537.048 141.393 537.137 141.447C537.41 141.614 537.345 142.173 537.471 142.428C537.545 142.578 537.094 143.301 537.021 143.456C536.697 144.149 536.231 145.184 535.407 145.384C534.789 145.533 535.617 143.472 535.719 143.255C535.77 143.146 536.189 142.279 535.956 142.749C535.654 143.358 535.205 143.903 534.883 144.507C534.566 145.099 534.159 145.878 534.223 146.557C534.255 146.895 534.613 146.522 534.696 146.391C534.888 146.086 535.126 145.814 535.324 145.514C535.592 145.111 535.769 144.64 535.973 144.203C536.055 144.029 536.496 143.382 536.444 143.168C536.389 142.941 535.683 143.977 535.638 144.046C535.106 144.863 534.944 145.855 535.069 146.813C535.152 147.438 535.286 147.836 535.658 148.336C536.117 148.954 536.998 147.205 537.079 146.963C537.305 146.296 537.204 145.621 537.089 144.947C537.038 144.651 536.961 144.331 536.992 144.031C537.113 142.877 536.476 146.977 537.527 147.469C538.482 147.916 539.426 148.339 540.294 148.94C540.689 149.214 541.04 149.548 541.428 149.834C541.797 150.106 542.182 150.366 542.508 150.689C542.918 151.094 543.53 151.426 543.802 151.957C543.862 152.076 543.963 152.138 544.018 152.27C544.085 152.428 544.145 152.566 544.202 152.723C544.222 152.778 544.429 153.057 544.387 152.869C544.323 152.59 543.959 152.307 543.777 152.108C543.061 151.325 542.538 150.397 541.928 149.532C541.358 148.723 540.977 147.726 540.304 146.991C539.868 146.516 539.434 146.14 538.939 145.732C538.661 145.503 538.057 145.091 537.685 145.226C537.622 145.248 536.939 145.541 537.213 145.594C537.769 145.702 538.397 146.061 538.858 146.381C539.749 147.001 540.539 147.907 541.204 148.76C541.559 149.215 541.777 149.761 542.057 150.259C542.292 150.677 542.539 151.104 542.702 151.556C542.829 151.905 542.943 152.368 542.66 152.693C542.557 152.811 541.942 152.287 541.882 152.223C541.458 151.762 541.101 151.309 540.808 150.75C540.716 150.574 539.553 148.6 539.383 148.747C539.204 148.902 539.476 149.476 539.562 149.624C539.878 150.169 540.269 150.656 540.654 151.154C541.138 151.78 541.636 152.432 541.903 153.167C541.992 153.412 542.174 153.96 542.428 154.079C542.711 154.212 543.218 154.076 543.484 153.924C543.884 153.695 544.205 153.469 544.407 153.037C544.558 152.715 544.241 152.34 544.137 152.054C543.908 151.421 543.309 150.776 542.885 150.262C542.675 150.008 542.401 149.716 542.152 149.507C541.855 149.257 541.661 148.929 541.368 148.681C541.085 148.442 540.874 148.081 540.678 147.773C540.511 147.51 540.206 147.301 540.033 147.027C539.574 146.297 539.128 145.562 538.516 144.949C537.894 144.325 537.057 143.964 536.409 143.377C536.216 143.202 536 143.128 535.818 142.938C535.669 142.783 535.6 142.576 535.527 142.376C535.395 142.009 535.677 141.554 535.65 141.164C535.565 139.94 534.787 139.395 533.753 138.911C533.488 138.787 532.933 138.713 532.633 138.736C532.257 138.764 531.945 138.864 531.601 139.032C531.275 139.193 530.636 139.467 530.472 139.819C530.243 140.307 530.816 140.382 531.167 140.338C531.664 140.276 532.324 140.019 532.81 140.247" stroke="#F3EBE6" stroke-width="2" stroke-linecap="round"/>
<path d="M534.138 133.188C534.412 133.617 534.75 134.259 534.831 134.767C534.882 135.087 534.942 135.415 535.035 135.716C535.208 136.273 534.989 136.914 535.192 137.475C535.387 138.013 535.805 138.367 536.206 138.775C536.996 139.576 537.927 140.459 538.431 141.481C538.586 141.794 538.68 142.143 538.768 142.478C538.852 142.793 539.063 143.095 539.181 143.404C539.295 143.703 539.469 143.987 539.615 144.27C539.752 144.537 539.822 144.833 539.96 145.102C540.044 145.267 540.237 145.777 540.224 145.592C540.191 145.127 539.878 144.588 539.678 144.18C539.009 142.813 538.468 141.368 537.742 140.03C536.913 138.502 535.861 137.138 534.948 135.661C534.776 135.382 534.587 135.087 534.386 134.827C534.292 134.705 534.21 134.5 534.067 134.424C533.792 134.276 533.452 133.816 533.255 133.568C533.1 133.372 532.948 133.156 532.784 132.97C532.624 132.788 532.903 133.433 532.944 133.517C533.483 134.636 534.081 135.733 534.657 136.833C535.389 138.23 536.246 139.559 536.974 140.954C537.514 141.987 538.202 142.941 538.737 143.976C539.419 145.293 540.129 146.614 540.871 147.894C541.216 148.489 541.603 149.072 542.048 149.584C542.14 149.691 542.215 149.811 542.302 149.922C542.544 150.228 542.206 149.717 542.15 149.629C541.86 149.169 541.57 148.707 541.286 148.244C541.036 147.837 540.691 147.482 540.463 147.069C540.077 146.369 539.589 145.72 539.202 145.018C538.818 144.324 538.438 143.64 538.077 142.93C537.087 140.98 535.907 139.126 535.08 137.091C534.711 136.184 534.369 135.271 534 134.364C533.893 134.1 533.694 133.857 533.599 133.594C533.544 133.444 533.511 133.269 533.392 133.155" stroke="#F3EBE6" stroke-width="2" stroke-linecap="round"/>
<path d="M545.553 152.748C545.326 152.613 545.192 152.293 545.016 152.102C544.766 151.833 544.596 151.503 544.367 151.213C544.215 151.021 544.075 150.838 543.935 150.644C543.775 150.423 543.522 150.117 543.442 149.86C543.332 149.51 542.991 149.23 542.855 148.883C542.694 148.476 542.434 148.087 542.231 147.699C541.907 147.079 541.593 146.456 541.22 145.865C540.892 145.343 540.561 144.785 540.305 144.227C540.157 143.906 539.995 143.577 539.817 143.272C539.675 143.029 539.451 142.696 539.37 142.428C539.23 141.968 538.781 141.627 538.654 141.169C538.585 140.922 538.374 140.596 538.244 140.364C538.013 139.948 537.858 139.499 537.635 139.074C537.342 138.514 537.072 137.885 536.845 137.311C536.679 136.892 536.444 136.511 536.29 136.085C535.965 135.187 535.308 134.433 534.939 133.548C534.716 133.016 534.514 132.457 534.223 131.958C533.953 131.495 533.648 130.951 533.452 130.455C533.338 130.166 533.032 129.844 532.844 129.585C532.665 129.337 532.424 128.895 532.148 128.766" stroke="#F3EBE6" stroke-width="2" stroke-linecap="round"/>
<path d="M612.473 94.2989C609.879 95.2389 607.355 96.1789 604.695 96.9469C602.229 97.659 599.792 98.6297 597.609 100.004C596.658 100.603 595.563 100.962 594.636 101.586C594.15 101.913 593.563 102.059 593.068 102.353C592.39 102.757 591.597 103.048 590.852 103.318C589.897 103.663 588.922 103.996 588 104.428C587.491 104.667 586.942 104.979 586.4 105.124C586.034 105.222 585.623 105.329 585.297 105.523C584.755 105.846 584.042 105.991 583.448 106.206C583.079 106.34 582.505 106.734 582.117 106.688" stroke="#F3EBE6" stroke-width="2" stroke-linecap="round"/>
<path d="M635.516 93.3576C634.983 93.587 634.404 93.7544 633.887 94.0023C633.554 94.1625 633.183 94.3122 632.839 94.4369C632.479 94.5674 632.003 94.7288 631.625 94.8127C630.885 94.9764 630.141 95.3055 629.427 95.564C628.711 95.8235 627.952 95.9765 627.245 96.2326C626.93 96.3467 626.561 96.3956 626.234 96.4865C625.916 96.5749 625.503 96.7151 625.179 96.7433C624.807 96.7758 624.405 96.9208 624.055 97.0479C623.692 97.1794 623.253 97.206 622.923 97.3871C622.06 97.8611 621.004 98.0116 620.106 98.4242C619.116 98.879 618.085 99.2414 617.092 99.6901C615.082 100.598 612.955 101.238 610.863 101.996C609.84 102.366 608.768 102.604 607.739 102.96C606.791 103.289 605.877 103.667 604.936 104.009C600.379 105.66 595.977 107.686 591.413 109.34C589.46 110.048 587.477 110.798 585.606 111.721C584.618 112.208 583.564 112.705 582.524 113.082C581.268 113.537 580.096 114.283 578.886 114.863C576.769 115.879 574.659 116.947 572.58 118.03C572.156 118.251 571.731 118.455 571.307 118.671C570.822 118.919 570.239 119.066 569.774 119.356C569.254 119.679 568.637 119.891 568.083 120.155C567.479 120.443 566.853 120.758 566.234 121.008C565.062 121.483 563.949 122.099 562.778 122.553C561.341 123.11 560.024 123.956 558.581 124.479C557.807 124.76 557.047 125.124 556.314 125.5C555.391 125.974 554.368 126.235 553.42 126.652C551.666 127.423 549.833 128.113 548.031 128.766C545.421 129.712 542.953 131.069 540.351 132.012C539.383 132.363 538.489 132.948 537.533 133.322C536.931 133.558 536.354 133.816 535.843 134.221C535.704 134.331 535.246 134.452 535.407 134.527C535.56 134.599 535.815 134.344 535.905 134.26" stroke="#F3EBE6" stroke-width="2" stroke-linecap="round"/>
<path d="M637.722 100.253C636.844 100.66 635.898 101.097 634.98 101.392C634.568 101.524 634.2 101.74 633.803 101.908C633.406 102.076 632.97 102.182 632.596 102.4C631.955 102.774 631.12 102.993 630.414 103.249C629.401 103.616 628.423 104.076 627.401 104.421C626.461 104.738 625.464 104.972 624.561 105.395C624.158 105.585 623.68 105.689 623.257 105.842C622.965 105.948 622.669 106.121 622.367 106.191C621.989 106.278 621.582 106.409 621.221 106.551C620.723 106.748 620.185 106.855 619.704 107.069C619.273 107.261 618.808 107.259 618.385 107.438C617.854 107.662 617.3 107.785 616.766 107.992C615.954 108.307 615.029 108.368 614.264 108.799C613.626 109.158 612.746 109.42 612.052 109.671C611.111 110.012 610.21 110.495 609.299 110.913C608.33 111.359 607.289 111.736 606.358 112.256C605.263 112.867 604.076 113.352 602.942 113.886C601.761 114.442 600.541 115.045 599.315 115.503C597.316 116.249 595.44 117.322 593.449 118.092C591.885 118.696 590.282 119.343 588.768 120.064C588.146 120.361 587.452 120.522 586.813 120.783C586.096 121.075 585.362 121.37 584.635 121.633C583.66 121.986 582.677 122.291 581.702 122.644C580.252 123.17 578.902 123.884 577.477 124.401C575.697 125.046 574.001 126.032 572.175 126.55C571.207 126.825 570.279 127.305 569.334 127.647C568.038 128.117 566.672 128.66 565.432 129.258C564.122 129.889 562.712 130.306 561.375 130.885C560.142 131.42 558.888 131.892 557.655 132.439C555.702 133.306 553.641 133.967 551.7 134.854C550.156 135.561 548.64 136.318 547.085 136.99C545.865 137.518 544.618 138.036 543.42 138.608C542.895 138.858 542.342 139.069 541.8 139.266C541.348 139.429 540.907 139.682 540.444 139.802C540.209 139.863 539.271 140.129 539.158 140.371" stroke="#F3EBE6" stroke-width="2" stroke-linecap="round"/>
<path d="M637.71 110.444C635.95 110.756 634.224 111.426 632.45 111.656C631.96 111.719 631.518 111.97 631.038 112.08C630.579 112.186 630.149 112.316 629.706 112.477C628.787 112.81 627.88 113.301 626.941 113.562C626.004 113.822 625.081 114.274 624.181 114.649C623.29 115.021 622.374 115.355 621.513 115.78C619.687 116.681 617.66 117.266 615.731 117.917C614.384 118.372 613.007 118.76 611.668 119.245C610.97 119.498 610.244 119.655 609.531 119.859C608.853 120.053 608.217 120.374 607.524 120.515C606.899 120.642 606.312 120.948 605.714 121.164C605.167 121.363 604.584 121.521 604.023 121.681C602.648 122.072 601.345 122.812 599.984 123.251C598.695 123.666 597.456 124.283 596.2 124.789C595.001 125.273 593.8 125.773 592.633 126.329C589.851 127.656 586.998 128.849 584.171 130.078C581.829 131.096 579.407 131.92 577.058 132.919C576.347 133.221 575.619 133.466 574.895 133.729C574.248 133.963 573.627 134.313 572.945 134.435C572.142 134.579 571.359 135.017 570.573 135.256C569.779 135.498 568.95 135.735 568.168 136.019C567 136.442 565.795 136.754 564.621 137.163C563.724 137.474 562.867 137.86 561.958 138.131C561.466 138.277 560.991 138.557 560.531 138.78C560.063 139.006 559.555 139.171 559.102 139.423C558.398 139.814 557.605 140.03 556.892 140.381C555.366 141.134 553.776 141.744 552.216 142.436C551.18 142.895 550.125 143.352 549.073 143.784C548.291 144.105 547.37 144.463 546.651 144.916C544.973 145.972 543.062 146.422 541.293 147.063" stroke="#F3EBE6" stroke-width="2" stroke-linecap="round"/>
<path d="M501.434 65.3984L577.404 100.953" stroke="#F3EBE6" stroke-width="2" stroke-linecap="round"/>
<path d="M490.168 86.3594L549.923 114.325" stroke="#F3EBE6" stroke-width="2" stroke-linecap="round"/>
<path d="M482.161 109.456C484.829 110.465 487.388 111.78 489.97 112.989C493.033 114.422 496.095 115.855 499.157 117.288C503.183 119.172 507.209 121.056 511.234 122.94C513.67 124.08 516.106 125.22 518.541 126.36" stroke="#F3EBE6" stroke-width="2" stroke-linecap="round"/>
<path d="M473.406 132.324L503.834 146.565" stroke="#F3EBE6" stroke-width="2" stroke-linecap="round"/>
<path d="M294.029 271.93C287.046 271.93 284.064 281.658 283.361 287.109C281.99 297.73 279.922 307.94 279.805 318.75C279.663 331.836 280.731 348.389 286.95 360.204C298.724 382.575 319.045 402.456 345.887 403.469C360.229 404.01 373.822 402.337 385.892 393.887C398.037 385.386 407.754 372.716 411.081 358.13C417.094 331.764 407.173 304.878 390.041 284.837C379.613 272.638 362.017 261.262 345.459 261.262C336.732 261.262 328.373 261.261 319.777 262.447C312.991 263.383 306.306 266.317 299.955 268.637C295.399 270.302 291.268 273.256 287.246 275.815C285.279 277.067 281.998 279.99 280.99 282.005" stroke="#F3EBE6" stroke-width="10" stroke-linecap="round"/>
<path d="M320.104 312.824C320.104 315.678 319.512 318.722 319.512 321.714" stroke="#F3EBE6" stroke-width="10" stroke-linecap="round"/>
<path d="M374.034 311.047C374.034 314.324 373.441 317.236 373.441 320.53" stroke="#F3EBE6" stroke-width="10" stroke-linecap="round"/>
<path d="M323.401 292.367C321.556 292.479 319.677 293.021 317.874 293.4C316.741 293.639 315.583 293.827 314.48 294.182C311.712 295.07 309.403 296.536 307.281 298.491C306.055 299.621 304.893 300.728 303.778 301.977C302.984 302.866 302.447 303.884 301.771 304.858C301.235 305.63 300.818 306.425 300.418 307.269C300.266 307.59 300.257 307.897 299.965 308.092" stroke="#F3EBE6" stroke-width="10" stroke-linecap="round"/>
<path d="M372.842 295.238C368.059 295.238 363.563 296.867 360.981 301.051C359.748 303.05 358.176 304.935 358.176 307.334" stroke="#F3EBE6" stroke-width="10" stroke-linecap="round"/>
<path d="M324.902 351.945C326.412 354.964 328.393 357.858 330.365 360.592C332.5 363.554 334.96 366.37 337.845 368.624C344.524 373.843 353.764 375.768 361.942 373.409C368.937 371.391 374.414 366.74 378.936 361.183C379.998 359.879 380.892 358.599 381.451 357.006C381.696 356.306 381.693 355.515 381.797 354.783" stroke="#F3EBE6" stroke-width="10" stroke-linecap="round"/>
<path d="M277.199 331.703C269.878 341.885 262.748 351.748 257.271 363.09C254.535 368.754 251.552 374.51 249.714 380.549C249.625 380.841 249.254 381.95 249.467 382.376C249.848 383.137 250.733 382.641 251.196 382.376" stroke="#F3EBE6" stroke-width="10" stroke-linecap="round"/>
<path d="M276.757 313.922C273.963 319.735 271.592 325.57 269.225 331.554C266.263 339.044 262.994 346.375 259.595 353.68C258.083 356.927 256.343 360.144 255.026 363.484C254.421 365.017 254.91 364.114 255.421 363.261" stroke="#F3EBE6" stroke-width="10" stroke-linecap="round"/>
<path d="M273.417 293.477C271.831 298.982 269.406 304.308 267.515 309.725C265.692 314.949 264.127 320.256 262.304 325.481C259.532 333.426 256.476 341.305 253.958 349.335C253.757 349.974 253.069 351.064 253.859 351.262" stroke="#F3EBE6" stroke-width="10" stroke-linecap="round"/>
<path d="M280.087 299.477C272.9 313.473 264.348 326.953 256.035 340.296C251.812 347.074 247.274 353.683 243.354 360.645C241.796 363.413 239.956 366.202 238.675 369.115C238.459 369.604 238.638 369.728 239.02 369.337C239.793 368.547 240.264 367.565 240.749 366.596" stroke="#F3EBE6" stroke-width="10" stroke-linecap="round"/>
<path d="M273.865 303.254C271.411 307.791 268.437 312.119 265.642 316.441C261.415 322.976 257.222 329.58 252.603 335.851C249.603 339.924 246.471 343.904 243.466 347.976C241.598 350.508 239.787 353.093 237.96 355.655C237.379 356.47 236.724 357.389 236.527 358.372" stroke="#F3EBE6" stroke-width="10" stroke-linecap="round"/>
<path d="M268.751 306.363C264.521 310.967 260.325 315.638 255.787 319.945C250.425 325.034 244.362 329.287 238.501 333.774C235.578 336.011 232.517 338.116 229.413 340.096C228.313 340.797 227.176 341.471 226.03 342.096C225.28 342.505 225.459 342.228 225.635 341.701" stroke="#F3EBE6" stroke-width="10" stroke-linecap="round"/>
<path d="M267.42 303.695C262.9 308.393 259.359 314.024 255.493 319.253C253.05 322.557 250.448 325.802 247.788 328.933C247.436 329.348 240.379 337.153 240.183 336.786C239.687 335.861 240.922 333.295 241.195 332.366" stroke="#F3EBE6" stroke-width="10" stroke-linecap="round"/>
<path d="M277.201 289.25C272.752 293.819 267.36 296.041 261.594 298.276C257.312 299.935 253.04 301.496 248.654 302.881C244.988 304.04 241.275 305.4 237.418 305.696" stroke="#F3EBE6" stroke-width="10" stroke-linecap="round"/>
<path d="M283.863 284.363C280.326 286.854 277.095 289.566 273.714 292.241C270.833 294.52 267.891 296.686 264.873 298.785C258.084 303.506 251.245 308.713 243.809 312.404C238.848 314.866 233.476 315.531 228.301 317.256" stroke="#F3EBE6" stroke-width="10" stroke-linecap="round"/>
<path d="M280.313 292.142C273.576 290.606 267.048 288.077 260.928 284.857C257.663 283.139 254.353 281.46 251.655 278.93C251.266 278.565 250.986 278.159 250.754 277.695" stroke="#F3EBE6" stroke-width="10" stroke-linecap="round"/>
<path d="M256.749 285.474C251.475 285.223 245.986 285.005 240.797 283.993C238.218 283.49 235.67 282.731 233.104 282.153C231.336 281.754 229.226 281.114 227.412 281.19C226.373 281.233 229.16 282.321 230.079 282.807" stroke="#F3EBE6" stroke-width="10" stroke-linecap="round"/>
<path d="M276.086 291.25C274.013 291.077 272.134 290.651 270.048 290.571C265.535 290.397 260.932 289.683 256.429 289.249C251.258 288.752 246.068 288.408 240.908 287.805C239.352 287.623 237.803 287.381 236.254 287.15C235.999 287.113 234.418 287.063 235.192 286.805" stroke="#F3EBE6" stroke-width="10" stroke-linecap="round"/>
<path d="M275.643 289.918C270.26 284.925 265.195 279.446 260.518 273.781C257.659 270.319 255.548 266.283 253.418 262.359" stroke="#F3EBE6" stroke-width="10" stroke-linecap="round"/>
<path d="M269.423 289.472C269.295 280.256 269.087 271.075 269.447 261.863C269.653 256.604 270.09 251.393 270.09 246.133" stroke="#F3EBE6" stroke-width="10" stroke-linecap="round"/>
<path d="M278.309 277.251C279.576 278.212 280.744 271.614 280.976 270.583C281.749 267.136 282.619 263.741 283.247 260.261C284.507 253.29 284.532 246.302 284.532 239.246" stroke="#F3EBE6" stroke-width="10" stroke-linecap="round"/>
<path d="M280.309 279.694C280.559 280.61 282.19 276.316 282.334 275.866C284.644 268.605 286.806 261.278 289.322 254.085C291.212 248.682 293.521 243.441 295.644 238.133" stroke="#F3EBE6" stroke-width="10" stroke-linecap="round"/>
<path d="M290.974 266.805C290.744 267.342 292.167 265.325 292.357 265.076C296.543 259.608 301.571 254.77 305.47 249.087C308.758 244.293 312.073 239.392 315.644 234.801" stroke="#F3EBE6" stroke-width="10" stroke-linecap="round"/>
<path d="M309.645 258.803C311.11 251.303 313.493 244.022 314.633 236.454C315.074 233.53 314.979 230.801 314.979 227.91" stroke="#F3EBE6" stroke-width="10" stroke-linecap="round"/>
<path d="M307.868 256.135C301.921 249.331 294.668 243.875 288.594 237.194C288.107 236.659 285 234.126 286.754 233.688" stroke="#F3EBE6" stroke-width="10" stroke-linecap="round"/>
<path d="M330.152 260.355C322.046 255.182 313.491 250.625 305.17 245.757C301.173 243.418 297.283 240.921 293.292 238.57C291.938 237.773 290.629 236.939 289.152 236.355" stroke="#F3EBE6" stroke-width="10" stroke-linecap="round"/>
<path d="M328.652 261.023C325.588 254.739 321.683 248.908 318.824 242.53C317.87 240.4 316.852 238.304 315.932 236.158C314.931 233.823 314.129 231.135 312.652 229.023" stroke="#F3EBE6" stroke-width="10" stroke-linecap="round"/>
<path d="M328.762 260.581C330.141 258.39 330.826 255.345 331.478 252.852C332.108 250.441 332.609 247.999 333.256 245.591C334.836 239.71 335.956 233.618 338.096 227.91" stroke="#F3EBE6" stroke-width="10" stroke-linecap="round"/>
<path d="M338.316 257.692C340.247 258.731 345.347 250.409 346.194 249.246C351.117 242.486 355.033 235.012 359.43 227.91" stroke="#F3EBE6" stroke-width="10" stroke-linecap="round"/>
<path d="M359.871 261.694C360.868 261.029 361.463 259.177 361.97 258.162C362.745 256.613 363.257 254.935 364.143 253.446C367.087 248.499 370.813 244.157 374.095 239.469" stroke="#F3EBE6" stroke-width="10" stroke-linecap="round"/>
<path d="M374.545 260.36C374.461 260.616 372.209 265.868 374.15 264.089C375.601 262.758 376.787 260.982 377.977 259.447C379.962 256.886 381.957 254.347 384.04 251.865C387.522 247.718 391.121 243.657 394.547 239.469" stroke="#F3EBE6" stroke-width="10" stroke-linecap="round"/>
<path d="M384.77 259.47C382.931 263.882 389.708 251.279 391.98 247.073C394.229 242.91 396.327 238.641 398.327 234.355" stroke="#F3EBE6" stroke-width="10" stroke-linecap="round"/>
<path d="M382.77 275.473C386.334 274.115 388.733 270.33 390.857 267.397C391.772 266.134 392.64 264.832 393.573 263.582C396.767 259.304 401.039 255.69 404.772 251.914" stroke="#F3EBE6" stroke-width="10" stroke-linecap="round"/>
<path d="M398.988 287.473C402.093 287.968 403.904 284.218 405.656 282.09C409.668 277.215 414.191 272.937 418.769 268.582" stroke="#F3EBE6" stroke-width="10" stroke-linecap="round"/>
<path d="M403.434 291.473C405.191 293.181 408.632 294.402 411.064 294.584C412.947 294.725 414.905 294.596 416.793 294.584C422.285 294.55 427.727 293.473 433.215 293.473" stroke="#F3EBE6" stroke-width="10" stroke-linecap="round"/>
<path d="M405.66 299.477C415.015 302.268 424.635 304.062 434.269 305.576C436.555 305.935 438.022 306.575 439.887 307.922" stroke="#F3EBE6" stroke-width="10" stroke-linecap="round"/>
<path d="M405.004 306.195C416.4 309.84 427.97 313.168 439.619 315.897C444.725 317.093 449.894 318 455.004 319.195" stroke="#F3EBE6" stroke-width="10" stroke-linecap="round"/>
<path d="M404.988 285.695C405.334 284.846 407.021 284.826 407.692 284.732C409.34 284.503 411.005 284.389 412.668 284.362C415.073 284.323 417.462 284.391 419.854 284.634C429.19 285.581 438.71 286.14 448.105 286.14" stroke="#F3EBE6" stroke-width="10" stroke-linecap="round"/>
<path d="M408.324 295.696C409.852 291.711 412.043 287.434 414.646 284.04C416.43 281.714 418.656 279.708 420.622 277.546C424.61 273.162 428.47 268.637 432.327 264.137" stroke="#F3EBE6" stroke-width="10" stroke-linecap="round"/>
<path d="M409.436 283.252C409.073 283.589 405.106 287.07 404.769 286.24C404.647 285.94 404.929 284.599 404.942 284.499C405.342 281.378 405.8 278.265 406.164 275.14C406.803 269.649 407.101 264.098 407.436 258.582" stroke="#F3EBE6" stroke-width="10" stroke-linecap="round"/>
<path d="M397.879 283.253C398.269 283.253 400.248 271.904 400.447 270.782C401.754 263.417 402.324 255.835 402.324 248.359" stroke="#F3EBE6" stroke-width="10" stroke-linecap="round"/>
<path d="M393.211 273.471C389.498 260.137 385.07 246.989 380.543 233.91" stroke="#F3EBE6" stroke-width="10" stroke-linecap="round"/>
<path d="M377.653 242.356C378.665 247.415 379.788 252.445 380.962 257.469C381.775 260.947 382.507 264.033 383.382 267.433C383.52 267.969 383.408 268.694 383.851 269.026C384.128 269.233 383.876 268.335 383.876 267.989C383.876 266.855 383.912 265.712 383.826 264.581C383.6 261.58 382.624 258.495 381.962 255.568C380.952 251.104 379.544 246.695 378.097 242.356C375.685 235.12 372.883 227.929 369.43 221.119C368.97 220.213 368.181 218.536 367.343 217.884C367.278 217.833 367.207 219.671 367.207 219.909" stroke="#F3EBE6" stroke-width="10" stroke-linecap="round"/>
<path d="M374.102 255.693C371.528 243.243 368.208 231.076 361.434 220.133" stroke="#F3EBE6" stroke-width="10" stroke-linecap="round"/>
<path d="M358.322 243.688C358.998 247.029 359.619 250.394 360.446 253.702C360.79 255.077 359.681 250.969 359.187 249.64C357.405 244.853 355.099 240.332 352.988 235.688" stroke="#F3EBE6" stroke-width="10" stroke-linecap="round"/>
<path d="M343.652 227.023C344.542 231.149 345.609 235.235 346.665 239.321C347.653 243.144 348.435 247.602 350.073 251.273C350.426 252.065 351.349 253.735 352.184 254.2C352.345 254.289 352.308 252.378 352.295 252.212C352.133 250.141 351.193 248.09 350.542 246.137" stroke="#F3EBE6" stroke-width="10" stroke-linecap="round"/>
<path d="M331.207 211.02C335.456 225.235 340.941 239.123 348.098 252.136" stroke="#F3EBE6" stroke-width="10" stroke-linecap="round"/>
<path d="M350.761 248.581C345.592 240.695 340.634 232.595 335.104 224.948C333.834 223.192 332.509 221.661 330.98 220.133" stroke="#F3EBE6" stroke-width="10" stroke-linecap="round"/>
<path d="M338.758 252.358C340.209 254.899 336.675 246.887 335.523 244.197C331.703 235.285 327.892 226.405 323.645 217.688" stroke="#F3EBE6" stroke-width="10" stroke-linecap="round"/>
<path d="M321.871 220.797C324.624 227.68 327.473 234.527 330.391 241.343C330.9 242.532 332.105 245.364 332.885 246.924C332.948 247.05 333.15 247.431 333.292 247.516C333.314 247.529 332.986 246.491 332.971 246.454C332.543 245.412 331.974 244.45 331.428 243.466" stroke="#F3EBE6" stroke-width="10" stroke-linecap="round"/>
<path d="M309.871 215.688C312.346 222.67 315.648 229.53 319.28 235.986C322.29 241.338 326.614 245.652 330.763 250.136" stroke="#F3EBE6" stroke-width="10" stroke-linecap="round"/>
<path d="M303.199 224.578C306.1 230.245 309.815 235.667 313.46 240.876C315.2 243.365 317.277 245.581 319.325 247.816C322.05 250.79 325.169 253.4 328.313 255.915" stroke="#F3EBE6" stroke-width="10" stroke-linecap="round"/>
<path d="M294.535 227.688C299.312 234.507 303.909 241.494 309.352 247.813C312.926 251.963 316.942 255.392 321.205 258.802" stroke="#F3EBE6" stroke-width="10" stroke-linecap="round"/>
<path d="M282.973 234.133C286.711 241.108 291.98 247.644 298.01 252.945C299.907 254.613 301.866 256.231 303.862 257.79C306.667 259.981 309.824 261.454 312.973 263.133" stroke="#F3EBE6" stroke-width="10" stroke-linecap="round"/>
<path d="M268.527 226.578C275.224 237.163 281.019 248.704 289.468 258.039C290.891 259.61 292.367 261.129 294.061 262.41C296.108 263.957 298.11 264.362 300.531 265.027" stroke="#F3EBE6" stroke-width="10" stroke-linecap="round"/>
<path d="M277.863 235.91C281.008 241.582 284.567 248.827 290.507 252.233C292.311 253.268 294.696 254.154 296.582 254.777C301.875 256.525 307.339 257.983 312.868 258.752C316.909 259.315 320.94 258.845 324.98 258.58" stroke="#F3EBE6" stroke-width="10" stroke-linecap="round"/>
<path d="M367.429 225.242C364.427 228.688 362.763 232.993 359.205 236.009C356.979 237.897 354.629 239.159 351.871 240.133" stroke="#F3EBE6" stroke-width="10" stroke-linecap="round"/>
<path d="M349.649 213.242C348.165 215.915 346.716 218.522 345.747 221.428C344.327 225.689 343.549 230.088 342.772 234.504C342.117 238.222 341.063 242.215 341.253 246.036C341.325 247.49 341.659 248.372 342.537 249.469" stroke="#F3EBE6" stroke-width="10" stroke-linecap="round"/>
<path d="M396.767 227.688C393.496 230.849 389.888 233.894 387.038 237.466C383.525 241.87 380.561 246.695 377.012 251.073C375.426 253.03 373.566 254.747 372.098 256.802" stroke="#F3EBE6" stroke-width="10" stroke-linecap="round"/>
<path d="M421.882 239.914C414.935 244.911 408.948 251.069 402.546 256.706C399.779 259.143 396.534 261.048 393.335 262.855C392.041 263.586 390.885 264.154 389.434 264.362" stroke="#F3EBE6" stroke-width="10" stroke-linecap="round"/>
<path d="M425.217 252.359C419.118 259.316 412.558 266.247 404.622 271.102C401.719 272.878 399.009 274.459 396.324 276.585" stroke="#F3EBE6" stroke-width="10" stroke-linecap="round"/>
<path d="M422.551 268.195C402.534 268.195 382.561 265.873 362.551 264.195" stroke="#F3EBE6" stroke-width="10" stroke-linecap="round"/>
<path d="M258.973 241.246C267.095 247.603 275.28 253.565 284.704 257.816C291.191 260.742 297.835 262.368 304.756 263.916" stroke="#F3EBE6" stroke-width="10" stroke-linecap="round"/>
<path d="M258.527 251.914C261.533 255.553 266.106 258.264 270.01 260.853C276.401 265.092 282.986 269.074 289.42 273.25" stroke="#F3EBE6" stroke-width="10" stroke-linecap="round"/>
<path d="M371.466 260.741C366.841 260.027 362.254 259.105 357.586 258.731C356.492 258.644 356.619 258.201 356.875 257.299C357.363 255.576 357.91 253.873 358.385 252.146C359.096 249.56 360.22 247.127 361.672 244.906C362.553 243.559 362.914 241.797 363.715 240.354C363.983 239.871 364.709 240.122 365.026 240.354C365.861 240.964 365.564 242.197 365.77 243.063C366.045 244.221 365.954 245.61 366.081 246.75C366.246 248.235 367.265 249.952 368.079 251.147C369.564 253.325 370.999 255.362 372.865 257.255C374.154 258.562 375.395 259.927 376.774 261.141C377.787 262.033 378.953 262.979 379.706 264.095C380.467 265.224 382.016 266.113 383.059 266.982C384.214 267.944 385.431 268.853 386.557 269.847C388.617 271.665 390.665 273.816 392.154 276.132C393.232 277.81 395.078 278.742 396.251 280.285C396.951 281.205 398.399 282.203 399.449 282.728C400.701 283.354 402.36 284.265 403.736 284.527C405.267 284.819 406.618 285.976 408.144 286.315C409.711 286.663 411.567 287.104 413.041 287.725C413.991 288.125 415.81 288.525 416.839 288.525" stroke="#F3EBE6" stroke-width="10" stroke-linecap="round"/>
<path d="M399.457 264.137C396.06 264.056 395.464 262.647 394.149 259.939C393.396 258.391 393.387 256.676 392.705 255.142C392.393 254.441 391.297 250.402 392.705 250.345C394.118 250.289 395.805 251.925 396.858 252.744C397.325 253.107 398.457 253.711 398.457 254.343" stroke="#F3EBE6" stroke-width="10" stroke-linecap="round"/>
<path d="M283.525 267.539C280.143 268.059 278.552 271.829 277.373 274.579C276.704 276.14 276.022 277.51 275.174 278.977C274.701 279.795 274.023 280.852 273.73 281.731" stroke="#F3EBE6" stroke-width="10" stroke-linecap="round"/>
<path d="M354.021 406.656C353.572 414.743 353.358 422.901 353.41 431.1C353.535 450.972 357.093 470.578 357.993 490.375C358.783 507.751 357.708 524.913 357.11 542.249C356.882 548.881 358.299 555.386 358.299 561.872" stroke="#F3EBE6" stroke-width="10" stroke-linecap="round"/>
<path d="M355.853 563.094C353.722 563.212 351.89 564.485 350.014 565.402C345.323 567.696 340.784 569.578 336.367 572.464C321.848 581.948 308.905 592.882 297.053 605.53C288.739 614.403 280.738 623.543 272.135 632.146C269.953 634.328 267.821 636.468 265.888 638.868C264.798 640.222 264.354 640.204 266.024 638.868" stroke="#F3EBE6" stroke-width="10" stroke-linecap="round"/>
<path d="M356.465 561.871C369.473 564.699 380.366 571.621 391.161 578.981C402.721 586.863 413.92 596.981 421.987 608.449C428.958 618.36 435.404 628.412 441.066 639.139C442.135 641.165 446.273 648.264 444.461 641.923" stroke="#F3EBE6" stroke-width="10" stroke-linecap="round"/>
<path d="M360.137 474.486C364.897 474.486 368.576 475.667 373.275 473.706C381.989 470.068 389.731 464.131 397.209 458.462C400.811 455.732 404.633 453.371 408.039 450.383C411.342 447.484 414.479 444.316 417.579 441.216C418.993 439.802 419.412 436.78 419.412 439.655" stroke="#F3EBE6" stroke-width="10" stroke-linecap="round"/>
<path d="M358.304 475.095C350.507 475.095 342.849 473.649 335.083 473.296C330.61 473.092 326.234 472.518 321.775 472.175C316.342 471.757 311.327 472.887 306.023 473.873C294.127 476.083 283.008 481.209 272.175 486.4C267.908 488.445 263.691 491.967 259.309 493.427" stroke="#F3EBE6" stroke-width="10" stroke-linecap="round"/>
</svg>
