<svg width="118" height="86" viewBox="0 0 118 86" fill="none" xmlns="http://www.w3.org/2000/svg">
<path d="M29.6673 85.6667C21.5784 85.6667 14.6673 82.8667 8.93398 77.2667C3.20065 71.6667 0.333984 64.8223 0.333984 56.7334C0.333984 49.8 2.42287 43.6223 6.60065 38.2C10.7784 32.7778 16.2451 29.3112 23.0007 27.8C25.2229 19.6223 29.6673 13 36.334 7.93337C43.0007 2.86671 50.5562 0.333374 59.0007 0.333374C69.4007 0.333374 78.2229 3.9556 85.4673 11.2C92.7118 18.4445 96.334 27.2667 96.334 37.6667C102.467 38.3778 107.556 41.0223 111.601 45.6C115.645 50.1778 117.667 55.5334 117.667 61.6667C117.667 68.3334 115.334 74 110.667 78.6667C106.001 83.3334 100.334 85.6667 93.6673 85.6667H64.334C61.4007 85.6667 58.8895 84.6223 56.8007 82.5334C54.7118 80.4445 53.6673 77.9334 53.6673 75V47.5334L45.134 55.8L37.6673 48.3334L59.0007 27L80.334 48.3334L72.8673 55.8L64.334 47.5334V75H93.6673C97.4007 75 100.556 73.7112 103.134 71.1334C105.712 68.5556 107.001 65.4 107.001 61.6667C107.001 57.9334 105.712 54.7778 103.134 52.2C100.556 49.6223 97.4007 48.3334 93.6673 48.3334H85.6673V37.6667C85.6673 30.2889 83.0673 24 77.8673 18.8C72.6673 13.6 66.3784 11 59.0007 11C51.6229 11 45.334 13.6 40.134 18.8C34.934 24 32.334 30.2889 32.334 37.6667H29.6673C24.5118 37.6667 20.1118 39.4889 16.4673 43.1334C12.8229 46.7778 11.0007 51.1778 11.0007 56.3334C11.0007 61.4889 12.8229 65.8889 16.4673 69.5334C20.1118 73.1778 24.5118 75 29.6673 75H43.0007V85.6667H29.6673Z" fill="#F3EBE6"/>
</svg>
